<?xml version="1.0" encoding="utf-8"?>
<!-- Generator: Adobe Illustrator 23.0.2, SVG Export Plug-In . SVG Version: 6.00 Build 0)  -->
<svg version="1.1" id="Layer_1" xmlns="http://www.w3.org/2000/svg" xmlns:xlink="http://www.w3.org/1999/xlink" x="0px" y="0px"
	 viewBox="0 0 1024 1024" style="enable-background:new 0 0 1024 1024;" xml:space="preserve">

<path class="st0" d="M512,16.4c-273.28,0-495.59,222.32-495.59,495.58S238.72,1007.6,512,1007.6s495.59-222.36,495.59-495.61
	S785.28,16.4,512,16.4z M677.34,532.22H532.23v145.09c0,11.18-9.05,20.23-20.23,20.23c-11.19,0-20.23-9.05-20.23-20.23V532.22
	H346.66c-11.18,0-20.23-9.07-20.23-20.24c0-11.16,9.05-20.23,20.23-20.23h145.11V346.65c0-11.16,9.04-20.23,20.23-20.23
	c11.18,0,20.23,9.07,20.23,20.23v145.11h145.11c11.18,0,20.23,9.07,20.23,20.23C697.57,523.15,688.52,532.22,677.34,532.22z"/>
</svg>
