<?xml version="1.0" encoding="utf-8"?>
<!-- Generator: Adobe Illustrator 23.0.2, SVG Export Plug-In . SVG Version: 6.00 Build 0)  -->
<svg version="1.1" id="Layer_1" xmlns="http://www.w3.org/2000/svg" xmlns:xlink="http://www.w3.org/1999/xlink" x="0px" y="0px"
	 viewBox="0 0 1024 1024" style="enable-background:new 0 0 1024 1024;" xml:space="preserve">

<g>
	<path class="st0" d="M512,40.93c63.61,0,125.29,12.45,183.35,37.01c56.09,23.72,106.47,57.69,149.74,100.96
		c43.27,43.27,77.24,93.65,100.96,149.74c24.56,58.06,37.01,119.75,37.01,183.35s-12.45,125.29-37.01,183.35
		c-23.72,56.09-57.69,106.47-100.96,149.74c-43.27,43.27-93.65,77.24-149.74,100.96c-58.06,24.56-119.75,37.01-183.35,37.01
		s-125.29-12.45-183.35-37.01c-56.09-23.72-106.47-57.69-149.74-100.96c-43.27-43.27-77.24-93.65-100.96-149.74
		C53.38,637.29,40.93,575.61,40.93,512s12.45-125.29,37.01-183.35c23.72-56.09,57.69-106.47,100.96-149.74
		s93.65-77.24,149.74-100.96C386.71,53.38,448.39,40.93,512,40.93 M512,15.93C238.03,15.93,15.93,238.03,15.93,512
		s222.1,496.07,496.07,496.07s496.07-222.1,496.07-496.07S785.97,15.93,512,15.93L512,15.93z"/>
</g>
<g>
	<g>
		<path d="M440.9,563.32c-0.26-0.63-0.58-1.22-0.95-1.78c-0.37-0.57-0.8-1.09-1.28-1.57c-2.37-2.39-5.9-3.49-9.22-2.8
			c-0.65,0.13-1.3,0.33-1.91,0.58c-0.63,0.25-1.22,0.58-1.77,0.95c-0.56,0.36-1.08,0.8-1.55,1.27c-0.47,0.47-0.91,1-1.27,1.57
			c-0.37,0.56-0.69,1.15-0.94,1.78c-0.25,0.62-0.45,1.27-0.58,1.93c-0.14,0.65-0.2,1.34-0.2,2c0,0.68,0.07,1.35,0.2,2.02
			c0.14,0.65,0.33,1.3,0.58,1.93c0.25,0.62,0.57,1.21,0.94,1.77c0.36,0.57,0.8,1.08,1.27,1.57c0.47,0.47,0.99,0.9,1.55,1.28
			c0.55,0.37,1.14,0.69,1.77,0.95c0.62,0.26,1.26,0.46,1.91,0.58c0.65,0.14,1.33,0.2,1.99,0.2c2.69,0,5.34-1.1,7.23-3.02
			c0.47-0.48,0.91-1,1.28-1.57c0.37-0.56,0.69-1.15,0.95-1.77c0.25-0.63,0.45-1.28,0.58-1.93c0.14-0.67,0.19-1.34,0.19-2.02
			c0-0.66-0.06-1.35-0.19-2C441.35,564.59,441.15,563.93,440.9,563.32z M763.68,742.98h-21.19V587.77
			c0-16.99-13.73-30.81-30.62-30.81h-17.48V455.43c0-16.98-13.73-30.81-30.62-30.81h-31.41v-29.88c7.02-1.79,13.66-5.43,19.14-10.94
			c12.6-12.66,15.76-31.98,7.88-48.05l-28.08-57.22c-1.72-3.52-5.28-5.73-9.17-5.73c-3.89,0-7.45,2.22-9.17,5.73l-28.07,57.23
			c-7.89,16.06-4.72,35.37,7.88,48.05c5.48,5.51,12.12,9.15,19.14,10.94v29.88h-89.66v-44.24c7.01-1.78,13.66-5.42,19.14-10.94
			c12.6-12.67,15.76-31.98,7.88-48.05l-28.08-57.22c-1.73-3.52-5.28-5.74-9.17-5.74s-7.45,2.23-9.17,5.74l-28.08,57.22
			c-7.88,16.07-4.72,35.37,7.88,48.05c5.48,5.51,12.13,9.16,19.14,10.94v44.24H412.1v-29.85c7.18-1.82,13.77-5.57,19.14-10.96
			c12.6-12.67,15.76-31.99,7.88-48.05l-28.07-57.23c-1.73-3.52-5.29-5.73-9.17-5.73c-3.9,0-7.45,2.22-9.17,5.73l-28.08,57.23
			c-7.89,16.06-4.72,35.37,7.88,48.05c5.37,5.4,11.96,9.14,19.14,10.96v29.86h-31.41c-16.89,0-30.63,13.82-30.63,30.81v101.52
			h-17.47c-16.89,0-30.63,13.82-30.63,30.81v155.21h-21.19c-5.66,0-10.23,4.61-10.23,10.29c0,5.68,4.57,10.29,10.23,10.29h503.37
			c5.65,0,10.23-4.61,10.23-10.29C773.92,747.59,769.33,742.98,763.68,742.98z M607.23,369.25c-6.4-6.43-8-16.23-4-24.38l18.9-38.53
			l18.91,38.53c4,8.15,2.39,17.95-4,24.38c-1.41,1.42-3,2.59-4.68,3.53c-6.34,3.54-14.11,3.54-20.46,0
			C610.23,371.84,608.64,370.68,607.23,369.25z M497.09,354.89c-6.39-6.43-8-16.23-3.99-24.39l18.9-38.53l18.9,38.53
			c4.01,8.15,2.4,17.95-3.99,24.38c-1.42,1.42-3.01,2.59-4.68,3.52c-6.34,3.54-14.12,3.54-20.47,0
			C500.09,357.48,498.51,356.31,497.09,354.89z M386.96,369.25c-6.4-6.43-8-16.23-4-24.38l18.91-38.53l18.9,38.53
			c4,8.15,2.4,17.95-4,24.38c-1.41,1.42-3,2.59-4.67,3.53c-6.34,3.54-14.12,3.54-20.47,0C389.96,371.84,388.38,370.68,386.96,369.25
			z M350.06,455.43c0-5.63,4.56-10.22,10.16-10.22h303.54c5.61,0,10.16,4.59,10.16,10.22v32.32c-4.51,1.42-9.37,2.08-15.09,2.08
			c-15.26,0-22.23-4.68-31.04-10.59c-9.82-6.57-20.94-14.03-42.39-14.03c-21.46,0-32.58,7.45-42.39,14.03
			c-8.82,5.91-15.78,10.59-31.04,10.59s-22.22-4.68-31.04-10.59c-9.81-6.57-20.93-14.03-42.38-14.03
			c-21.46,0-32.58,7.45-42.39,14.03c-8.81,5.91-15.77,10.59-31.03,10.59c-5.73,0-10.59-0.66-15.09-2.08V455.43z M722.03,742.98
			H301.97v-98.92c8.7,1.61,14.24,5.32,20.8,9.72c9.81,6.58,20.93,14.04,42.39,14.04c21.45,0,32.57-7.45,42.38-14.04
			c8.82-5.91,15.78-10.58,31.04-10.58s22.22,4.67,31.03,10.58c9.82,6.58,20.93,14.04,42.39,14.04s32.57-7.45,42.39-14.04
			c8.81-5.91,15.77-10.58,31.03-10.58c15.26,0,22.23,4.67,31.05,10.58c9.81,6.58,20.93,14.04,42.39,14.04
			c21.45,0,32.57-7.45,42.39-14.04c6.56-4.4,12.1-8.11,20.8-9.72V742.98z M722.03,623.24c-15.03,1.92-24.04,7.97-32.16,13.42
			c-8.82,5.9-15.78,10.58-31.04,10.58c-15.26,0-22.23-4.68-31.05-10.58c-9.81-6.58-20.93-14.04-42.39-14.04
			c-21.45,0-32.57,7.46-42.38,14.04c-8.82,5.9-15.78,10.58-31.04,10.58s-22.22-4.68-31.04-10.58c-9.81-6.58-20.93-14.04-42.39-14.04
			c-21.45,0-32.57,7.46-42.38,14.04c-8.82,5.9-15.78,10.58-31.03,10.58c-15.26,0-22.23-4.68-31.04-10.58
			c-8.12-5.45-17.14-11.49-32.16-13.42v-35.47c0-5.64,4.56-10.22,10.16-10.22h78.52c5.65,0,10.23-4.61,10.23-10.29
			c0-5.69-4.58-10.29-10.23-10.29h-40.58v-48c4.71,0.97,9.68,1.45,15.09,1.45c21.45,0,32.57-7.45,42.38-14.04
			c8.82-5.91,15.78-10.58,31.04-10.58s22.22,4.67,31.03,10.58c9.82,6.58,20.93,14.04,42.39,14.04c21.45,0,32.57-7.45,42.39-14.04
			c8.81-5.91,15.77-10.58,31.03-10.58c15.26,0,22.23,4.67,31.05,10.58c9.81,6.58,20.93,14.04,42.39,14.04
			c5.4,0,10.39-0.48,15.09-1.46v48H472.23c-5.65,0-10.23,4.6-10.23,10.29c0,5.68,4.58,10.29,10.23,10.29h239.64
			c5.61,0,10.16,4.58,10.16,10.22V623.24z M349.28,715.49c-0.26-0.62-0.58-1.22-0.94-1.78c-0.38-0.56-0.8-1.08-1.28-1.57
			c-0.47-0.47-1-0.9-1.56-1.28c-0.55-0.37-1.14-0.69-1.76-0.95c-0.61-0.25-1.25-0.45-1.91-0.58c-3.32-0.67-6.85,0.42-9.23,2.81
			c-0.47,0.48-0.91,1.01-1.27,1.57c-0.37,0.56-0.69,1.16-0.94,1.78c-0.25,0.62-0.45,1.26-0.58,1.92c-0.14,0.67-0.19,1.34-0.19,2.02
			c0,0.67,0.06,1.34,0.19,2.01c0.14,0.66,0.33,1.3,0.58,1.92c0.25,0.62,0.57,1.22,0.94,1.79c0.36,0.55,0.8,1.08,1.27,1.56
			c1.9,1.91,4.54,3.02,7.24,3.02c0.66,0,1.33-0.07,1.99-0.2s1.3-0.33,1.91-0.58c0.62-0.26,1.21-0.58,1.76-0.95
			c0.56-0.38,1.08-0.8,1.56-1.28c0.47-0.48,0.9-1.01,1.28-1.56c0.36-0.57,0.68-1.17,0.94-1.79c0.25-0.62,0.45-1.26,0.58-1.92
			c0.13-0.67,0.2-1.34,0.2-2.01c0-0.68-0.08-1.35-0.2-2.02C349.73,716.75,349.54,716.1,349.28,715.49z M459.24,684.71
			c-0.25-0.62-0.57-1.22-0.94-1.79c-0.37-0.55-0.8-1.08-1.28-1.56c-0.47-0.47-0.99-0.91-1.55-1.28c-0.56-0.37-1.15-0.69-1.76-0.95
			c-0.63-0.25-1.27-0.45-1.91-0.58c-1.32-0.26-2.68-0.26-4,0c-0.65,0.14-1.3,0.33-1.91,0.58c-0.63,0.26-1.22,0.58-1.77,0.95
			c-0.56,0.37-1.08,0.8-1.56,1.28c-0.47,0.47-0.9,1.01-1.26,1.56c-0.37,0.57-0.69,1.17-0.94,1.79c-0.26,0.62-0.46,1.26-0.58,1.92
			c-0.14,0.67-0.2,1.34-0.2,2.01c0,0.68,0.07,1.35,0.2,2.02c0.13,0.66,0.32,1.3,0.58,1.92c0.25,0.62,0.57,1.22,0.94,1.78
			c0.36,0.56,0.8,1.09,1.26,1.57c0.47,0.47,1,0.9,1.56,1.28c0.55,0.36,1.14,0.69,1.77,0.95c0.61,0.25,1.26,0.45,1.91,0.58
			c0.65,0.13,1.33,0.2,1.99,0.2c0.67,0,1.35-0.08,2.01-0.2c0.64-0.14,1.29-0.33,1.91-0.58c0.61-0.26,1.2-0.58,1.76-0.95
			c0.56-0.38,1.08-0.8,1.55-1.28c0.47-0.47,0.91-1.01,1.28-1.57c0.37-0.56,0.69-1.16,0.94-1.78c0.26-0.62,0.46-1.26,0.58-1.92
			c0.14-0.67,0.19-1.34,0.19-2.02c0-0.67-0.06-1.34-0.19-2.01C459.7,685.97,459.51,685.33,459.24,684.71z M577.53,715.49
			c-0.25-0.62-0.58-1.22-0.94-1.78c-0.37-0.56-0.8-1.08-1.27-1.57c-0.47-0.47-0.99-0.9-1.55-1.28c-0.56-0.37-1.15-0.69-1.77-0.95
			c-0.62-0.25-1.26-0.45-1.91-0.58c-1.32-0.26-2.69-0.26-4.01,0c-0.64,0.14-1.29,0.33-1.91,0.58c-0.62,0.26-1.21,0.58-1.76,0.95
			c-0.57,0.38-1.08,0.8-1.56,1.28c-0.47,0.48-0.9,1.01-1.28,1.57c-0.36,0.56-0.69,1.16-0.94,1.78c-0.25,0.62-0.45,1.26-0.58,1.92
			c-0.13,0.67-0.19,1.34-0.19,2.02c0,0.67,0.07,1.34,0.19,2.01c0.14,0.66,0.33,1.3,0.58,1.92c0.25,0.62,0.58,1.22,0.94,1.79
			c0.38,0.55,0.81,1.08,1.28,1.56c0.47,0.47,0.99,0.91,1.56,1.28c0.55,0.37,1.14,0.69,1.76,0.95c0.62,0.25,1.26,0.45,1.91,0.58
			c0.67,0.14,1.35,0.2,2.01,0.2c2.69,0,5.33-1.1,7.23-3.02c0.47-0.47,0.9-1.01,1.27-1.56c0.36-0.57,0.69-1.17,0.94-1.79
			c0.25-0.62,0.45-1.26,0.58-1.92c0.14-0.67,0.2-1.34,0.2-2.01c0-0.68-0.07-1.35-0.2-2.02C577.98,716.75,577.78,716.1,577.53,715.49
			z M693.61,690.86c-0.25-0.61-0.58-1.22-0.94-1.78c-0.37-0.55-0.8-1.09-1.27-1.56c-1.91-1.91-4.54-3.02-7.23-3.02
			c-2.7,0-5.33,1.11-7.24,3.02c-0.47,0.47-0.89,1.01-1.27,1.56c-0.36,0.56-0.69,1.17-0.94,1.78c-0.25,0.62-0.45,1.27-0.58,1.93
			c-0.13,0.66-0.19,1.34-0.19,2.01c0,0.68,0.07,1.35,0.19,2.02c0.14,0.66,0.33,1.3,0.58,1.92c0.25,0.62,0.58,1.21,0.94,1.77
			c0.38,0.57,0.8,1.09,1.27,1.58c0.48,0.47,1,0.89,1.56,1.27c0.56,0.37,1.15,0.69,1.77,0.95c0.61,0.25,1.25,0.46,1.91,0.58
			c0.67,0.14,1.33,0.2,2.01,0.2c2.69,0,5.33-1.09,7.23-3.01c0.47-0.48,0.9-1.01,1.27-1.58c0.36-0.56,0.69-1.15,0.94-1.77
			c0.25-0.63,0.45-1.26,0.58-1.92c0.13-0.67,0.2-1.34,0.2-2.02c0-0.67-0.08-1.35-0.2-2.01
			C694.06,692.13,693.87,691.48,693.61,690.86z M572.91,530.49c0.25,0.62,0.58,1.23,0.94,1.79c0.37,0.56,0.8,1.09,1.27,1.56
			c0.47,0.47,0.99,0.91,1.56,1.28c0.55,0.37,1.14,0.69,1.77,0.95c0.61,0.25,1.25,0.45,1.91,0.58c0.65,0.14,1.33,0.2,1.99,0.2
			c0.67,0,1.34-0.07,2.01-0.2c0.64-0.14,1.29-0.33,1.91-0.58c0.61-0.26,1.2-0.58,1.76-0.95c0.56-0.37,1.08-0.8,1.55-1.28
			c0.47-0.47,0.9-1,1.28-1.56c0.37-0.56,0.69-1.17,0.94-1.79c0.25-0.61,0.45-1.26,0.58-1.92c0.14-0.65,0.19-1.34,0.19-2.01
			s-0.06-1.35-0.19-2.02c-0.14-0.64-0.33-1.3-0.58-1.92c-0.25-0.62-0.57-1.21-0.94-1.77c-0.38-0.57-0.8-1.09-1.28-1.57
			c-0.47-0.48-0.99-0.91-1.55-1.29c-0.56-0.36-1.15-0.69-1.76-0.94c-0.63-0.26-1.27-0.46-1.91-0.59c-1.32-0.26-2.69-0.26-4,0
			c-0.66,0.14-1.3,0.33-1.91,0.59c-0.63,0.25-1.22,0.58-1.77,0.94c-0.57,0.38-1.08,0.8-1.56,1.29c-0.47,0.47-0.9,1-1.27,1.57
			c-0.36,0.56-0.69,1.15-0.94,1.77c-0.25,0.63-0.45,1.28-0.58,1.92c-0.13,0.67-0.2,1.35-0.2,2.02s0.08,1.36,0.2,2.01
			C572.46,529.23,572.66,529.88,572.91,530.49z M458.23,508.6c-0.26-0.62-0.58-1.21-0.94-1.78c-0.37-0.56-0.8-1.09-1.27-1.57
			c-0.47-0.47-1.01-0.91-1.56-1.27c-0.56-0.37-1.15-0.69-1.77-0.95c-0.61-0.26-1.25-0.45-1.91-0.58c-1.32-0.27-2.68-0.27-4,0
			c-0.65,0.14-1.3,0.32-1.91,0.58c-0.61,0.25-1.2,0.58-1.77,0.95c-0.55,0.36-1.08,0.8-1.55,1.27s-0.89,1.01-1.27,1.57
			c-0.37,0.57-0.69,1.16-0.94,1.78c-0.25,0.62-0.45,1.27-0.58,1.93c-0.14,0.66-0.19,1.33-0.19,2.01s0.06,1.34,0.19,2.02
			c0.14,0.65,0.33,1.3,0.58,1.92c0.25,0.62,0.57,1.21,0.94,1.78c0.38,0.55,0.8,1.08,1.27,1.57c0.47,0.47,1,0.89,1.55,1.27
			c0.57,0.37,1.16,0.69,1.77,0.95c0.62,0.26,1.26,0.45,1.91,0.58c0.67,0.14,1.33,0.21,2.01,0.21c0.66,0,1.34-0.08,1.99-0.21
			c0.66-0.14,1.3-0.32,1.91-0.58c0.62-0.25,1.21-0.58,1.77-0.95c0.55-0.38,1.08-0.8,1.56-1.27c0.47-0.49,0.89-1.02,1.27-1.57
			c0.36-0.57,0.68-1.16,0.94-1.78c0.25-0.62,0.45-1.27,0.58-1.92c0.14-0.68,0.19-1.34,0.19-2.02s-0.06-1.35-0.19-2.01
			C458.68,509.87,458.48,509.22,458.23,508.6z"/>
	</g>
</g>
</svg>
