<svg xmlns="http://www.w3.org/2000/svg" width="1024" height="1024" viewBox="0 0 1024 1024">
  <metadata><?xpacket begin="﻿" id="W5M0MpCehiHzreSzNTczkc9d"?>
<x:xmpmeta xmlns:x="adobe:ns:meta/" x:xmptk="Adobe XMP Core 5.6-c142 79.160924, 2017/07/13-01:06:39        ">
   <rdf:RDF xmlns:rdf="http://www.w3.org/1999/02/22-rdf-syntax-ns#">
      <rdf:Description rdf:about=""/>
   </rdf:RDF>
</x:xmpmeta>
                                                                                                    
                                                                                                    
                                                                                                    
                                                                                                    
                                                                                                    
                                                                                                    
                                                                                                    
                                                                                                    
                                                                                                    
                                                                                                    
                                                                                                    
                                                                                                    
                                                                                                    
                                                                                                    
                                                                                                    
                                                                                                    
                                                                                                    
                                                                                                    
                                                                                                    
                                                                                                    
                           
<?xpacket end="w"?></metadata>
<defs>
    <style>
      .cls-1 {
        fill: #fff;
        fill-opacity: 0;
        stroke: #000;
        stroke-linejoin: round;
        stroke-width: 2px;
      }

      .cls-2 {
        fill-rule: evenodd;
      }
    </style>
  </defs>
  <circle id="Ellipse_2_copy" data-name="Ellipse 2 copy" class="cls-1" cx="512" cy="512" r="507"/>
  <path id="Forma_1" data-name="Forma 1" class="cls-2" d="M794.693,518.08H690.847V482.13c52.247-8.314,92.308-53.634,92.308-108.13V350.949a17.308,17.308,0,0,0-34.615,0V374a75.056,75.056,0,0,1-57.693,72.886V431.632A28.863,28.863,0,0,0,662,402.817H644.692V339.424a75.06,75.06,0,0,0-60.534-73.51l12.888-28.968A17.3,17.3,0,0,0,565.415,222.9l-18.509,41.6H477.093l-18.508-41.6a17.3,17.3,0,0,0-31.631,14.041l12.889,28.968a75.061,75.061,0,0,0-60.534,73.51v63.394H362a28.863,28.863,0,0,0-28.846,28.815v15.254A75.053,75.053,0,0,1,275.463,374V350.946a17.308,17.308,0,0,0-34.615,0V374c0,54.5,40.061,99.816,92.308,108.13v35.95H229.307a17.29,17.29,0,1,0,0,34.579H333.154V588.6c-52.248,8.314-92.308,53.634-92.308,108.13v23.054a17.307,17.307,0,0,0,34.614,0V696.733a75.057,75.057,0,0,1,57.693-72.886v9.493C333.154,731.852,413.384,812,512,812s178.847-80.147,178.847-178.657v-9.49a75.051,75.051,0,0,1,57.691,72.884V719.79a17.308,17.308,0,0,0,34.616,0V696.736c0-54.5-40.061-99.813-92.308-108.13V552.659H794.692A17.29,17.29,0,1,0,794.693,518.08ZM413.923,339.421a40.408,40.408,0,0,1,40.384-40.341H569.692a40.408,40.408,0,0,1,40.385,40.341v63.394H413.923V339.421ZM656.231,633.342c0,79.444-64.7,144.078-144.231,144.078S367.769,712.786,367.769,633.342V437.4H494.693V604.527a17.308,17.308,0,0,0,34.615,0V437.4H656.231V633.342Z"/>
</svg>
