<?xml version="1.0" encoding="utf-8"?>
<!-- Generator: Adobe Illustrator 23.0.2, SVG Export Plug-In . SVG Version: 6.00 Build 0)  -->
<svg version="1.1" id="Layer_1" xmlns="http://www.w3.org/2000/svg" xmlns:xlink="http://www.w3.org/1999/xlink" x="0px" y="0px"
	 viewBox="0 0 1024 1024" style="enable-background:new 0 0 1024 1024;" xml:space="preserve">

<g>
	<path class="st0" d="M330.99,1015.46c-2.02-0.95-3.98-2.03-6.06-2.83c-28.18-10.94-39.1-42.52-22.57-67.87
		c9.82-15.05,21.23-29.07,32.03-43.48c95.27-127.05,190.51-254.13,286.01-381.01c4.81-6.39,4.81-10.14,0-16.54
		C516.07,365.07,412,226.2,307.86,87.38c-6.34-8.46-11.78-17.19-12.83-28.15c-1.96-20.54,9.04-39.22,28.1-47.09
		c2.66-1.1,5.25-2.39,7.87-3.6c5.9,0,11.8,0,17.7,0c15.84,4.66,26.35,15.55,36.01,28.48C494.95,184.46,605.5,331.68,715.96,478.95
		c17.93,23.9,17.93,42.2,0,66.09C605.5,692.32,494.96,839.54,384.71,986.98c-9.67,12.93-20.2,23.8-36.02,28.48
		C342.79,1015.46,336.89,1015.46,330.99,1015.46z"/>
</g>
</svg>
