<?xml version="1.0" encoding="utf-8"?>
<!-- Generator: Adobe Illustrator 23.0.2, SVG Export Plug-In . SVG Version: 6.00 Build 0)  -->
<svg version="1.1" id="Layer_1" xmlns="http://www.w3.org/2000/svg" xmlns:xlink="http://www.w3.org/1999/xlink" x="0px" y="0px"
	 viewBox="0 0 1024 1024" style="enable-background:new 0 0 1024 1024;" xml:space="preserve">
<g>
	<g>
		<path d="M917.92,603.77V187.26c0-44.77-36.4-81.19-81.19-81.19H714.97v-60.9c0-11.2-9.08-20.29-20.3-20.29
			c-11.21,0-20.29,9.09-20.29,20.3v60.88H309.03V45.18c0-11.21-9.08-20.3-20.29-20.3c-11.23,0-20.3,9.09-20.3,20.3v60.88H106.08
			c-44.78,0-81.19,36.41-81.19,81.19v649.49c0,44.77,36.4,81.19,81.19,81.19h497.7c40.98,49.54,102.91,81.19,172.08,81.19
			c123.1,0,223.26-100.15,223.26-223.26C999.11,706.67,967.48,644.76,917.92,603.77z M65.48,187.26c0-22.38,18.21-40.59,40.59-40.59
			h162.36v40.59c-22.39,0-40.58,18.21-40.58,40.59c0,22.37,18.19,40.59,40.58,40.59c22.4,0,40.59-18.22,40.59-40.59v-81.19h365.34
			v40.59c-22.4,0-40.59,18.21-40.59,40.59c0,22.37,18.19,40.59,40.59,40.59c22.39,0,40.59-18.22,40.59-40.59v-81.19h121.77
			c22.38,0,40.59,18.21,40.59,40.59v121.78H65.48V187.26z M106.08,877.34c-22.38,0-40.59-18.21-40.59-40.59V349.63h811.85v227.61
			c-30.48-15.65-64.92-24.64-101.48-24.64c-123.1,0-223.26,100.14-223.26,223.26c0,36.55,9.01,70.98,24.64,101.48H106.08z
			 M775.85,958.52c-100.72,0-182.67-81.94-182.67-182.67c0-100.74,81.94-182.68,182.67-182.68s182.67,81.94,182.67,182.68
			C958.52,876.58,876.58,958.52,775.85,958.52z M862.98,700.61L735.26,828.34l-46.54-46.54c-7.93-7.93-20.78-7.93-28.7,0
			c-7.93,7.93-7.93,20.77,0,28.7l60.88,60.9c3.96,3.96,9.16,5.94,14.35,5.94c5.2,0,10.39-1.98,14.36-5.94l142.07-142.08
			c7.93-7.93,7.93-20.77,0-28.7S870.91,692.69,862.98,700.61z"/>
	</g>
</g>
</svg>
