<svg xmlns="http://www.w3.org/2000/svg" width="1024" height="1024" viewBox="0 0 1024 1024">
  <metadata><?xpacket begin="﻿" id="W5M0MpCehiHzreSzNTczkc9d"?>
<x:xmpmeta xmlns:x="adobe:ns:meta/" x:xmptk="Adobe XMP Core 5.6-c142 79.160924, 2017/07/13-01:06:39        ">
   <rdf:RDF xmlns:rdf="http://www.w3.org/1999/02/22-rdf-syntax-ns#">
      <rdf:Description rdf:about=""/>
   </rdf:RDF>
</x:xmpmeta>
                                                                                                    
                                                                                                    
                                                                                                    
                                                                                                    
                                                                                                    
                                                                                                    
                                                                                                    
                                                                                                    
                                                                                                    
                                                                                                    
                                                                                                    
                                                                                                    
                                                                                                    
                                                                                                    
                                                                                                    
                                                                                                    
                                                                                                    
                                                                                                    
                                                                                                    
                                                                                                    
                           
<?xpacket end="w"?></metadata>
<defs>
    <style>
      .cls-1 {
        fill-rule: evenodd;
      }
    </style>
  </defs>
  <path class="cls-1" d="M938.166,607.885V172.657a84.917,84.917,0,0,0-84.835-84.831H726.081V24.2a21.208,21.208,0,1,0-42.416,0V87.829H301.915V24.2a21.208,21.208,0,1,0-42.416,0V87.829H89.834A84.914,84.914,0,0,0,5,172.657V851.325A84.92,84.92,0,0,0,89.834,936.16H609.89A232.928,232.928,0,0,0,789.709,1021C918.346,1021,1023,916.339,1023,787.705A232.912,232.912,0,0,0,938.166,607.885ZM47.416,172.657a42.473,42.473,0,0,1,42.418-42.416H259.5v42.416a42.418,42.418,0,1,0,42.416,42.416V130.241h381.75v42.416a42.418,42.418,0,1,0,42.416,42.416V130.241h127.25a42.475,42.475,0,0,1,42.419,42.416V299.911H47.416V172.657ZM89.834,893.745a42.474,42.474,0,0,1-42.417-42.416v-509H895.75V580.165a231.589,231.589,0,0,0-106.041-25.753c-128.639,0-233.292,104.653-233.292,233.293a231.639,231.639,0,0,0,25.754,106.04H89.834Zm699.875,84.831c-105.256,0-190.876-85.621-190.876-190.871s85.621-190.877,190.876-190.877,190.874,85.618,190.874,190.877S894.962,978.576,789.709,978.576Zm91.045-269.494L747.29,842.544l-48.629-48.63a21.207,21.207,0,1,0-29.99,29.992L732.3,887.529a21.2,21.2,0,0,0,29.991,0l148.46-148.458A21.207,21.207,0,0,0,880.754,709.082Z"/>
</svg>
