<?xml version="1.0" encoding="utf-8"?>
<!-- Generator: Adobe Illustrator 23.0.2, SVG Export Plug-In . SVG Version: 6.00 Build 0)  -->
<svg version="1.1" id="Layer_1" xmlns="http://www.w3.org/2000/svg" xmlns:xlink="http://www.w3.org/1999/xlink" x="0px" y="0px"
	 viewBox="0 0 1024 1024" style="enable-background:new 0 0 1024 1024;" xml:space="preserve">
<g>
	<g>
		<path d="M512,20.8C241.16,20.8,20.8,241.16,20.8,512c0,270.84,220.36,491.2,491.2,491.2c270.86,0,491.2-220.36,491.2-491.2
			C1003.2,241.16,782.86,20.8,512,20.8z M512,922.27c-226.23,0-410.26-184.04-410.26-410.26c0-226.22,184.04-410.26,410.26-410.26
			S922.26,285.78,922.26,512C922.26,738.23,738.22,922.27,512,922.27z"/>
		<path d="M552.47,495.92V217.75c0-22.35-18.12-40.47-40.47-40.47c-22.35,0-40.46,18.12-40.46,40.47V512
			c0,12.57,5.84,23.63,14.81,31.06c0.38,0.46,0.64,0.97,1.03,1.42l151.75,172.31c8,9.06,19.17,13.71,30.39,13.71
			c9.48,0,19.03-3.31,26.72-10.1c16.78-14.78,18.4-40.35,3.63-57.12L552.47,495.92z"/>
	</g>
</g>
</svg>
