<?xml version="1.0" encoding="utf-8"?>
<!-- Generator: Adobe Illustrator 23.0.2, SVG Export Plug-In . SVG Version: 6.00 Build 0)  -->
<svg version="1.1" id="Layer_1" xmlns="http://www.w3.org/2000/svg" xmlns:xlink="http://www.w3.org/1999/xlink" x="0px" y="0px"
	 viewBox="0 0 1024 1024" style="enable-background:new 0 0 1024 1024;" xml:space="preserve">

<g>
	<path class="st0" d="M512,40.93c63.61,0,125.29,12.45,183.35,37.01c56.09,23.72,106.47,57.69,149.74,100.96
		c43.27,43.27,77.24,93.65,100.96,149.74c24.56,58.06,37.01,119.75,37.01,183.35s-12.45,125.29-37.01,183.35
		c-23.72,56.09-57.69,106.47-100.96,149.74c-43.27,43.27-93.65,77.24-149.74,100.96c-58.06,24.56-119.75,37.01-183.35,37.01
		s-125.29-12.45-183.35-37.01c-56.09-23.72-106.47-57.69-149.74-100.96c-43.27-43.27-77.24-93.65-100.96-149.74
		C53.38,637.29,40.93,575.61,40.93,512s12.45-125.29,37.01-183.35c23.72-56.09,57.69-106.47,100.96-149.74
		s93.65-77.24,149.74-100.96C386.71,53.38,448.39,40.93,512,40.93 M512,15.93C238.03,15.93,15.93,238.03,15.93,512
		s222.1,496.07,496.07,496.07s496.07-222.1,496.07-496.07S785.97,15.93,512,15.93L512,15.93z"/>
</g>
<path d="M379.73,585.28c44.04,52.45,97.05,93.74,157.56,122.96c23.04,10.88,53.85,23.78,88.17,25.99c2.13,0.09,4.17,0.18,6.29,0.18
	c23.04,0,41.55-7.92,56.63-24.24c0.09-0.09,0.28-0.27,0.36-0.46c5.37-6.45,11.47-12.26,17.86-18.43c4.35-4.14,8.79-8.48,13.04-12.9
	c19.71-20.46,19.71-46.46-0.18-66.27l-55.61-55.4c-9.43-9.77-20.73-14.93-32.56-14.93c-11.85,0-23.22,5.16-32.94,14.84l-33.12,32.99
	c-3.05-1.75-6.2-3.32-9.16-4.79c-3.7-1.84-7.12-3.59-10.18-5.53c-30.16-19.08-57.55-43.96-83.73-75.95
	c-13.23-16.69-22.11-30.7-28.31-44.98c8.7-7.84,16.84-16.04,24.7-24.06c2.78-2.86,5.65-5.71,8.52-8.57
	c9.99-9.95,15.36-21.47,15.36-33.18s-5.27-23.22-15.36-33.18L439.5,331.9c-3.24-3.22-6.29-6.36-9.43-9.59
	c-6.11-6.27-12.49-12.72-18.79-18.52c-9.53-9.31-20.72-14.2-32.56-14.2c-11.75,0-23.04,4.89-32.94,14.29l-34.6,34.47
	c-12.58,12.54-19.71,27.74-21.19,45.35c-1.76,22.03,2.32,45.44,12.86,73.74C319.04,501.22,343.46,541.86,379.73,585.28z
	 M312.56,385.63c1.11-12.26,5.83-22.49,14.72-31.34l34.42-34.29c5.37-5.16,11.29-7.84,17.02-7.84c5.65,0,11.38,2.67,16.65,8.02
	c6.2,5.71,12.03,11.71,18.32,18.06c3.14,3.23,6.38,6.46,9.62,9.77l27.57,27.47c5.74,5.71,8.7,11.52,8.7,17.23
	c0,5.71-2.96,11.52-8.7,17.24c-2.87,2.86-5.73,5.81-8.6,8.66c-8.6,8.67-16.65,16.87-25.53,24.71c-0.19,0.18-0.28,0.27-0.47,0.46
	c-7.68,7.65-6.48,14.93-4.63,20.46c0.09,0.28,0.19,0.46,0.28,0.74c7.12,17.05,17.02,33.27,32.48,52.63
	c27.76,34.11,56.99,60.55,89.19,80.93c3.98,2.58,8.23,4.61,12.22,6.63c3.7,1.84,7.12,3.59,10.18,5.53c0.37,0.18,0.64,0.37,1.01,0.55
	c3.05,1.57,6.02,2.3,8.98,2.3c7.4,0,12.22-4.7,13.79-6.27l34.6-34.47c5.37-5.34,11.2-8.2,16.94-8.2c7.03,0,12.76,4.33,16.38,8.2
	l55.79,55.49c11.1,11.06,11.01,23.04-0.28,34.75c-3.89,4.15-7.96,8.11-12.3,12.26c-6.48,6.27-13.24,12.72-19.34,20
	c-10.64,11.43-23.31,16.77-39.69,16.77c-1.57,0-3.24-0.09-4.81-0.18c-30.34-1.94-58.56-13.74-79.75-23.78
	c-57.55-27.75-108.07-67.11-149.98-117.06c-34.52-41.39-57.73-79.91-73.1-121.21C314.69,424.53,311.08,404.16,312.56,385.63z"/>
</svg>
