<svg xmlns="http://www.w3.org/2000/svg" width="1024" height="1024" viewBox="0 0 1024 1024">
  <metadata><?xpacket begin="﻿" id="W5M0MpCehiHzreSzNTczkc9d"?>
<x:xmpmeta xmlns:x="adobe:ns:meta/" x:xmptk="Adobe XMP Core 5.6-c142 79.160924, 2017/07/13-01:06:39        ">
   <rdf:RDF xmlns:rdf="http://www.w3.org/1999/02/22-rdf-syntax-ns#">
      <rdf:Description rdf:about=""/>
   </rdf:RDF>
</x:xmpmeta>
                                                                                                    
                                                                                                    
                                                                                                    
                                                                                                    
                                                                                                    
                                                                                                    
                                                                                                    
                                                                                                    
                                                                                                    
                                                                                                    
                                                                                                    
                                                                                                    
                                                                                                    
                                                                                                    
                                                                                                    
                                                                                                    
                                                                                                    
                                                                                                    
                                                                                                    
                                                                                                    
                           
<?xpacket end="w"?></metadata>
<defs>
    <style>
      .cls-1 {
        fill-rule: evenodd;
      }
    </style>
  </defs>
  <path id="_51" data-name="51" class="cls-1" d="M735.991,173.778H288V141.52H735.991v32.258ZM1023.98,948H0V141.52H192v32.258H32V915.74H991.985V173.778h-160V141.52H1023.98V948ZM304,238.3H176V77H304V238.3Zm-96-32.258h64v-96.78H208v96.78ZM847.988,238.3h-128V77h128V238.3Zm-96-32.258h64v-96.78h-64v96.78ZM336,560.89H144V367.335H336V560.89ZM176,528.629H304V399.593H176V528.629ZM336,851.222H144V657.667H336V851.222ZM176,818.964H304V689.926H176V818.964ZM879.987,560.89h-192V367.335h192V560.89Zm-160-32.261h128V399.593h-128V528.629Zm160,322.593h-192V657.667h192V851.222Zm-160-32.258h128V689.926h-128V818.964Zm-112-258.074H416V367.335H607.992V560.89ZM448,528.629h128V399.593H448V528.629Zm160,322.593H416V657.667H607.992V851.222ZM448,818.964h128V689.926H448V818.964Zm559.985-516.15H16V270.555H1007.98v32.259Z"/>
</svg>
