<svg xmlns="http://www.w3.org/2000/svg" width="1024" height="1024" viewBox="0 0 1024 1024">
  <metadata><?xpacket begin="﻿" id="W5M0MpCehiHzreSzNTczkc9d"?>
<x:xmpmeta xmlns:x="adobe:ns:meta/" x:xmptk="Adobe XMP Core 5.6-c142 79.160924, 2017/07/13-01:06:39        ">
   <rdf:RDF xmlns:rdf="http://www.w3.org/1999/02/22-rdf-syntax-ns#">
      <rdf:Description rdf:about=""/>
   </rdf:RDF>
</x:xmpmeta>
                                                                                                    
                                                                                                    
                                                                                                    
                                                                                                    
                                                                                                    
                                                                                                    
                                                                                                    
                                                                                                    
                                                                                                    
                                                                                                    
                                                                                                    
                                                                                                    
                                                                                                    
                                                                                                    
                                                                                                    
                                                                                                    
                                                                                                    
                                                                                                    
                                                                                                    
                                                                                                    
                           
<?xpacket end="w"?></metadata>
<defs>
    <style>
      .cls-1 {
        fill-rule: evenodd;
      }
    </style>
  </defs>
  <path id="_86_copy" data-name="86 copy" class="cls-1" d="M636.041,592.764l-79.788-79.79,22.564-22.565L658.605,570.2Zm266.6,362.363L576.886,629.356,695.2,511.04,1020.95,836.81ZM622.016,629.356L902.644,909.993l73.18-73.183L695.2,556.173ZM181.393,240.174L68.724,52.385,118.247,2.86,306.029,115.533ZM108.9,57.342l78.821,131.372,66.854-66.854L123.2,43.036Zm319.7,327.966L221.146,177.854l22.563-22.567L451.158,362.743ZM50.287,934.181L2.93,889.609,34.721,780.6l2.836-2.866L567.536,239.816V182.53c0-79.622,37.369-174.543,215.427-174.543h24.325L746,149.164l48.481,49.993,140.079-65.67v25.105c0,178.063-95.448,215.435-175.533,215.435h-57.3L159.716,907.111Zm-11.235-54.42,20.462,19.262,84.056-20.807,545.1-536.107h70.359c88.406,0,136.388-53.141,142.853-158.054L787.4,237.712l-79.178-81.66L758.356,40.574C651.483,46.558,599.45,93.17,599.45,182.53v70.377L63.112,797.274Z"/>
</svg>
