<?xml version="1.0" encoding="utf-8"?>
<!-- Generator: Adobe Illustrator 23.0.2, SVG Export Plug-In . SVG Version: 6.00 Build 0)  -->
<svg version="1.1" id="Layer_1" xmlns="http://www.w3.org/2000/svg" xmlns:xlink="http://www.w3.org/1999/xlink" x="0px" y="0px"
	 viewBox="0 0 1024 1024" style="enable-background:new 0 0 1024 1024;" xml:space="preserve">

<g>
	<path class="st0" d="M512,40.93c63.61,0,125.29,12.45,183.35,37.01c56.09,23.72,106.47,57.69,149.74,100.96
		s77.24,93.65,100.96,149.74c24.56,58.06,37.01,119.75,37.01,183.35s-12.45,125.29-37.01,183.35
		c-23.72,56.09-57.69,106.47-100.96,149.74c-43.27,43.27-93.65,77.24-149.74,100.96C637.29,970.6,575.6,983.05,512,983.05
		s-125.29-12.45-183.35-37.01c-56.09-23.72-106.47-57.69-149.74-100.96s-77.24-93.65-100.96-149.74
		C53.38,637.29,40.93,575.61,40.93,512s12.45-125.29,37.01-183.35c23.72-56.09,57.69-106.47,100.96-149.74
		s93.65-77.24,149.74-100.96C386.71,53.38,448.39,40.93,512,40.93 M512,15.93C238.03,15.93,15.93,238.03,15.93,512
		s222.1,496.07,496.07,496.07s496.07-222.1,496.07-496.07S785.97,15.93,512,15.93L512,15.93z"/>
</g>
<g>
	<g>
		<path class="st0" d="M419.31,548.87c4.37,0,8.48,1.67,11.57,4.72c1.75,1.72,4.04,2.58,6.33,2.58s4.58-0.86,6.33-2.58
			c3.5-3.45,3.5-9.03,0-12.48c-6.48-6.38-15.08-9.89-24.23-9.89c-9.15,0-17.76,3.51-24.23,9.89c-3.5,3.44-3.5,9.03,0,12.48
			c3.5,3.44,9.17,3.44,12.66,0C410.82,550.55,414.93,548.87,419.31,548.87z M580.47,541.12c-3.5,3.44-3.5,9.03,0,12.48
			c3.5,3.44,9.16,3.44,12.66,0c6.38-6.29,16.77-6.29,23.14,0c1.75,1.72,4.04,2.58,6.33,2.58s4.58-0.86,6.33-2.58
			c3.5-3.45,3.5-9.03,0-12.48C615.57,527.95,593.83,527.95,580.47,541.12z M604.65,628.13c-51.09,50.34-134.21,50.34-185.3,0
			c-3.5-3.44-9.17-3.44-12.66,0c-3.5,3.44-3.5,9.03,0,12.48c29.03,28.61,67.17,42.91,105.31,42.91c38.14,0,76.27-14.31,105.31-42.91
			c3.5-3.44,3.5-9.03,0-12.48C613.81,624.69,608.14,624.69,604.65,628.13z M682.54,510.27V362.7c0-19.14-9.66-36.89-25.85-47.47
			c-15.21-9.94-34.08-12.2-51.16-6.27l-56.21-18.79c-43.19-14.45-88.65-15.93-131.47-4.29c-56.06,15.24-88.2,47.47-93.16,93.27
			c-4.39,5.7-7.88,12.11-10.25,19.03l-4.36,12.71c-2.34,6.83,0.24,14,6.42,17.85c6.18,3.85,13.86,3.07,19.12-1.93
			c1.79-1.71,3.76-3.16,5.82-4.37v87.83c-23.11,4.17-40.7,24.14-40.7,48.1c0,24.92,19.01,45.54,43.5,48.53
			c6.15,33.45,22.31,64.3,47.01,88.99c32.25,32.23,75.12,49.98,120.73,49.98c0.01,0,0.01,0,0.01,0c45.55,0,88.37-17.48,120.58-49.21
			c25.16-24.79,41.48-55.96,47.43-89.81c24.34-3.12,43.21-23.67,43.21-48.49C723.24,534.41,705.66,514.43,682.54,510.27z
			 M318.67,558.37c0-14.18,9.63-26.18,22.79-30v47.81c0,4.13,0.15,8.24,0.44,12.32C328.52,584.82,318.67,572.72,318.67,558.37z
			 M329.68,408.89l1.74-5.08c4.56-13.29,14.68-24.08,27.77-29.6c13.09-5.52,28-5.29,40.91,0.64c27.11,12.43,59.88,5.71,79.7-16.36
			l2.21-2.47c3.28-3.65,2.93-9.22-0.77-12.45c-3.7-3.23-9.36-2.89-12.64,0.76l-2.21,2.47c-14.61,16.26-38.76,21.22-58.73,12.05
			c-17.52-8.04-37.75-8.36-55.52-0.85c-1.61,0.68-3.18,1.44-4.73,2.23c10.41-27.33,35.59-46.58,75.22-57.35
			c39.35-10.69,81.17-9.32,120.95,3.99l53.3,17.82l0.7,45.58c-23.73,31.79-58.34,53.3-97.78,60.7
			c-40.38,7.58-81.58-0.44-116.01-22.57C366.96,397.59,345.75,398.05,329.68,408.89z M664.64,577.85
			c0,40.17-15.87,77.94-44.7,106.35c-28.82,28.4-67.15,44.04-107.92,44.05c-0.01,0-0.01,0-0.01,0c-40.77,0-79.13-15.88-107.99-44.73
			c-28.8-28.78-44.65-66.9-44.65-107.33V418.27c5.07,0.38,10.1,1.99,14.63,4.91c38.32,24.64,84.18,33.57,129.14,25.13
			c36.5-6.85,69.28-24.55,94.47-50.65v23.94c0,38.29,29.34,69.95,67.03,74.32V577.85z M664.64,478.14
			c-27.79-4.26-49.12-27.99-49.12-56.54l-0.74-96.98c10.93-2.84,22.33-1.01,32.01,5.32c11.34,7.41,17.85,19.35,17.85,32.77V478.14z
			 M682.2,588.47c0.22-3.52,0.34-7.06,0.34-10.62v-49.48c13.16,3.82,22.79,15.82,22.79,30C705.33,572.68,695.53,584.77,682.2,588.47
			z"/>
	</g>
</g>
</svg>
