<svg xmlns="http://www.w3.org/2000/svg" width="1024" height="1024" viewBox="0 0 1024 1024">
  <metadata><?xpacket begin="﻿" id="W5M0MpCehiHzreSzNTczkc9d"?>
<x:xmpmeta xmlns:x="adobe:ns:meta/" x:xmptk="Adobe XMP Core 5.6-c142 79.160924, 2017/07/13-01:06:39        ">
   <rdf:RDF xmlns:rdf="http://www.w3.org/1999/02/22-rdf-syntax-ns#">
      <rdf:Description rdf:about=""/>
   </rdf:RDF>
</x:xmpmeta>
                                                                                                    
                                                                                                    
                                                                                                    
                                                                                                    
                                                                                                    
                                                                                                    
                                                                                                    
                                                                                                    
                                                                                                    
                                                                                                    
                                                                                                    
                                                                                                    
                                                                                                    
                                                                                                    
                                                                                                    
                                                                                                    
                                                                                                    
                                                                                                    
                                                                                                    
                                                                                                    
                           
<?xpacket end="w"?></metadata>
<defs>
    <style>
      .cls-1 {
        fill: #fff;
        fill-opacity: 0;
        stroke: #000;
        stroke-linejoin: round;
        stroke-width: 2px;
      }

      .cls-2 {
        fill-rule: evenodd;
      }
    </style>
  </defs>
  <circle id="Ellipse_2_copy" data-name="Ellipse 2 copy" class="cls-1" cx="512" cy="512" r="507"/>
  <path id="Forma_1" data-name="Forma 1" class="cls-2" d="M380.359,564.336a23.268,23.268,0,0,1,16.432,6.7,12.852,12.852,0,0,0,17.981,0,12.386,12.386,0,0,0,0-17.708,49.2,49.2,0,0,0-68.824,0,12.385,12.385,0,0,0,0,17.708,12.851,12.851,0,0,0,17.979,0A23.263,23.263,0,0,1,380.359,564.336Zm228.87-11.007a12.386,12.386,0,0,0,0,17.708,12.853,12.853,0,0,0,17.979,0,23.521,23.521,0,0,1,32.866,0,12.857,12.857,0,0,0,17.981,0,12.385,12.385,0,0,0,0-17.708A49.257,49.257,0,0,0,609.229,553.329ZM643.574,676.85c-72.551,71.451-190.6,71.451-263.147,0a12.86,12.86,0,0,0-17.98,0,12.387,12.387,0,0,0,0,17.71,214.058,214.058,0,0,0,299.107,0,12.389,12.389,0,0,0,0-17.71A12.86,12.86,0,0,0,643.574,676.85Zm168.417-99.026c0-34.011-24.966-62.372-57.795-68.286V300.068a80.379,80.379,0,0,0-36.718-67.391,83,83,0,0,0-72.646-8.9L565.009,197.1c-61.336-20.506-125.9-22.61-186.709-6.087-79.609,21.632-125.249,67.377-132.294,132.4a94.582,94.582,0,0,0-14.555,27.007l-6.192,18.049a21.26,21.26,0,0,0,9.12,25.337,22,22,0,0,0,27.153-2.752,44.224,44.224,0,0,1,8.271-6.19v124.68c-32.827,5.914-57.795,34.272-57.795,68.286,0,35.376,27,64.637,61.771,68.889A242.3,242.3,0,0,0,512,844h0.024c64.684,0,125.5-24.817,171.235-69.86A235.609,235.609,0,0,0,750.62,646.663C785.194,642.233,811.991,613.061,811.991,577.824ZM703.42,253.547a54.763,54.763,0,0,1,25.348,46.521V463.923C689.306,457.883,659,424.2,659,383.663l-1.052-137.67A56.382,56.382,0,0,1,703.42,253.547ZM253.072,365.631l2.47-7.2a70.653,70.653,0,0,1,39.438-42.023,72.3,72.3,0,0,1,58.1.9c38.5,17.658,85.046,8.11,113.186-23.219l3.149-3.5a12.387,12.387,0,0,0-1.1-17.674,12.853,12.853,0,0,0-17.947,1.081l-3.15,3.507c-20.737,23.086-55.034,30.12-83.4,17.107a98.1,98.1,0,0,0-78.841-1.214c-2.3.967-4.529,2.048-6.728,3.179,14.779-38.8,50.547-66.126,106.823-81.415,55.88-15.187,115.277-13.23,171.773,5.656l75.686,25.3,0.991,64.7a223.894,223.894,0,0,1-138.858,86.174A226.356,226.356,0,0,1,329.91,364.939,69.776,69.776,0,0,0,253.072,365.631ZM237.436,577.824A44.568,44.568,0,0,1,269.8,535.238v67.867q0,8.8.633,17.488A44.587,44.587,0,0,1,237.436,577.824Zm427.842,178.6a217.029,217.029,0,0,1-153.256,62.528H512a215.6,215.6,0,0,1-153.354-63.495c-40.893-40.854-63.415-94.962-63.415-152.356V378.952a44.393,44.393,0,0,1,20.78,6.96,252,252,0,0,0,183.4,35.673,249.806,249.806,0,0,0,134.163-71.9v33.98c0,54.356,41.665,99.287,95.192,105.505v116.3C728.768,662.5,706.221,716.108,665.278,756.428Zm88.427-135.877c0.314-5,.491-10.025.491-15.078V535.238A44.2,44.2,0,0,1,753.705,620.551Z"/>
</svg>
