<?xml version="1.0" encoding="utf-8"?>
<!-- Generator: Adobe Illustrator 23.0.2, SVG Export Plug-In . SVG Version: 6.00 Build 0)  -->
<svg version="1.1" id="Layer_1" xmlns="http://www.w3.org/2000/svg" xmlns:xlink="http://www.w3.org/1999/xlink" x="0px" y="0px"
	 viewBox="0 0 1024 1024" style="enable-background:new 0 0 1024 1024;" xml:space="preserve">
<!--<style type="text/css">-->
<!--	.st0{fill:#114D88;}-->
<!--</style>-->
<g>
	<polygon class="st0" points="288,646.6 288,736 377.4,736 641.4,472 552,382.6 	"/>
	
		<rect x="605.8" y="308.8" transform="matrix(0.7071 -0.7071 0.7071 0.7071 -72.0773 569.9901)" class="st0" width="92.5" height="126.4"/>
	<path class="st0" d="M512,14.9C237.5,14.9,14.9,237.5,14.9,512s222.6,497.1,497.1,497.1s497.1-222.6,497.1-497.1
		S786.5,14.9,512,14.9z M763.3,395.3l-368,368c-3,3-7.1,4.7-11.3,4.7H272c-4.2,0-8.3-1.7-11.3-4.7s-4.7-7.1-4.7-11.3V640
		c0-4.2,1.7-8.3,4.7-11.3l368-368c6.2-6.2,16.4-6.2,22.6,0l112,112C769.6,378.9,769.6,389.1,763.3,395.3z"/>
</g>
</svg>
