<?xml version="1.0" encoding="utf-8"?>
<!-- Generator: Adobe Illustrator 23.0.2, SVG Export Plug-In . SVG Version: 6.00 Build 0)  -->
<svg version="1.1" id="Layer_1" xmlns="http://www.w3.org/2000/svg" xmlns:xlink="http://www.w3.org/1999/xlink" x="0px" y="0px"
	 viewBox="0 0 2039.49 1024" style="enable-background:new 0 0 2039.49 1024;" xml:space="preserve">
<!--<style type="text/css">
	.st0{fill:#114D88;}
</style>-->
<g>
	<g>
		<path class="st0" d="M1879.63,37.49H159.86c-66.68,0-120.92,54.29-120.92,121.03v368.85c0,66.73,54.25,121.03,120.92,121.03
			h1074.86c15.9,0,28.79-12.9,28.79-28.82c0-15.92-12.89-28.82-28.79-28.82H159.86c-34.92,0-63.34-28.44-63.34-63.39V158.52
			c0-34.96,28.41-63.4,63.34-63.4h1719.77c34.93,0,63.34,28.44,63.34,63.4v276.64c0,15.92,12.89,28.82,28.79,28.82
			c15.9,0,28.79-12.9,28.79-28.82V158.52C2000.55,91.78,1946.31,37.49,1879.63,37.49z M1877.71,503.29v-37.4
			c0-134.53-109.35-243.98-243.76-243.98c-134.41,0-243.76,109.45-243.76,243.98v37.4c-35.66,12.06-61.42,45.84-61.42,85.55v307.38
			c0,49.79,40.46,90.29,90.21,90.29h429.94c49.75,0,90.21-40.51,90.21-90.29V588.84C1939.14,549.13,1913.38,515.35,1877.71,503.29z
			 M1447.77,465.89c0-102.75,83.52-186.34,186.18-186.34c102.66,0,186.18,83.59,186.18,186.34v32.66h-372.36V465.89z
			 M1881.55,896.22c0,18.01-14.64,32.66-32.63,32.66h-429.94c-17.99,0-32.63-14.65-32.63-32.66V588.84
			c0-18.01,14.64-32.66,32.63-32.66h429.94c18,0,32.63,14.65,32.63,32.66V896.22z M506.15,267.06
			c-7.95-13.79-25.56-18.51-39.33-10.55l-63.2,36.52v-73.04c0-15.92-12.89-28.82-28.79-28.82c-15.9,0-28.79,12.9-28.79,28.82v73.04
			l-63.2-36.52c-13.77-7.96-31.38-3.24-39.33,10.55c-7.95,13.78-3.23,31.41,10.54,39.36l63.2,36.52l-63.2,36.52
			c-13.77,7.96-18.49,25.58-10.54,39.37c5.33,9.24,15.01,14.41,24.96,14.41c4.88,0,9.83-1.24,14.37-3.86l63.2-36.52v73.04
			c0,15.92,12.89,28.82,28.79,28.82c15.9,0,28.79-12.9,28.79-28.82v-73.04l63.2,36.52c4.53,2.62,9.48,3.86,14.37,3.86
			c9.95,0,19.63-5.17,24.96-14.41c7.95-13.78,3.23-31.41-10.54-39.37l-63.2-36.52l63.2-36.52
			C509.38,298.47,514.1,280.84,506.15,267.06z M874.67,267.06c-7.95-13.79-25.56-18.51-39.33-10.55l-63.2,36.52v-73.04
			c0-15.92-12.89-28.82-28.79-28.82c-15.9,0-28.79,12.9-28.79,28.82v73.04l-63.2-36.52c-13.77-7.96-31.38-3.24-39.33,10.55
			c-7.95,13.78-3.23,31.41,10.54,39.36l63.2,36.52l-63.2,36.52c-13.77,7.96-18.49,25.58-10.54,39.37
			c5.33,9.24,15.01,14.41,24.96,14.41c4.88,0,9.83-1.24,14.37-3.86l63.2-36.52v73.04c0,15.92,12.89,28.82,28.79,28.82
			c15.9,0,28.79-12.9,28.79-28.82v-73.04l63.2,36.52c4.53,2.62,9.49,3.86,14.37,3.86c9.95,0,19.63-5.17,24.96-14.41
			c7.95-13.78,3.23-31.41-10.54-39.37l-63.2-36.52l63.2-36.52C877.9,298.47,882.62,280.84,874.67,267.06z M1243.19,267.06
			c-7.95-13.79-25.56-18.51-39.33-10.55l-63.2,36.52v-73.04c0-15.92-12.89-28.82-28.79-28.82c-15.9,0-28.79,12.9-28.79,28.82v73.04
			l-63.2-36.52c-13.77-7.96-31.38-3.24-39.33,10.55c-7.95,13.78-3.23,31.41,10.54,39.36l63.2,36.52l-63.2,36.52
			c-13.77,7.96-18.49,25.58-10.54,39.37c5.33,9.24,15.01,14.41,24.96,14.41c4.89,0,9.84-1.24,14.37-3.86l63.2-36.52v73.04
			c0,15.92,12.89,28.82,28.79,28.82c15.9,0,28.79-12.9,28.79-28.82v-73.04l63.2,36.52c4.53,2.62,9.48,3.86,14.37,3.86
			c9.95,0,19.63-5.17,24.96-14.41c7.95-13.78,3.23-31.41-10.54-39.37l-63.2-36.52l63.2-36.52
			C1246.43,298.47,1251.15,280.84,1243.19,267.06z M1633.95,621.5c-49.74,0-90.21,40.51-90.21,90.3c0,39.71,25.76,73.49,61.42,85.55
			v37.4c0,15.92,12.89,28.82,28.79,28.82c15.9,0,28.79-12.9,28.79-28.82v-37.4c35.66-12.06,61.42-45.83,61.42-85.55
			C1724.16,662.01,1683.69,621.5,1633.95,621.5z M1633.95,744.45c-17.99,0-32.63-14.65-32.63-32.66c0-18.01,14.64-32.66,32.63-32.66
			c17.99,0,32.63,14.65,32.63,32.66C1666.58,729.8,1651.94,744.45,1633.95,744.45z"/>
	</g>
</g>
</svg>
