<?xml version="1.0" encoding="utf-8"?>
<!-- Generator: Adobe Illustrator 23.0.2, SVG Export Plug-In . SVG Version: 6.00 Build 0)  -->
<svg version="1.1" id="Layer_1" xmlns="http://www.w3.org/2000/svg" xmlns:xlink="http://www.w3.org/1999/xlink" x="0px" y="0px"
	 viewBox="0 0 1024 1024" style="enable-background:new 0 0 1024 1024;" xml:space="preserve">
<!--<style type="text/css">
	.st0{fill:#060606;}
</style>-->
<g>
	<path class="st0" d="M512,40.93c63.61,0,125.29,12.45,183.35,37.01c56.09,23.72,106.47,57.69,149.74,100.96
		s77.24,93.65,100.96,149.74c24.56,58.06,37.01,119.75,37.01,183.35s-12.45,125.29-37.01,183.35
		c-23.72,56.09-57.69,106.47-100.96,149.74c-43.27,43.27-93.65,77.24-149.74,100.96C637.29,970.6,575.6,983.05,512,983.05
		s-125.29-12.45-183.35-37.01c-56.09-23.72-106.47-57.69-149.74-100.96s-77.24-93.65-100.96-149.74
		C53.38,637.29,40.93,575.61,40.93,512s12.45-125.29,37.01-183.35c23.72-56.09,57.69-106.47,100.96-149.74
		s93.65-77.24,149.74-100.96C386.71,53.38,448.39,40.93,512,40.93 M512,15.93C238.03,15.93,15.93,238.03,15.93,512
		s222.1,496.07,496.07,496.07s496.07-222.1,496.07-496.07S785.97,15.93,512,15.93L512,15.93z"/>
</g>
<g>
	<g>
		<path d="M512,337.39l-248.94-31.43v380.65L512,718.04l248.94-31.42V305.96L512,337.39z M504.22,701.71l-225.6-28.48V323.28
			l225.6,28.47V701.71z M605.35,340.95l46.67-5.89v127.07l-23.34-11.42l-23.34,11.42V340.95z M745.38,673.23l-225.6,28.48V351.75
			l70.02-8.84v143.84l38.89-19.02l38.89,19.02V333.1l77.8-9.82V673.23z M466.13,398.38l-147.81-15.22l-1.62,15.14l147.81,15.22
			L466.13,398.38z M466.13,474.48l-147.81-15.22l-1.62,15.14l147.81,15.22L466.13,474.48z M466.13,550.58l-147.81-15.22l-1.62,15.14
			l147.81,15.22L466.13,550.58z M466.13,626.69l-147.81-15.22l-1.62,15.14l147.81,15.22L466.13,626.69z M559.49,565.72l147.81-15.22
			l-1.62-15.14l-147.81,15.22L559.49,565.72z M557.87,626.69l1.62,15.14l147.81-15.22l-1.62-15.14L557.87,626.69z"/>
	</g>
</g>
</svg>
