<svg xmlns="http://www.w3.org/2000/svg" width="1024" height="1024" viewBox="0 0 1024 1024">
  <metadata><?xpacket begin="﻿" id="W5M0MpCehiHzreSzNTczkc9d"?>
<x:xmpmeta xmlns:x="adobe:ns:meta/" x:xmptk="Adobe XMP Core 5.6-c142 79.160924, 2017/07/13-01:06:39        ">
   <rdf:RDF xmlns:rdf="http://www.w3.org/1999/02/22-rdf-syntax-ns#">
      <rdf:Description rdf:about=""/>
   </rdf:RDF>
</x:xmpmeta>
                                                                                                    
                                                                                                    
                                                                                                    
                                                                                                    
                                                                                                    
                                                                                                    
                                                                                                    
                                                                                                    
                                                                                                    
                                                                                                    
                                                                                                    
                                                                                                    
                                                                                                    
                                                                                                    
                                                                                                    
                                                                                                    
                                                                                                    
                                                                                                    
                                                                                                    
                                                                                                    
                           
<?xpacket end="w"?></metadata>
<defs>
    <style>
      .cls-1 {
        fill: #fff;
        fill-opacity: 0;
        stroke-width: 2px;
      }

      .cls-1, .cls-2 {
        stroke: #000;
        stroke-linejoin: round;
      }

      .cls-2 {
        stroke-opacity: 0.27;
        stroke-width: 1px;
        fill-rule: evenodd;
      }
    </style>
  </defs>
  <circle id="Ellipse_2_copy" data-name="Ellipse 2 copy" class="cls-1" cx="512" cy="512" r="507"/>
  <path id="_24_copy" data-name="24 copy" class="cls-2" d="M512.011,760.073L211.926,722.238V263.887l300.085,37.837L812.1,263.887V722.238Zm-281.33-53.955,281.33,35.476L793.34,706.118V284.73L512.011,320.2,230.681,284.73V706.118Zm290.707,44.718H502.633V310.964h18.755V750.836ZM699.564,481.58l-46.888-22.91-46.889,22.91V292.636h18.756V451.923l28.133-13.746,28.133,13.746V283.47h18.755V481.58Zm-244.8-88.189-178.176-18.33,1.96-18.227,178.176,18.328Zm0,91.639L276.589,466.7l1.96-18.227L456.725,466.8Zm0,91.639L276.589,558.341l1.96-18.227,178.176,18.325Zm0,91.641L276.589,649.98l1.96-18.227,178.176,18.328Zm114.491-91.641-1.959-18.23,178.176-18.325,1.959,18.227Zm0,91.641L567.3,650.081l178.176-18.328,1.959,18.227Z"/>
</svg>
