<?xml version="1.0" encoding="utf-8"?>
<!-- Generator: Adobe Illustrator 23.0.2, SVG Export Plug-In . SVG Version: 6.00 Build 0)  -->
<svg version="1.1" id="Layer_1" xmlns="http://www.w3.org/2000/svg" xmlns:xlink="http://www.w3.org/1999/xlink" x="0px" y="0px"
	 viewBox="0 0 1024 1024" style="enable-background:new 0 0 1024 1024;" xml:space="preserve">
<!--<style type="text/css">
	.st0{fill:#060606;}
</style>-->
<g>
	<path class="st0" d="M512,40.93c63.61,0,125.29,12.45,183.35,37.01c56.09,23.72,106.47,57.69,149.74,100.96
		s77.24,93.65,100.96,149.74c24.56,58.06,37.01,119.75,37.01,183.35s-12.45,125.29-37.01,183.35
		c-23.72,56.09-57.69,106.47-100.96,149.74c-43.27,43.27-93.65,77.24-149.74,100.96C637.29,970.6,575.6,983.05,512,983.05
		s-125.29-12.45-183.35-37.01c-56.09-23.72-106.47-57.69-149.74-100.96s-77.24-93.65-100.96-149.74
		C53.38,637.29,40.93,575.61,40.93,512s12.45-125.29,37.01-183.35c23.72-56.09,57.69-106.47,100.96-149.74
		s93.65-77.24,149.74-100.96C386.71,53.38,448.39,40.93,512,40.93 M512,15.93C238.03,15.93,15.93,238.03,15.93,512
		s222.1,496.07,496.07,496.07s496.07-222.1,496.07-496.07S785.97,15.93,512,15.93L512,15.93z"/>
</g>
<path d="M663.34,248.47v32.27h36.17l-70.57,67.33c-24.98-25.72-59.82-41.72-98.31-41.72c-51.77,0-96.95,28.94-120.41,71.58
	c-2.01-0.09-4.02-0.14-6.06-0.14c-75.83,0-137.52,62.07-137.52,138.37c0,70.84,53.18,129.41,121.48,137.42v42.88h-48.01v32.27h48.02
	v46.8h32.07v-46.8h50.11v-32.27h-50.11v-42.88c44.96-5.28,83.37-32.46,104.37-70.64c2.01,0.09,4.02,0.14,6.06,0.14
	c75.83,0,137.52-62.07,137.52-138.37c0-25.92-7.13-50.21-19.51-70.97l76.64-73.13v40.08h32.07v-92.22H663.34z M404.17,622.26
	c-58.15,0-105.45-47.6-105.45-106.1c0-56.22,43.69-102.36,98.71-105.87c-2.81,11.01-4.31,22.56-4.31,34.44
	c0,62.24,41.05,115.02,97.35,132.35C471.37,604.37,439.81,622.26,404.17,622.26z M504.89,547.62
	c-45.74-11.59-79.71-53.33-79.71-102.9c0-10.94,1.65-21.51,4.73-31.46c45.74,11.59,79.71,53.33,79.71,102.9
	C509.62,527.1,507.96,537.67,504.89,547.62z M537.38,550.6c2.81-11.02,4.31-22.56,4.31-34.45c0-62.24-41.06-115.01-97.35-132.34
	c19.09-27.31,50.66-45.2,86.29-45.2c58.15,0,105.45,47.6,105.45,106.1C636.08,500.94,592.39,547.08,537.38,550.6z"/>
</svg>
