<?xml version="1.0" encoding="utf-8"?>
<!-- Generator: Adobe Illustrator 23.0.2, SVG Export Plug-In . SVG Version: 6.00 Build 0)  -->
<svg version="1.1" id="Layer_1" xmlns="http://www.w3.org/2000/svg" xmlns:xlink="http://www.w3.org/1999/xlink" x="0px" y="0px"
	 viewBox="0 0 1024 1024" style="enable-background:new 0 0 1024 1024;" xml:space="preserve">
<!--<style type="text/css">
	.st0{fill:#060606;}
</style>-->
<g>
	<path class="st0" d="M512,40.93c63.61,0,125.29,12.45,183.35,37.01c56.09,23.72,106.47,57.69,149.74,100.96
		c43.27,43.27,77.24,93.65,100.96,149.74c24.56,58.06,37.01,119.75,37.01,183.35s-12.45,125.29-37.01,183.35
		c-23.72,56.09-57.69,106.47-100.96,149.74c-43.27,43.27-93.65,77.24-149.74,100.96c-58.06,24.56-119.75,37.01-183.35,37.01
		s-125.29-12.45-183.35-37.01c-56.09-23.72-106.47-57.69-149.74-100.96c-43.27-43.27-77.24-93.65-100.96-149.74
		C53.38,637.29,40.93,575.61,40.93,512s12.45-125.29,37.01-183.35c23.72-56.09,57.69-106.47,100.96-149.74
		s93.65-77.24,149.74-100.96C386.71,53.38,448.39,40.93,512,40.93 M512,15.93C238.03,15.93,15.93,238.03,15.93,512
		s222.1,496.07,496.07,496.07s496.07-222.1,496.07-496.07S785.97,15.93,512,15.93L512,15.93z"/>
</g>
<g>
	<path d="M495.09,783.12c-10.83-1.84-21.81-1.2-32.71-1.97c-54.09-3.85-107.3-12.58-159.45-27.56c-2.76-0.79-4.44-1.97-5.33-5.11
		c-9.78-34.74-15.6-69.98-12.54-106.15c3.45-40.77,26.22-81.97,78.99-94.18c20.2-4.67,40.25-9.88,60.77-13.17
		c12.73-2.04,20.83-10.5,24.75-22.8c0.89-2.8,0.09-5.02-1.89-7.32c-27.15-31.39-42.58-68.06-48.18-108.93
		c-0.79-5.79-1.88-10.99-4.77-16.12c-3.77-6.68-4.36-14.32-4.58-21.88c-0.58-19.77,0.07-39.5,5-58.75
		c7.8-30.5,28.21-47.75,58.51-53.76c27.66-5.49,55.68-4.92,83.67-3.84c13.79,0.53,27.46,1.96,40.88,5.62
		c25.51,6.95,42.03,23.03,49.51,48.24c7.18,24.21,8.66,48.93,5.35,73.95c-0.21,1.58-0.35,3.38-1.18,4.65
		c-7.55,11.6-6.62,25.3-9.51,38.03c-8.04,35.4-22.78,67.4-47.52,94.35c-1.81,1.97-2.29,3.54-1.35,6.15
		c5.13,14.31,15.64,20.76,30.32,22.74c24.85,3.34,49.49,8.54,72.87,17.54c36.52,14.05,55.75,42.18,60.92,80.43
		c5.25,38.83,0.31,76.81-9.55,114.4c-0.8,3.07-1.97,4.87-5.25,5.82c-30.28,8.75-61.04,15.2-92.18,19.99
		c-32.11,4.94-64.37,8.16-96.87,8.9c-1.41,0.03-2.81,0.47-4.21,0.72C518.08,783.12,506.59,783.12,495.09,783.12z M512.33,686.35
		c-47.74,0-95.48,0.05-143.22-0.09c-4.29-0.01-5.91,0.87-5.84,5.54c0.27,18.12,0.2,36.25,0.03,54.38c-0.03,3.57,1.12,4.97,4.6,5.65
		c40.33,7.9,81.04,12.6,122.1,13.83c56.09,1.68,111.69-3.06,166.78-13.82c3.51-0.69,4.6-2.13,4.57-5.67
		c-0.17-17.95-0.29-35.9,0.06-53.84c0.1-5.19-1.69-6.1-6.39-6.08C607.45,686.4,559.89,686.34,512.33,686.35z M512.93,378.17
		c-11.56-0.82-22.94,1.41-34.36,3.84c-19.88,4.22-39.07,11.91-59.76,12.1c-2.26,0.02-2.02,1.25-1.69,2.84
		c1.28,6.12,2.1,12.36,3.77,18.37c8.98,32.44,23.2,62.03,47.99,85.59c26.19,24.89,56.11,26.54,83.29,2.86
		c32.32-28.14,48.39-65.36,55.46-106.96c0.54-3.2-1.35-2.71-3.08-2.59c-10.76,0.69-20.97-1.92-31.06-5.12
		C553.83,382.86,534.11,377.04,512.93,378.17z M512.13,669.37c30.51,0,61.02-0.08,91.53,0.09c4.27,0.02,5.44-1.26,5.42-5.49
		c-0.15-35-0.07-70-0.12-105c0-2.02,1-4.55-1.34-5.93c-2.65-1.57-4.34,0.81-6.14,2.08c-27.83,19.64-55.71,39.22-83.35,59.12
		c-4.31,3.1-6.99,3.35-11.44,0.13c-27.89-20.18-56.04-39.98-84.12-59.89c-1.68-1.19-3.23-3.26-5.68-1.83
		c-2.18,1.28-1.21,3.57-1.21,5.4c-0.06,35.18,0.06,70.36-0.16,105.53c-0.03,4.95,1.6,5.92,6.14,5.89
		C451.82,669.29,481.98,669.38,512.13,669.37z M617.14,339.36c-0.88-8.92-1.61-16.93-2.47-24.92c-3.41-31.43-20.49-49.62-51.1-53.89
		c-34.12-4.75-68.33-4.84-102.42,0.08c-17.56,2.53-33.27,9.16-42.55,25.72c-9.08,16.21-11.04,34.08-12.23,52.78
		C476.64,314.71,546.34,314.72,617.14,339.36z M661.06,565.86c0,2.29,0,4.06,0,5.83c0,28.91,0,57.82,0,86.73
		c0,11.6,0.01,11.81,11.75,11.54c4.44-0.1,5.76,1.06,5.71,5.6c-0.24,21.9-0.11,43.81-0.11,65.72c0,6.07,0,6.05,6.18,4.42
		c7.43-1.95,14.84-4.02,22.33-5.7c3.7-0.83,5.69-2.41,6.69-6.31c8.43-32.97,11.82-66.18,6.72-100.1
		c-3.04-20.26-10.66-37.82-26.64-51.16C684.24,574.54,673.55,569.02,661.06,565.86z M363.6,617.46c0-15.8-0.18-31.61,0.1-47.41
		c0.09-4.98-1.44-5.18-5.52-3.75c-9.24,3.25-17.71,7.75-25.19,14.05c-17.64,14.86-26.38,34.02-29.02,56.83
		c-3.8,32.87-1.44,65.06,7.42,96.88c0.81,2.89,2.38,4.04,4.98,4.71c8.31,2.12,16.64,4.2,24.87,6.58c3.87,1.12,5.16,0.58,5.11-3.89
		c-0.25-19.57-0.12-39.15-0.09-58.72c0.01-4.12-1.33-9.34,0.67-12.07c2.39-3.26,7.99-1.17,12.16-1.2c3.48-0.03,4.61-1.04,4.57-4.61
		C363.5,649.06,363.6,633.26,363.6,617.46z M582.62,547.52c-10.02-5.61-17.81-12.46-22.5-22.09c-1.82-3.74-2.8-4.08-6.27-1.61
		c-17.91,12.74-37.64,16.97-59.12,11.41c-9.82-2.54-18.61-7.33-26.92-13.06c-1.09-0.75-2.5-2.89-3.67-0.16
		c-4.7,10.96-12.73,18.81-23.13,24.32c0.45,0.72,0.57,1.11,0.84,1.3c22.43,16.12,44.89,32.21,67.3,48.36
		c1.75,1.26,2.96,1.18,4.72-0.07C536.54,579.87,559.3,563.91,582.62,547.52z M600.82,376.81c11.43,0.14,14.6-3.19,15.91-14.22
		c0.45-3.77-0.57-5.71-4.41-7.05c-28.91-10.11-58.64-16.05-89.21-17.24c-37.42-1.46-73.84,4.28-109.23,16.52
		c-7.39,2.55-7.38,2.57-5.89,10.04c1.89,9.47,5.59,12.6,15.23,11.84c4.95-0.39,9.87-1.59,14.71-2.81
		c18.19-4.58,36.23-10.04,54.92-12.02c27-2.87,53.56-0.32,79.53,8.17C582.2,373.24,592.2,376.11,600.82,376.81z M398.77,612.69
		c-0.01,0-0.01,0-0.02,0c0-14.53,0-29.06,0-43.59c0-13.03,0.05-12.85-12.57-10.19c-4.36,0.92-5.47,2.77-5.44,7.14
		c0.22,30.31,0.11,60.63,0.12,90.95c0,12.59,0.01,12.37,12.72,12.5c4.54,0.05,5.29-1.73,5.26-5.68
		C398.67,646.78,398.77,629.73,398.77,612.69z M625.87,612.97c0,14.54,0,29.08,0,43.62c0,13.05,0.01,12.86,13.07,12.89
		c4.21,0.01,4.97-1.46,4.95-5.29c-0.15-30.52-0.08-61.04-0.08-91.56c0-12.18-0.05-11.98-12.26-14.84c-4.55-1.07-5.86-0.29-5.78,4.55
		C626.04,579.22,625.87,596.1,625.87,612.97z"/>
	<path d="M416.06,704.42c1.97,0,3.95-0.13,5.91,0.02c3.68,0.28,9-1.79,10.67,0.97c2.37,3.9,0.64,9.39,0.75,14.19
		c0.05,2.11-1.53,2.08-3,2.08c-9.5,0-19.11,0.9-28.46-0.3c-6.66-0.86-2.12-7.49-3.02-11.4c-0.47-2.04-1.66-5.76,3.16-5.59
		C406.74,704.56,411.41,704.43,416.06,704.42z"/>
	<path d="M608.52,704.43c4.66,0,9.32,0.11,13.98-0.04c2.58-0.08,3.28,0.9,3.44,3.41c0.89,13.89,0.96,13.89-12.82,13.9
		c-6.09,0-12.19-0.11-18.28,0.05c-2.8,0.07-3.6-0.89-3.72-3.68c-0.57-13.63-0.66-13.62,13.09-13.63
		C605.65,704.42,607.09,704.42,608.52,704.43z"/>
	<path d="M512.88,275.4c7.18,0.01,14.37,0.14,21.55-0.05c3.09-0.08,3.88,0.98,3.95,3.98c0.29,13.17,0.39,13.18-12.57,13.18
		c-11.49,0.01-22.99-0.12-34.48,0.06c-3.51,0.05-5.07-0.57-5.06-4.62c0.03-12.54-0.15-12.55,12.61-12.56
		C503.54,275.39,508.21,275.4,512.88,275.4z"/>
</g>
</svg>
