<?xml version="1.0" encoding="utf-8"?>
<!-- Generator: Adobe Illustrator 23.0.2, SVG Export Plug-In . SVG Version: 6.00 Build 0)  -->
<svg version="1.1" id="Layer_1" xmlns="http://www.w3.org/2000/svg" xmlns:xlink="http://www.w3.org/1999/xlink" x="0px" y="0px"
	 viewBox="0 0 1024 1024" style="enable-background:new 0 0 1024 1024;" xml:space="preserve">
<!--<style type="text/css">
	.st0{fill:#060606;}
</style>-->
<g>
	<path class="st0" d="M512,40.93c63.61,0,125.29,12.45,183.35,37.01c56.09,23.72,106.47,57.69,149.74,100.96
		s77.24,93.65,100.96,149.74c24.56,58.06,37.01,119.75,37.01,183.35s-12.45,125.29-37.01,183.35
		c-23.72,56.09-57.69,106.47-100.96,149.74c-43.27,43.27-93.65,77.24-149.74,100.96C637.29,970.6,575.6,983.05,512,983.05
		s-125.29-12.45-183.35-37.01c-56.09-23.72-106.47-57.69-149.74-100.96s-77.24-93.65-100.96-149.74
		C53.38,637.29,40.93,575.61,40.93,512s12.45-125.29,37.01-183.35c23.72-56.09,57.69-106.47,100.96-149.74
		s93.65-77.24,149.74-100.96C386.71,53.38,448.39,40.93,512,40.93 M512,15.93C238.03,15.93,15.93,238.03,15.93,512
		s222.1,496.07,496.07,496.07s496.07-222.1,496.07-496.07S785.97,15.93,512,15.93L512,15.93z"/>
</g>
<g>
	<path d="M551.42,307.59c0.72,21.71-15.2,39.07-40.52,39.07c-22.43,0-38.35-17.37-38.35-39.07c0-22.43,16.64-39.8,39.8-39.8
		C536.23,267.79,551.42,285.16,551.42,307.59z M480.51,756.21V406h63.67v350.21H480.51z"/>
</g>
</svg>
