<svg xmlns="http://www.w3.org/2000/svg" width="30" height="30" viewBox="0 0 30 30">
  <g id="ic_Guardians" transform="translate(-23 -234)">
    <g id="Ellipse_2_copy_13" data-name="Ellipse 2 copy 13" transform="translate(24 235)" fill="rgba(255,255,255,0)" stroke="#000" stroke-linejoin="round" stroke-width="1">
      <circle cx="14" cy="14" r="14" stroke="none"/>
      <circle cx="14" cy="14" r="14.5" fill="none"/>
    </g>
    <path id="Forma_1" data-name="Forma 1" d="M6.97,14.878H.861A.836.836,0,0,1,.2,14.551.967.967,0,0,1,.012,13.8l.3-1.967a1.716,1.716,0,0,1,1.048-1.352L4.3,9.344l.011,0,.737-.283V8.5A3.758,3.758,0,0,1,3.935,5.891V5.485A1.279,1.279,0,0,0,3.7,4.778a1.6,1.6,0,0,1-.31-.952V2.5A2.419,2.419,0,0,1,5.713,0H8.875a.222.222,0,0,1,.045,0,.925.925,0,0,1,.7.488.926.926,0,0,1,.069.53,1.627,1.627,0,0,1,.865,1.23.291.291,0,0,1,0,.032V4.1a1.192,1.192,0,0,1-.162.6A3.747,3.747,0,0,0,10,5.869,3.5,3.5,0,0,1,8.879,8.463v.594l.747.287.01,0,2.93,1.137a1.716,1.716,0,0,1,1.048,1.352l.3,1.967a.968.968,0,0,1-.193.748.836.836,0,0,1-.656.326Zm3.568-3.73a.269.269,0,0,1-.009.244.235.235,0,0,1-.2.121l-.594.01.154.314a.266.266,0,0,1-.05.3L7.566,14.373h5.5a.379.379,0,0,0,.3-.148.44.44,0,0,0,.087-.339l-.3-1.967a1.219,1.219,0,0,0-.744-.959l-2.386-.925Zm-9.014-.188a1.218,1.218,0,0,0-.744.959l-.3,1.967a.438.438,0,0,0,.087.339.379.379,0,0,0,.3.148h5.5L4.089,12.141a.266.266,0,0,1-.05-.3l.154-.314-.594-.01a.234.234,0,0,1-.2-.121.268.268,0,0,1-.01-.244l.518-1.114Zm5.16.315.2.3a.267.267,0,0,1,.039.184L6.663,13.5l.3.588.306-.6-.256-1.732a.265.265,0,0,1,.039-.184l.195-.3-.283-.413Zm1.17,2.131L9.389,11.9l-.247-.505a.268.268,0,0,1,.006-.246.232.232,0,0,1,.2-.124l.6-.01-.413-.888L8.4,12.348ZM3.981,11.014l.6.01a.232.232,0,0,1,.2.124.268.268,0,0,1,.006.246l-.247.505,1.535,1.506-.542-1.057-1.14-2.222Zm2.038,1.232.275.535.147-1L6.39,11.7Zm1.476-.462.146.989.27-.527-.368-.537ZM4.723,9.72l1.045,2.038.244-.356.19-.278,0,0,.052-.075L6.63,10.5,5.254,9.515Zm3.005,1.405.433.633L9.207,9.72l-.531-.2-.863.619L7.3,10.5l.427.624ZM5.522,9.1l1.443,1.034,1.153-.826.29-.208V8.854a2.369,2.369,0,0,1-.844.525,1.738,1.738,0,0,1-.75.1H6.687l-.026,0H6.649l-.008,0h0a2.45,2.45,0,0,1-.863-.407l0,0-.006,0-.005,0,0,0c-.084-.058-.163-.117-.236-.173Zm2.02-.248a2.006,2.006,0,0,0,.582-.4l.022-.021a3.8,3.8,0,0,1,.364-.3l.013-.01.027-.02a2.945,2.945,0,0,0,.977-2.269V3.755a1.064,1.064,0,0,0-.657-.813L7.776,2.531l-.021-.008-.006,0h0l-.04-.011-.008,0-.007,0-.012,0h0a.64.64,0,0,0-.371.035c-.2.083-.476.191-.67.261l-.058.02a1.079,1.079,0,0,1-.351.059H5.206a1,1,0,0,0-.54.327h0l-.007.008,0,0,0,.005-.006.007h0a1.235,1.235,0,0,0-.238.513V5.881a3.207,3.207,0,0,0,.989,2.26l.018.013.006,0c.075.054.15.113.223.174a2.326,2.326,0,0,0,1.18.641.239.239,0,0,1,.043,0l.04,0A1.4,1.4,0,0,0,7.542,8.851ZM10,3.738V4.42a.664.664,0,0,0,.086-.324V2.3a1.068,1.068,0,0,0-.738-.871A.24.24,0,0,1,9.189,1.3a.268.268,0,0,1,0-.216A.525.525,0,0,0,9.2.72.5.5,0,0,0,8.851.505H5.713A1.93,1.93,0,0,0,3.857,2.5v1.33a1.083,1.083,0,0,0,.079.407v-.52a.25.25,0,0,1,.006-.055A1.535,1.535,0,0,1,5.156,2.374l.03,0H6.228a.648.648,0,0,0,.208-.034c.146-.051.39-.145.7-.273a1.077,1.077,0,0,1,.713-.037q.039.012.078.026l1.1.413h0A1.567,1.567,0,0,1,10,3.711a.205.205,0,0,1,0,.027Z" transform="translate(31 242)"/>
  </g>
</svg>
