<svg xmlns="http://www.w3.org/2000/svg" width="30" height="30" viewBox="0 0 30 30">
  <g id="ic_logout" transform="translate(-23 -992)">
    <g id="Ellipse_2_copy_8" data-name="Ellipse 2 copy 8" transform="translate(24 993)" fill="rgba(255,255,255,0)" stroke="#000" stroke-linejoin="round" stroke-width="1">
      <circle cx="14" cy="14" r="14" stroke="none"/>
      <circle cx="14" cy="14" r="14.5" fill="none"/>
    </g>
    <g id="Shape_1" data-name="Shape 1" transform="translate(31 1000)">
      <g id="Shape_1-2" data-name="Shape 1" stroke-linejoin="round">
        <path d="M 3.253387928009033 13.55337619781494 C 3.137297868728638 13.55337619781494 3.019507884979248 13.53091621398926 2.90327787399292 13.4866361618042 L 0.7753979563713074 12.63421630859375 C 0.1461079269647598 12.40053558349609 -0.1000020727515221 12.06427574157715 -0.1000020727515221 11.43579578399658 L -0.1000020727515221 2.015745878219604 C -0.1000020727515221 1.387135982513428 0.147697925567627 1.050395965576172 0.7834479212760925 0.8146859407424927 L 2.897797822952271 -0.03288406878709793 C 3.016507863998413 -0.07767406851053238 3.134037971496582 -0.100004069507122 3.249047994613647 -0.100004069507122 C 3.75134801864624 -0.100004069507122 4.130127906799316 0.3273959159851074 4.130127906799316 0.8941659331321716 L 4.130127906799316 12.55725574493408 C 4.130127906799316 13.134446144104 3.761407852172852 13.55337619781494 3.253387928009033 13.55337619781494 Z M 3.253387928009033 0.5470259189605713 C 3.216787815093994 0.5470259189605713 3.175967931747437 0.5553659200668335 3.13208794593811 0.5717959403991699 L 1.016097903251648 1.419495940208435 C 0.6263379454612732 1.564365983009338 0.5479879379272461 1.664515972137451 0.5479879379272461 2.015745878219604 L 0.5479879379272461 11.43579578399658 C 0.5479879379272461 11.78692626953125 0.6254679560661316 11.88672637939453 1.008557915687561 12.02906608581543 L 3.138527870178223 12.8827657699585 C 3.175688028335571 12.89676570892334 3.217137813568115 12.90488624572754 3.253387928009033 12.90488624572754 C 3.392347812652588 12.90488624572754 3.48213791847229 12.76843547821045 3.48213791847229 12.55725574493408 L 3.48213791847229 0.8941659331321716 C 3.48213791847229 0.6832859516143799 3.392347812652588 0.5470259189605713 3.253387928009033 0.5470259189605713 Z M 7.836048126220703 12.65517616271973 L 4.701888084411621 12.65517616271973 C 4.52335786819458 12.65517616271973 4.378108024597168 12.50972557067871 4.378108024597168 12.33093547821045 C 4.378108024597168 12.1521463394165 4.52335786819458 12.00669574737549 4.701888084411621 12.00669574737549 L 7.836048126220703 12.00669574737549 C 8.151317596435547 12.00669574737549 8.407808303833008 11.74987602233887 8.407808303833008 11.43420600891113 L 8.407808303833008 8.070196151733398 C 8.407808303833008 7.891406059265137 8.553048133850098 7.745945930480957 8.73157787322998 7.745945930480957 C 8.910347938537598 7.745945930480957 9.055788040161133 7.891406059265137 9.055788040161133 8.070196151733398 L 9.055788040161133 11.4337158203125 C 9.055788040161133 12.1072359085083 8.508618354797363 12.65517616271973 7.836048126220703 12.65517616271973 Z M 10.97063827514648 9.291525840759277 C 10.88365745544434 9.291525840759277 10.8021183013916 9.257545471191406 10.74103832244873 9.195845603942871 C 10.61546802520752 9.069735527038574 10.61546802520752 8.864226341247559 10.74123764038086 8.737915992736816 L 12.42768383026123 7.048736095428467 L 5.14943790435791 7.048736095428467 C 4.970908164978027 7.048736095428467 4.825667858123779 6.903225898742676 4.825667858123779 6.724365711212158 C 4.825667858123779 6.545645713806152 4.970908164978027 6.400246143341064 5.14943790435791 6.400246143341064 L 12.42768383026123 6.400246143341064 L 10.74132823944092 4.711155891418457 C 10.61552810668945 4.584805965423584 10.61550807952881 4.379255771636963 10.74118804931641 4.252855777740479 C 10.80269813537598 4.191365718841553 10.88408756256104 4.157626152038574 10.97058773040771 4.157626152038574 C 11.05716800689697 4.157626152038574 11.13850784301758 4.191435813903809 11.19961833953857 4.252815723419189 L 13.43814754486084 6.495265960693359 C 13.46703815460205 6.523426055908203 13.49096775054932 6.558975696563721 13.50829792022705 6.59998607635498 C 13.54091835021973 6.679696083068848 13.54090785980225 6.769835948944092 13.50871753692627 6.848355770111084 C 13.49173831939697 6.888715744018555 13.46813774108887 6.923975944519043 13.43821811676025 6.954005718231201 L 11.19950771331787 9.196146011352539 C 11.13872814178467 9.257545471191406 11.05733776092529 9.291525840759277 10.97063827514648 9.291525840759277 Z M 2.910817861557007 7.721705913543701 C 2.732048034667969 7.721705913543701 2.586607933044434 7.576305866241455 2.586607933044434 7.397585868835449 L 2.586607933044434 6.051886081695557 C 2.586607933044434 5.873095989227295 2.732048034667969 5.727635860443115 2.910817861557007 5.727635860443115 C 3.089347839355469 5.727635860443115 3.234587907791138 5.873095989227295 3.234587907791138 6.051886081695557 L 3.234587907791138 7.397585868835449 C 3.234587907791138 7.576305866241455 3.089347839355469 7.721705913543701 2.910817861557007 7.721705913543701 Z M 8.73157787322998 5.703395843505859 C 8.553048133850098 5.703395843505859 8.407808303833008 5.557995796203613 8.407808303833008 5.379275798797607 L 8.407808303833008 2.015745878219604 C 8.407808303833008 1.699675917625427 8.151317596435547 1.442535877227783 7.836048126220703 1.442535877227783 L 4.673808097839355 1.442535877227783 C 4.495277881622314 1.442535877227783 4.350028038024902 1.297135949134827 4.350028038024902 1.118405938148499 C 4.350028038024902 0.9396159052848816 4.495277881622314 0.7941659092903137 4.673808097839355 0.7941659092903137 L 7.836048126220703 0.7941659092903137 C 8.508378028869629 0.7941659092903137 9.055357933044434 1.342165946960449 9.055357933044434 2.015745878219604 L 9.055357933044434 5.379275798797607 C 9.055357933044434 5.557995796203613 8.910107612609863 5.703395843505859 8.73157787322998 5.703395843505859 Z" stroke="none"/>
        <path d="M 3.253387928009033 13.45337581634521 C 3.703537940979004 13.45337581634521 4.030128002166748 13.07653617858887 4.030128002166748 12.55725574493408 L 4.030128002166748 0.8941659331321716 C 4.030128002166748 0.3740778565406799 3.692436218261719 4.620361266916007e-07 3.249046802520752 4.620361266916007e-07 C 3.148890256881714 4.620361266916007e-07 3.043267488479614 0.01911198906600475 2.935007810592651 0.05993593111634254 L 0.8182079195976257 0.9084459543228149 C 0.2216179221868515 1.12963593006134 -2.073364157695323e-06 1.42944598197937 -2.073364157695323e-06 2.015745878219604 L -2.073364157695323e-06 11.43579578399658 C -2.073364157695323e-06 12.02160549163818 0.2216179221868515 12.32190608978271 0.8125879168510437 12.54138565063477 L 2.93888783454895 13.39318561553955 C 3.044307947158813 13.43335628509521 3.150137901306152 13.45337581634521 3.253387928009033 13.45337581634521 M 3.253387928009033 0.4470259249210358 C 3.449947834014893 0.4470259249210358 3.582137823104858 0.6268359422683716 3.582137823104858 0.8941659331321716 L 3.582137823104858 12.55725574493408 C 3.582137823104858 12.82519626617432 3.450387954711914 13.00488567352295 3.253387928009033 13.00488567352295 C 3.204577922821045 13.00488567352295 3.151437997817993 12.99450588226318 3.101327896118164 12.9755859375 L 0.9737279415130615 12.12280559539795 C 0.5512279272079468 11.9658260345459 0.4479879140853882 11.83105564117432 0.4479879140853882 11.43579578399658 L 0.4479879140853882 2.015745878219604 C 0.4479879140853882 1.620485901832581 0.5512279272079468 1.485595941543579 0.9789079427719116 1.326665878295898 L 3.097007989883423 0.4781559407711029 C 3.151437997817993 0.4577659368515015 3.204147815704346 0.4470259249210358 3.253387928009033 0.4470259249210358 M 7.836048126220703 12.55517578125 C 8.453377723693848 12.55517578125 8.955787658691406 12.05236625671387 8.955787658691406 11.4337158203125 L 8.955787658691406 8.070196151733398 C 8.955787658691406 7.946166038513184 8.855567932128906 7.845945835113525 8.73157787322998 7.845945835113525 C 8.608027458190918 7.845945835113525 8.507807731628418 7.946166038513184 8.507807731628418 8.070196151733398 L 8.507807731628418 11.43420600891113 C 8.507807731628418 11.80468559265137 8.206707954406738 12.10669612884521 7.836048126220703 12.10669612884521 L 4.701888084411621 12.10669612884521 C 4.578338146209717 12.10669612884521 4.478107929229736 12.20691585540771 4.478107929229736 12.33093547821045 C 4.478107929229736 12.4545955657959 4.578338146209717 12.55517578125 4.701888084411621 12.55517578125 L 7.836048126220703 12.55517578125 M 10.97063827514648 9.191525459289551 C 11.02809810638428 9.191525459289551 11.08511829376221 9.1695556640625 11.12874794006348 9.125486373901367 L 13.36737823486328 6.883425712585449 C 13.3885383605957 6.862185955047607 13.40452766418457 6.838135719299316 13.41618824005127 6.810425758361816 C 13.43865776062012 6.755615711212158 13.43865776062012 6.693845748901367 13.41618824005127 6.638916015625 C 13.40452766418457 6.611325740814209 13.3885383605957 6.586545944213867 13.36737823486328 6.565916061401367 L 11.12874794006348 4.323366165161133 C 11.08511829376221 4.279541015625 11.02787780761719 4.257628440856934 10.97058391571045 4.257628440856934 C 10.91329002380371 4.257628440856934 10.85594272613525 4.279541015625 10.81209754943848 4.323366165161133 C 10.72482776641846 4.411136150360107 10.72482776641846 4.552855968475342 10.81209754943848 4.640505790710449 L 12.66882801055908 6.500246047973633 L 5.14943790435791 6.500246047973633 C 5.025887966156006 6.500246047973633 4.925667762756348 6.600955963134766 4.925667762756348 6.724365711212158 C 4.925667762756348 6.848395824432373 5.025887966156006 6.94873571395874 5.14943790435791 6.94873571395874 L 12.66882801055908 6.94873571395874 L 10.81209754943848 8.808475494384766 C 10.72482776641846 8.896116256713867 10.72482776641846 9.037845611572266 10.81209754943848 9.125486373901367 C 10.85572814941406 9.1695556640625 10.91318798065186 9.191525459289551 10.97063827514648 9.191525459289551 M 2.910817861557007 7.621706008911133 C 3.03436803817749 7.621706008911133 3.134588003158569 7.521115779876709 3.134588003158569 7.397585868835449 L 3.134588003158569 6.051886081695557 C 3.134588003158569 5.928225994110107 3.03436803817749 5.827635765075684 2.910817861557007 5.827635765075684 C 2.787267923355103 5.827635765075684 2.686607837677002 5.928225994110107 2.686607837677002 6.051886081695557 L 2.686607837677002 7.397585868835449 C 2.686607837677002 7.521115779876709 2.787267923355103 7.621706008911133 2.910817861557007 7.621706008911133 M 8.73157787322998 5.603395938873291 C 8.855567932128906 5.603395938873291 8.955357551574707 5.502686023712158 8.955357551574707 5.379275798797607 L 8.955357551574707 2.015745878219604 C 8.955357551574707 1.397095918655396 8.453377723693848 0.8941659331321716 7.836048126220703 0.8941659331321716 L 4.673808097839355 0.8941659331321716 C 4.550258159637451 0.8941659331321716 4.450027942657471 0.9948759078979492 4.450027942657471 1.118405938148499 C 4.450027942657471 1.242435932159424 4.550258159637451 1.342535972595215 4.673808097839355 1.342535972595215 L 7.836048126220703 1.342535972595215 C 8.206268310546875 1.342535972595215 8.507807731628418 1.644535899162292 8.507807731628418 2.015745878219604 L 8.507807731628418 5.379275798797607 C 8.507807731628418 5.502686023712158 8.608027458190918 5.603395938873291 8.73157787322998 5.603395938873291 M 3.253387928009033 13.65337562561035 C 3.125087976455688 13.65337562561035 2.995317935943604 13.62871551513672 2.867677927017212 13.58007621765137 L 0.7405341267585754 12.72797393798828 C 0.07254855334758759 12.47922039031982 -0.2000020742416382 12.1046781539917 -0.2000020742416382 11.43579578399658 L -0.2000020742416382 2.015745878219604 C -0.2000020742416382 1.346621870994568 0.074205182492733 0.9715859293937683 0.7464193105697632 0.7217551469802856 L 2.860597848892212 -0.1257040649652481 C 2.992568016052246 -0.1755140721797943 3.121958017349243 -0.2000040709972382 3.249047994613647 -0.2000040709972382 C 3.808357954025269 -0.2000040709972382 4.230127811431885 0.2703859210014343 4.230127811431885 0.8941659331321716 L 4.230127811431885 12.55725574493408 C 4.230127811431885 13.19238567352295 3.819347858428955 13.65337562561035 3.253387928009033 13.65337562561035 Z M 3.253387928009033 0.6470259428024292 C 3.229147911071777 0.6470259428024292 3.199337959289551 0.65339595079422 3.167167901992798 0.6654459238052368 L 1.053277969360352 1.512325882911682 C 1.051717877388 1.512945890426636 1.050147891044617 1.513555884361267 1.048577904701233 1.514135956764221 C 0.6800779104232788 1.651075959205627 0.6479879021644592 1.720805883407593 0.6479879021644592 2.015745878219604 L 0.6479879021644592 11.43579578399658 C 0.6479879021644592 11.73063564300537 0.6796679496765137 11.80018615722656 1.043387889862061 11.93532562255859 C 1.044977903366089 11.93591594696045 1.046557903289795 11.93653583526611 1.048137903213501 11.93716621398926 L 3.175737857818604 12.78994560241699 C 3.199587821960449 12.79890632629395 3.229267835617065 12.80488586425781 3.253387928009033 12.80488586425781 C 3.355017900466919 12.80488586425781 3.382138013839722 12.64922618865967 3.382138013839722 12.55725574493408 L 3.382138013839722 0.8941659331321716 C 3.382138013839722 0.8023759126663208 3.355017900466919 0.6470259428024292 3.253387928009033 0.6470259428024292 Z M 7.836048126220703 12.75517559051514 L 4.701888084411621 12.75517559051514 C 4.468217849731445 12.75517559051514 4.2781081199646 12.564866065979 4.2781081199646 12.33093547821045 C 4.2781081199646 12.09700584411621 4.468217849731445 11.90669631958008 4.701888084411621 11.90669631958008 L 7.836048126220703 11.90669631958008 C 8.09617805480957 11.90669631958008 8.307807922363281 11.69473552703857 8.307807922363281 11.43420600891113 L 8.307807922363281 8.070196151733398 C 8.307807922363281 7.836266040802002 8.497907638549805 7.645946025848389 8.73157787322998 7.645946025848389 C 8.965487480163574 7.645946025848389 9.155787467956543 7.836266040802002 9.155787467956543 8.070196151733398 L 9.155787467956543 11.4337158203125 C 9.155787467956543 12.16237640380859 8.56375789642334 12.75517559051514 7.836048126220703 12.75517559051514 Z M 10.97063827514648 9.391526222229004 C 10.85675811767578 9.391526222229004 10.74997806549072 9.347016334533691 10.66996765136719 9.266196250915527 C 10.50585746765137 9.101395606994629 10.50585746765137 8.832566261291504 10.67037773132324 8.667355537414551 L 12.18653202056885 7.148736000061035 L 5.14943790435791 7.148736000061035 C 4.915768146514893 7.148736000061035 4.725667953491211 6.958365917205811 4.725667953491211 6.724365711212158 C 4.725667953491211 6.490505695343018 4.915768146514893 6.300245761871338 5.14943790435791 6.300245761871338 L 12.18653011322021 6.300245761871338 L 10.67055797576904 4.781816005706787 C 10.50594806671143 4.616486072540283 10.50590801239014 4.347655773162842 10.67027759552002 4.182345867156982 C 10.7509183883667 4.10175609588623 10.85740756988525 4.057625770568848 10.97058773040771 4.057625770568848 C 11.08395767211914 4.057625770568848 11.19045829772949 4.101885795593262 11.27047824859619 4.182255744934082 L 13.5089282989502 6.424615859985352 C 13.54643821716309 6.461165904998779 13.57786750793457 6.507715702056885 13.60040760040283 6.561056137084961 C 13.6439380645752 6.667436122894287 13.64391803741455 6.782186031341553 13.60123825073242 6.886285781860352 C 13.57888793945313 6.939425945281982 13.54811763763428 6.985385894775391 13.50906753540039 7.024575710296631 L 11.27027797698975 9.266796112060547 C 11.19086837768555 9.347016334533691 11.08423805236816 9.391526222229004 10.97063827514648 9.391526222229004 Z M 2.910817861557007 7.82170581817627 C 2.676908016204834 7.82170581817627 2.486608028411865 7.63144588470459 2.486608028411865 7.397585868835449 L 2.486608028411865 6.051886081695557 C 2.486608028411865 5.81795597076416 2.676908016204834 5.627635955810547 2.910817861557007 5.627635955810547 C 3.144487857818604 5.627635955810547 3.334587812423706 5.81795597076416 3.334587812423706 6.051886081695557 L 3.334587812423706 7.397585868835449 C 3.334587812423706 7.63144588470459 3.144487857818604 7.82170581817627 2.910817861557007 7.82170581817627 Z M 8.73157787322998 5.803395748138428 C 8.497907638549805 5.803395748138428 8.307807922363281 5.613135814666748 8.307807922363281 5.379275798797607 L 8.307807922363281 2.015745878219604 C 8.307807922363281 1.754815936088562 8.09617805480957 1.542535901069641 7.836048126220703 1.542535901069641 L 4.673808097839355 1.542535901069641 C 4.44013786315918 1.542535901069641 4.250028133392334 1.352275967597961 4.250028133392334 1.118405938148499 C 4.250028133392334 0.8844759464263916 4.44013786315918 0.6941659450531006 4.673808097839355 0.6941659450531006 L 7.836048126220703 0.6941659450531006 C 8.563517570495605 0.6941659450531006 9.15535831451416 1.287025928497314 9.15535831451416 2.015745878219604 L 9.15535831451416 5.379275798797607 C 9.15535831451416 5.613135814666748 8.965248107910156 5.803395748138428 8.73157787322998 5.803395748138428 Z" stroke="none"/>
      </g>
      <g id="Stroke_Effect" data-name="Stroke Effect" fill="rgba(0,0,0,0)" stroke-linejoin="round" opacity="0.27">
        <path d="M 3.253387928009033 13.55337619781494 C 3.137297868728638 13.55337619781494 3.019507884979248 13.53091621398926 2.90327787399292 13.4866361618042 L 0.7753979563713074 12.63421630859375 C 0.1461079269647598 12.40053558349609 -0.1000020727515221 12.06427574157715 -0.1000020727515221 11.43579578399658 L -0.1000020727515221 2.015745878219604 C -0.1000020727515221 1.387135982513428 0.147697925567627 1.050395965576172 0.7834479212760925 0.8146859407424927 L 2.897797822952271 -0.03288406878709793 C 3.016507863998413 -0.07767406851053238 3.134037971496582 -0.100004069507122 3.249047994613647 -0.100004069507122 C 3.75134801864624 -0.100004069507122 4.130127906799316 0.3273959159851074 4.130127906799316 0.8941659331321716 L 4.130127906799316 12.55725574493408 C 4.130127906799316 13.134446144104 3.761407852172852 13.55337619781494 3.253387928009033 13.55337619781494 Z M 3.253387928009033 0.5470259189605713 C 3.216787815093994 0.5470259189605713 3.175967931747437 0.5553659200668335 3.13208794593811 0.5717959403991699 L 1.016097903251648 1.419495940208435 C 0.6263379454612732 1.564365983009338 0.5479879379272461 1.664515972137451 0.5479879379272461 2.015745878219604 L 0.5479879379272461 11.43579578399658 C 0.5479879379272461 11.78692626953125 0.6254679560661316 11.88672637939453 1.008557915687561 12.02906608581543 L 3.138527870178223 12.8827657699585 C 3.175688028335571 12.89676570892334 3.217137813568115 12.90488624572754 3.253387928009033 12.90488624572754 C 3.392347812652588 12.90488624572754 3.48213791847229 12.76843547821045 3.48213791847229 12.55725574493408 L 3.48213791847229 0.8941659331321716 C 3.48213791847229 0.6832859516143799 3.392347812652588 0.5470259189605713 3.253387928009033 0.5470259189605713 Z M 7.836048126220703 12.65517616271973 L 4.701888084411621 12.65517616271973 C 4.52335786819458 12.65517616271973 4.378108024597168 12.50972557067871 4.378108024597168 12.33093547821045 C 4.378108024597168 12.1521463394165 4.52335786819458 12.00669574737549 4.701888084411621 12.00669574737549 L 7.836048126220703 12.00669574737549 C 8.151317596435547 12.00669574737549 8.407808303833008 11.74987602233887 8.407808303833008 11.43420600891113 L 8.407808303833008 8.070196151733398 C 8.407808303833008 7.891406059265137 8.553048133850098 7.745945930480957 8.73157787322998 7.745945930480957 C 8.910347938537598 7.745945930480957 9.055788040161133 7.891406059265137 9.055788040161133 8.070196151733398 L 9.055788040161133 11.4337158203125 C 9.055788040161133 12.1072359085083 8.508618354797363 12.65517616271973 7.836048126220703 12.65517616271973 Z M 10.97063827514648 9.291525840759277 C 10.88365745544434 9.291525840759277 10.8021183013916 9.257545471191406 10.74103832244873 9.195845603942871 C 10.61546802520752 9.069735527038574 10.61546802520752 8.864226341247559 10.74123764038086 8.737915992736816 L 12.42768383026123 7.048736095428467 L 5.14943790435791 7.048736095428467 C 4.970908164978027 7.048736095428467 4.825667858123779 6.903225898742676 4.825667858123779 6.724365711212158 C 4.825667858123779 6.545645713806152 4.970908164978027 6.400246143341064 5.14943790435791 6.400246143341064 L 12.42768383026123 6.400246143341064 L 10.74132823944092 4.711155891418457 C 10.61552810668945 4.584805965423584 10.61550807952881 4.379255771636963 10.74118804931641 4.252855777740479 C 10.80269813537598 4.191365718841553 10.88408756256104 4.157626152038574 10.97058773040771 4.157626152038574 C 11.05716800689697 4.157626152038574 11.13850784301758 4.191435813903809 11.19961833953857 4.252815723419189 L 13.43814754486084 6.495265960693359 C 13.46703815460205 6.523426055908203 13.49096775054932 6.558975696563721 13.50829792022705 6.59998607635498 C 13.54091835021973 6.679696083068848 13.54090785980225 6.769835948944092 13.50871753692627 6.848355770111084 C 13.49173831939697 6.888715744018555 13.46813774108887 6.923975944519043 13.43821811676025 6.954005718231201 L 11.19950771331787 9.196146011352539 C 11.13872814178467 9.257545471191406 11.05733776092529 9.291525840759277 10.97063827514648 9.291525840759277 Z M 2.910817861557007 7.721705913543701 C 2.732048034667969 7.721705913543701 2.586607933044434 7.576305866241455 2.586607933044434 7.397585868835449 L 2.586607933044434 6.051886081695557 C 2.586607933044434 5.873095989227295 2.732048034667969 5.727635860443115 2.910817861557007 5.727635860443115 C 3.089347839355469 5.727635860443115 3.234587907791138 5.873095989227295 3.234587907791138 6.051886081695557 L 3.234587907791138 7.397585868835449 C 3.234587907791138 7.576305866241455 3.089347839355469 7.721705913543701 2.910817861557007 7.721705913543701 Z M 8.73157787322998 5.703395843505859 C 8.553048133850098 5.703395843505859 8.407808303833008 5.557995796203613 8.407808303833008 5.379275798797607 L 8.407808303833008 2.015745878219604 C 8.407808303833008 1.699675917625427 8.151317596435547 1.442535877227783 7.836048126220703 1.442535877227783 L 4.673808097839355 1.442535877227783 C 4.495277881622314 1.442535877227783 4.350028038024902 1.297135949134827 4.350028038024902 1.118405938148499 C 4.350028038024902 0.9396159052848816 4.495277881622314 0.7941659092903137 4.673808097839355 0.7941659092903137 L 7.836048126220703 0.7941659092903137 C 8.508378028869629 0.7941659092903137 9.055357933044434 1.342165946960449 9.055357933044434 2.015745878219604 L 9.055357933044434 5.379275798797607 C 9.055357933044434 5.557995796203613 8.910107612609863 5.703395843505859 8.73157787322998 5.703395843505859 Z" stroke="none"/>
        <path d="M 3.253387928009033 13.45337581634521 C 3.703537940979004 13.45337581634521 4.030128002166748 13.07653617858887 4.030128002166748 12.55725574493408 L 4.030128002166748 0.8941659331321716 C 4.030128002166748 0.3740778565406799 3.692436218261719 4.620361266916007e-07 3.249046802520752 4.620361266916007e-07 C 3.148890256881714 4.620361266916007e-07 3.043267488479614 0.01911198906600475 2.935007810592651 0.05993593111634254 L 0.8182079195976257 0.9084459543228149 C 0.2216179221868515 1.12963593006134 -2.073364157695323e-06 1.42944598197937 -2.073364157695323e-06 2.015745878219604 L -2.073364157695323e-06 11.43579578399658 C -2.073364157695323e-06 12.02160549163818 0.2216179221868515 12.32190608978271 0.8125879168510437 12.54138565063477 L 2.93888783454895 13.39318561553955 C 3.044307947158813 13.43335628509521 3.150137901306152 13.45337581634521 3.253387928009033 13.45337581634521 M 3.253387928009033 0.4470259249210358 C 3.449947834014893 0.4470259249210358 3.582137823104858 0.6268359422683716 3.582137823104858 0.8941659331321716 L 3.582137823104858 12.55725574493408 C 3.582137823104858 12.82519626617432 3.450387954711914 13.00488567352295 3.253387928009033 13.00488567352295 C 3.204577922821045 13.00488567352295 3.151437997817993 12.99450588226318 3.101327896118164 12.9755859375 L 0.9737279415130615 12.12280559539795 C 0.5512279272079468 11.9658260345459 0.4479879140853882 11.83105564117432 0.4479879140853882 11.43579578399658 L 0.4479879140853882 2.015745878219604 C 0.4479879140853882 1.620485901832581 0.5512279272079468 1.485595941543579 0.9789079427719116 1.326665878295898 L 3.097007989883423 0.4781559407711029 C 3.151437997817993 0.4577659368515015 3.204147815704346 0.4470259249210358 3.253387928009033 0.4470259249210358 M 7.836048126220703 12.55517578125 C 8.453377723693848 12.55517578125 8.955787658691406 12.05236625671387 8.955787658691406 11.4337158203125 L 8.955787658691406 8.070196151733398 C 8.955787658691406 7.946166038513184 8.855567932128906 7.845945835113525 8.73157787322998 7.845945835113525 C 8.608027458190918 7.845945835113525 8.507807731628418 7.946166038513184 8.507807731628418 8.070196151733398 L 8.507807731628418 11.43420600891113 C 8.507807731628418 11.80468559265137 8.206707954406738 12.10669612884521 7.836048126220703 12.10669612884521 L 4.701888084411621 12.10669612884521 C 4.578338146209717 12.10669612884521 4.478107929229736 12.20691585540771 4.478107929229736 12.33093547821045 C 4.478107929229736 12.4545955657959 4.578338146209717 12.55517578125 4.701888084411621 12.55517578125 L 7.836048126220703 12.55517578125 M 10.97063827514648 9.191525459289551 C 11.02809810638428 9.191525459289551 11.08511829376221 9.1695556640625 11.12874794006348 9.125486373901367 L 13.36737823486328 6.883425712585449 C 13.3885383605957 6.862185955047607 13.40452766418457 6.838135719299316 13.41618824005127 6.810425758361816 C 13.43865776062012 6.755615711212158 13.43865776062012 6.693845748901367 13.41618824005127 6.638916015625 C 13.40452766418457 6.611325740814209 13.3885383605957 6.586545944213867 13.36737823486328 6.565916061401367 L 11.12874794006348 4.323366165161133 C 11.08511829376221 4.279541015625 11.02787780761719 4.257628440856934 10.97058391571045 4.257628440856934 C 10.91329002380371 4.257628440856934 10.85594272613525 4.279541015625 10.81209754943848 4.323366165161133 C 10.72482776641846 4.411136150360107 10.72482776641846 4.552855968475342 10.81209754943848 4.640505790710449 L 12.66882801055908 6.500246047973633 L 5.14943790435791 6.500246047973633 C 5.025887966156006 6.500246047973633 4.925667762756348 6.600955963134766 4.925667762756348 6.724365711212158 C 4.925667762756348 6.848395824432373 5.025887966156006 6.94873571395874 5.14943790435791 6.94873571395874 L 12.66882801055908 6.94873571395874 L 10.81209754943848 8.808475494384766 C 10.72482776641846 8.896116256713867 10.72482776641846 9.037845611572266 10.81209754943848 9.125486373901367 C 10.85572814941406 9.1695556640625 10.91318798065186 9.191525459289551 10.97063827514648 9.191525459289551 M 2.910817861557007 7.621706008911133 C 3.03436803817749 7.621706008911133 3.134588003158569 7.521115779876709 3.134588003158569 7.397585868835449 L 3.134588003158569 6.051886081695557 C 3.134588003158569 5.928225994110107 3.03436803817749 5.827635765075684 2.910817861557007 5.827635765075684 C 2.787267923355103 5.827635765075684 2.686607837677002 5.928225994110107 2.686607837677002 6.051886081695557 L 2.686607837677002 7.397585868835449 C 2.686607837677002 7.521115779876709 2.787267923355103 7.621706008911133 2.910817861557007 7.621706008911133 M 8.73157787322998 5.603395938873291 C 8.855567932128906 5.603395938873291 8.955357551574707 5.502686023712158 8.955357551574707 5.379275798797607 L 8.955357551574707 2.015745878219604 C 8.955357551574707 1.397095918655396 8.453377723693848 0.8941659331321716 7.836048126220703 0.8941659331321716 L 4.673808097839355 0.8941659331321716 C 4.550258159637451 0.8941659331321716 4.450027942657471 0.9948759078979492 4.450027942657471 1.118405938148499 C 4.450027942657471 1.242435932159424 4.550258159637451 1.342535972595215 4.673808097839355 1.342535972595215 L 7.836048126220703 1.342535972595215 C 8.206268310546875 1.342535972595215 8.507807731628418 1.644535899162292 8.507807731628418 2.015745878219604 L 8.507807731628418 5.379275798797607 C 8.507807731628418 5.502686023712158 8.608027458190918 5.603395938873291 8.73157787322998 5.603395938873291 M 3.253387928009033 13.65337562561035 C 3.125087976455688 13.65337562561035 2.995317935943604 13.62871551513672 2.867677927017212 13.58007621765137 L 0.7405341267585754 12.72797393798828 C 0.07254855334758759 12.47922039031982 -0.2000020742416382 12.1046781539917 -0.2000020742416382 11.43579578399658 L -0.2000020742416382 2.015745878219604 C -0.2000020742416382 1.346621870994568 0.074205182492733 0.9715859293937683 0.7464193105697632 0.7217551469802856 L 2.860597848892212 -0.1257040649652481 C 2.992568016052246 -0.1755140721797943 3.121958017349243 -0.2000040709972382 3.249047994613647 -0.2000040709972382 C 3.808357954025269 -0.2000040709972382 4.230127811431885 0.2703859210014343 4.230127811431885 0.8941659331321716 L 4.230127811431885 12.55725574493408 C 4.230127811431885 13.19238567352295 3.819347858428955 13.65337562561035 3.253387928009033 13.65337562561035 Z M 3.253387928009033 0.6470259428024292 C 3.229147911071777 0.6470259428024292 3.199337959289551 0.65339595079422 3.167167901992798 0.6654459238052368 L 1.053277969360352 1.512325882911682 C 1.051717877388 1.512945890426636 1.050147891044617 1.513555884361267 1.048577904701233 1.514135956764221 C 0.6800779104232788 1.651075959205627 0.6479879021644592 1.720805883407593 0.6479879021644592 2.015745878219604 L 0.6479879021644592 11.43579578399658 C 0.6479879021644592 11.73063564300537 0.6796679496765137 11.80018615722656 1.043387889862061 11.93532562255859 C 1.044977903366089 11.93591594696045 1.046557903289795 11.93653583526611 1.048137903213501 11.93716621398926 L 3.175737857818604 12.78994560241699 C 3.199587821960449 12.79890632629395 3.229267835617065 12.80488586425781 3.253387928009033 12.80488586425781 C 3.355017900466919 12.80488586425781 3.382138013839722 12.64922618865967 3.382138013839722 12.55725574493408 L 3.382138013839722 0.8941659331321716 C 3.382138013839722 0.8023759126663208 3.355017900466919 0.6470259428024292 3.253387928009033 0.6470259428024292 Z M 7.836048126220703 12.75517559051514 L 4.701888084411621 12.75517559051514 C 4.468217849731445 12.75517559051514 4.2781081199646 12.564866065979 4.2781081199646 12.33093547821045 C 4.2781081199646 12.09700584411621 4.468217849731445 11.90669631958008 4.701888084411621 11.90669631958008 L 7.836048126220703 11.90669631958008 C 8.09617805480957 11.90669631958008 8.307807922363281 11.69473552703857 8.307807922363281 11.43420600891113 L 8.307807922363281 8.070196151733398 C 8.307807922363281 7.836266040802002 8.497907638549805 7.645946025848389 8.73157787322998 7.645946025848389 C 8.965487480163574 7.645946025848389 9.155787467956543 7.836266040802002 9.155787467956543 8.070196151733398 L 9.155787467956543 11.4337158203125 C 9.155787467956543 12.16237640380859 8.56375789642334 12.75517559051514 7.836048126220703 12.75517559051514 Z M 10.97063827514648 9.391526222229004 C 10.85675811767578 9.391526222229004 10.74997806549072 9.347016334533691 10.66996765136719 9.266196250915527 C 10.50585746765137 9.101395606994629 10.50585746765137 8.832566261291504 10.67037773132324 8.667355537414551 L 12.18653202056885 7.148736000061035 L 5.14943790435791 7.148736000061035 C 4.915768146514893 7.148736000061035 4.725667953491211 6.958365917205811 4.725667953491211 6.724365711212158 C 4.725667953491211 6.490505695343018 4.915768146514893 6.300245761871338 5.14943790435791 6.300245761871338 L 12.18653011322021 6.300245761871338 L 10.67055797576904 4.781816005706787 C 10.50594806671143 4.616486072540283 10.50590801239014 4.347655773162842 10.67027759552002 4.182345867156982 C 10.7509183883667 4.10175609588623 10.85740756988525 4.057625770568848 10.97058773040771 4.057625770568848 C 11.08395767211914 4.057625770568848 11.19045829772949 4.101885795593262 11.27047824859619 4.182255744934082 L 13.5089282989502 6.424615859985352 C 13.54643821716309 6.461165904998779 13.57786750793457 6.507715702056885 13.60040760040283 6.561056137084961 C 13.6439380645752 6.667436122894287 13.64391803741455 6.782186031341553 13.60123825073242 6.886285781860352 C 13.57888793945313 6.939425945281982 13.54811763763428 6.985385894775391 13.50906753540039 7.024575710296631 L 11.27027797698975 9.266796112060547 C 11.19086837768555 9.347016334533691 11.08423805236816 9.391526222229004 10.97063827514648 9.391526222229004 Z M 2.910817861557007 7.82170581817627 C 2.676908016204834 7.82170581817627 2.486608028411865 7.63144588470459 2.486608028411865 7.397585868835449 L 2.486608028411865 6.051886081695557 C 2.486608028411865 5.81795597076416 2.676908016204834 5.627635955810547 2.910817861557007 5.627635955810547 C 3.144487857818604 5.627635955810547 3.334587812423706 5.81795597076416 3.334587812423706 6.051886081695557 L 3.334587812423706 7.397585868835449 C 3.334587812423706 7.63144588470459 3.144487857818604 7.82170581817627 2.910817861557007 7.82170581817627 Z M 8.73157787322998 5.803395748138428 C 8.497907638549805 5.803395748138428 8.307807922363281 5.613135814666748 8.307807922363281 5.379275798797607 L 8.307807922363281 2.015745878219604 C 8.307807922363281 1.754815936088562 8.09617805480957 1.542535901069641 7.836048126220703 1.542535901069641 L 4.673808097839355 1.542535901069641 C 4.44013786315918 1.542535901069641 4.250028133392334 1.352275967597961 4.250028133392334 1.118405938148499 C 4.250028133392334 0.8844759464263916 4.44013786315918 0.6941659450531006 4.673808097839355 0.6941659450531006 L 7.836048126220703 0.6941659450531006 C 8.563517570495605 0.6941659450531006 9.15535831451416 1.287025928497314 9.15535831451416 2.015745878219604 L 9.15535831451416 5.379275798797607 C 9.15535831451416 5.613135814666748 8.965248107910156 5.803395748138428 8.73157787322998 5.803395748138428 Z" stroke="none"/>
      </g>
    </g>
  </g>
</svg>
