<svg xmlns="http://www.w3.org/2000/svg" width="30" height="30" viewBox="0 0 30 30">
  <g id="ic_payment" transform="translate(-23 -455)">
    <g id="Ellipse_2_copy_5" data-name="Ellipse 2 copy 5" transform="translate(24 456)" fill="rgba(255,255,255,0)" stroke="#000" stroke-linejoin="round" stroke-width="1">
      <circle cx="14" cy="14" r="14" stroke="none"/>
      <circle cx="14" cy="14" r="14.5" fill="none"/>
    </g>
    <path id="Forma_1" data-name="Forma 1" d="M.741,14A.71.71,0,0,1,0,13.308V5.79A.71.71,0,0,1,.741,5.1H4L6.673.452A1,1,0,0,1,7.938.1l4.575,2.314a.857.857,0,0,1,.38,1.183L11.3,6.347a.717.717,0,0,1,.579.676V9h.307a.277.277,0,0,1,.29.27V11.28a.277.277,0,0,1-.29.27H11.88v1.757a.71.71,0,0,1-.742.692ZM.561,7.023v6.285a.157.157,0,0,0,.163.152h10.4a.157.157,0,0,0,.163-.152V11.551H10.163a.841.841,0,0,1-.868-.811V9.811A.841.841,0,0,1,10.163,9h1.1V7.023a.157.157,0,0,0-.163-.152H.723A.157.157,0,0,0,.561,7.023ZM9.873,9.811v.929a.277.277,0,0,0,.29.27H11.88V9.54H10.163A.277.277,0,0,0,9.873,9.811ZM7.052,6.331h3.58l1.736-3.007a.287.287,0,0,0-.145-.422L9.765,1.651Zm-1.465,0H6.4l2.857-4.95-.615-.3ZM7.2.705,3.942,6.331h.995L8.119.806,7.667.57A.334.334,0,0,0,7.512.533.371.371,0,0,0,7.2.705ZM.561,5.773v.558a.532.532,0,0,1,.163-.017h2.55l.4-.676H.723A.17.17,0,0,0,.561,5.773Zm9.8-1.115-.145-.067a.7.7,0,0,1-.379-.423.668.668,0,0,1,.054-.557l.181-.321A.822.822,0,0,1,11.121,3l.145.068a.732.732,0,0,1,.326.98l-.181.321a.825.825,0,0,1-.687.372A.866.866,0,0,1,10.361,4.658Zm.217-1.115-.181.321A.121.121,0,0,0,10.379,4a.254.254,0,0,0,.09.1l.145.084a.213.213,0,0,0,.272-.067l.181-.321a.251.251,0,0,0-.072-.271l-.145-.068a.173.173,0,0,0-.09-.017A.243.243,0,0,0,10.578,3.543Z" transform="translate(31.5 463)"/>
  </g>
</svg>
