<svg xmlns="http://www.w3.org/2000/svg" width="30" height="30" viewBox="0 0 30 30">
  <g id="ic_privacy" transform="translate(-23 -683)">
    <g id="Ellipse_2_copy_9" data-name="Ellipse 2 copy 9" transform="translate(24 684)" fill="rgba(255,255,255,0)" stroke="#000" stroke-linejoin="round" stroke-width="1">
      <circle cx="14" cy="14" r="14" stroke="none"/>
      <circle cx="14" cy="14" r="14.5" fill="none"/>
    </g>
    <g id="_39" data-name="39" transform="translate(33 692)">
      <g id="_39-2" data-name="39" stroke-linejoin="round">
        <path d="M 10.10000038146973 12.10000038146973 L 10 12.10000038146973 L 0 12.10000038146973 L -0.1000000014901161 12.10000038146973 L -0.1000000014901161 12 L -0.1000000014901161 -8.881784197001252e-16 L -0.1000000014901161 -0.1000000014901161 L 0 -0.1000000014901161 L 6.961490154266357 -0.1000000014901161 L 6.999869823455811 -0.1000000014901161 L 7.028389930725098 -0.07433000206947327 L 10.0669002532959 2.660530090332031 L 10.10000038146973 2.690330028533936 L 10.10000038146973 2.734859943389893 L 10.10000038146973 12 L 10.10000038146973 12.10000038146973 Z M 0.5166000127792358 11.52488040924072 L 9.483409881591797 11.52488040924072 L 9.483409881591797 3.09987998008728 L 6.666820049285889 3.09987998008728 L 6.56682014465332 3.09987998008728 L 6.56682014465332 2.999880075454712 L 6.56682014465332 0.4751200079917908 L 0.5166000127792358 0.4751200079917908 L 0.5166000127792358 11.52488040924072 Z M 7.183410167694092 2.52482008934021 L 9.027873992919922 2.52482008934021 L 7.183410167694092 0.8648552298545837 L 7.183410167694092 2.52482008934021 Z M 8.018389701843262 10.41104030609131 L 7.918389797210693 10.41104030609131 L 2.084759950637817 10.41104030609131 L 1.984760046005249 10.41104030609131 L 1.984760046005249 10.31103992462158 L 1.984760046005249 9.937190055847168 L 1.984760046005249 9.837189674377441 L 2.084759950637817 9.837189674377441 L 7.918389797210693 9.837189674377441 L 8.018389701843262 9.837189674377441 L 8.018389701843262 9.937190055847168 L 8.018389701843262 10.31103992462158 L 8.018389701843262 10.41104030609131 Z M 8.018389701843262 8.536829948425293 L 7.918389797210693 8.536829948425293 L 2.084759950637817 8.536829948425293 L 1.984760046005249 8.536829948425293 L 1.984760046005249 8.436829566955566 L 1.984760046005249 8.062990188598633 L 1.984760046005249 7.962989807128906 L 2.084759950637817 7.962989807128906 L 7.918389797210693 7.962989807128906 L 8.018389701843262 7.962989807128906 L 8.018389701843262 8.062990188598633 L 8.018389701843262 8.436829566955566 L 8.018389701843262 8.536829948425293 Z M 8.018389701843262 6.663050174713135 L 7.918389797210693 6.663050174713135 L 2.084759950637817 6.663050174713135 L 1.984760046005249 6.663050174713135 L 1.984760046005249 6.563049793243408 L 1.984760046005249 6.189209938049316 L 1.984760046005249 6.089210033416748 L 2.084759950637817 6.089210033416748 L 7.918389797210693 6.089210033416748 L 8.018389701843262 6.089210033416748 L 8.018389701843262 6.189209938049316 L 8.018389701843262 6.563049793243408 L 8.018389701843262 6.663050174713135 Z M 8.018389701843262 4.784689903259277 L 7.918389797210693 4.784689903259277 L 2.084759950637817 4.784689903259277 L 1.984760046005249 4.784689903259277 L 1.984760046005249 4.684689998626709 L 1.984760046005249 4.310850143432617 L 1.984760046005249 4.210849761962891 L 2.084759950637817 4.210849761962891 L 7.918389797210693 4.210849761962891 L 8.018389701843262 4.210849761962891 L 8.018389701843262 4.310850143432617 L 8.018389701843262 4.684689998626709 L 8.018389701843262 4.784689903259277 Z M 5.104050159454346 2.91090989112854 L 5.004049777984619 2.91090989112854 L 2.084759950637817 2.91090989112854 L 1.984760046005249 2.91090989112854 L 1.984760046005249 2.810909986495972 L 1.984760046005249 2.437069892883301 L 1.984760046005249 2.337069988250732 L 2.084759950637817 2.337069988250732 L 5.004049777984619 2.337069988250732 L 5.104050159454346 2.337069988250732 L 5.104050159454346 2.437069892883301 L 5.104050159454346 2.810909986495972 L 5.104050159454346 2.91090989112854 Z" stroke="none"/>
        <path d="M 10 12 L 10 2.734859943389893 L 6.961490154266357 -8.881784197001252e-16 L 0 -8.881784197001252e-16 L 0 12 L 10 12 M 0.4165999889373779 0.3751200139522552 L 6.666820049285889 0.3751200139522552 L 6.666820049285889 2.999880075454712 L 9.583410263061523 2.999880075454712 L 9.583410263061523 11.62487983703613 L 0.4165999889373779 11.62487983703613 L 0.4165999889373779 0.3751200139522552 M 7.083409786224365 0.6403200030326843 L 9.288479804992676 2.624819993972778 L 7.083409786224365 2.624819993972778 L 7.083409786224365 0.6403200030326843 M 7.918389797210693 10.31103992462158 L 7.918389797210693 9.937190055847168 L 2.084759950637817 9.937190055847168 L 2.084759950637817 10.31103992462158 L 7.918389797210693 10.31103992462158 M 7.918389797210693 8.436829566955566 L 7.918389797210693 8.062990188598633 L 2.084759950637817 8.062990188598633 L 2.084759950637817 8.436829566955566 L 7.918389797210693 8.436829566955566 M 7.918389797210693 6.563049793243408 L 7.918389797210693 6.189209938049316 L 2.084759950637817 6.189209938049316 L 2.084759950637817 6.563049793243408 L 7.918389797210693 6.563049793243408 M 7.918389797210693 4.684689998626709 L 7.918389797210693 4.310850143432617 L 2.084759950637817 4.310850143432617 L 2.084759950637817 4.684689998626709 L 7.918389797210693 4.684689998626709 M 5.004049777984619 2.810909986495972 L 5.004049777984619 2.437069892883301 L 2.084759950637817 2.437069892883301 L 2.084759950637817 2.810909986495972 L 5.004049777984619 2.810909986495972 M 10 12.19999980926514 L 0 12.19999980926514 C -0.1104599982500076 12.19999980926514 -0.2000000029802322 12.11046028137207 -0.2000000029802322 12 L -0.2000000029802322 -8.881784197001252e-16 C -0.2000000029802322 -0.1104599982500076 -0.1104599982500076 -0.2000000029802322 0 -0.2000000029802322 L 6.961490154266357 -0.2000000029802322 C 7.010900020599365 -0.2000000029802322 7.058559894561768 -0.1817100048065186 7.095290184020996 -0.1486500054597855 L 10.13379955291748 2.586210012435913 C 10.17593955993652 2.624130010604858 10.19999980926514 2.678169965744019 10.19999980926514 2.734859943389893 L 10.19999980926514 12 C 10.19999980926514 12.11046028137207 10.11046028137207 12.19999980926514 10 12.19999980926514 Z M 0.616599977016449 11.424880027771 L 9.383410453796387 11.424880027771 L 9.383410453796387 3.199879884719849 L 6.666820049285889 3.199879884719849 C 6.556359767913818 3.199879884719849 6.466819763183594 3.110340118408203 6.466819763183594 2.999880075454712 L 6.466819763183594 0.5751199722290039 L 0.616599977016449 0.5751199722290039 L 0.616599977016449 11.424880027771 Z M 7.28341007232666 2.424819946289063 L 8.767277717590332 2.424819946289063 L 7.28341007232666 1.089381456375122 L 7.28341007232666 2.424819946289063 Z M 7.918389797210693 10.51103973388672 L 2.084759950637817 10.51103973388672 C 1.974300026893616 10.51103973388672 1.884760022163391 10.42150020599365 1.884760022163391 10.31103992462158 L 1.884760022163391 9.937190055847168 C 1.884760022163391 9.826729774475098 1.974300026893616 9.737190246582031 2.084759950637817 9.737190246582031 L 7.918389797210693 9.737190246582031 C 8.028849601745605 9.737190246582031 8.118390083312988 9.826729774475098 8.118390083312988 9.937190055847168 L 8.118390083312988 10.31103992462158 C 8.118390083312988 10.42150020599365 8.028849601745605 10.51103973388672 7.918389797210693 10.51103973388672 Z M 7.918389797210693 8.63683032989502 L 2.084759950637817 8.63683032989502 C 1.974300026893616 8.63683032989502 1.884760022163391 8.547289848327637 1.884760022163391 8.436829566955566 L 1.884760022163391 8.062990188598633 C 1.884760022163391 7.952529907226563 1.974300026893616 7.862989902496338 2.084759950637817 7.862989902496338 L 7.918389797210693 7.862989902496338 C 8.028849601745605 7.862989902496338 8.118390083312988 7.952529907226563 8.118390083312988 8.062990188598633 L 8.118390083312988 8.436829566955566 C 8.118390083312988 8.547289848327637 8.028849601745605 8.63683032989502 7.918389797210693 8.63683032989502 Z M 7.918389797210693 6.763050079345703 L 2.084759950637817 6.763050079345703 C 1.974300026893616 6.763050079345703 1.884760022163391 6.673510074615479 1.884760022163391 6.563049793243408 L 1.884760022163391 6.189209938049316 C 1.884760022163391 6.078750133514404 1.974300026893616 5.98921012878418 2.084759950637817 5.98921012878418 L 7.918389797210693 5.98921012878418 C 8.028849601745605 5.98921012878418 8.118390083312988 6.078750133514404 8.118390083312988 6.189209938049316 L 8.118390083312988 6.563049793243408 C 8.118390083312988 6.673510074615479 8.028849601745605 6.763050079345703 7.918389797210693 6.763050079345703 Z M 7.918389797210693 4.884689807891846 L 2.084759950637817 4.884689807891846 C 1.974300026893616 4.884689807891846 1.884760022163391 4.795149803161621 1.884760022163391 4.684689998626709 L 1.884760022163391 4.310850143432617 C 1.884760022163391 4.200389862060547 1.974300026893616 4.110849857330322 2.084759950637817 4.110849857330322 L 7.918389797210693 4.110849857330322 C 8.028849601745605 4.110849857330322 8.118390083312988 4.200389862060547 8.118390083312988 4.310850143432617 L 8.118390083312988 4.684689998626709 C 8.118390083312988 4.795149803161621 8.028849601745605 4.884689807891846 7.918389797210693 4.884689807891846 Z M 5.004049777984619 3.010910034179688 L 2.084759950637817 3.010910034179688 C 1.974300026893616 3.010910034179688 1.884760022163391 2.921370029449463 1.884760022163391 2.810909986495972 L 1.884760022163391 2.437069892883301 C 1.884760022163391 2.326610088348389 1.974300026893616 2.237070083618164 2.084759950637817 2.237070083618164 L 5.004049777984619 2.237070083618164 C 5.114510059356689 2.237070083618164 5.204050064086914 2.326610088348389 5.204050064086914 2.437069892883301 L 5.204050064086914 2.810909986495972 C 5.204050064086914 2.921370029449463 5.114510059356689 3.010910034179688 5.004049777984619 3.010910034179688 Z" stroke="none"/>
      </g>
      <g id="Stroke_Effect" data-name="Stroke Effect" fill="rgba(0,0,0,0)" stroke-linejoin="round" opacity="0.41">
        <path d="M 10.10000038146973 12.10000038146973 L 10 12.10000038146973 L 0 12.10000038146973 L -0.1000000014901161 12.10000038146973 L -0.1000000014901161 12 L -0.1000000014901161 -8.881784197001252e-16 L -0.1000000014901161 -0.1000000014901161 L 0 -0.1000000014901161 L 6.961490154266357 -0.1000000014901161 L 6.999869823455811 -0.1000000014901161 L 7.028389930725098 -0.07433000206947327 L 10.0669002532959 2.660530090332031 L 10.10000038146973 2.690330028533936 L 10.10000038146973 2.734859943389893 L 10.10000038146973 12 L 10.10000038146973 12.10000038146973 Z M 0.5166000127792358 11.52488040924072 L 9.483409881591797 11.52488040924072 L 9.483409881591797 3.09987998008728 L 6.666820049285889 3.09987998008728 L 6.56682014465332 3.09987998008728 L 6.56682014465332 2.999880075454712 L 6.56682014465332 0.4751200079917908 L 0.5166000127792358 0.4751200079917908 L 0.5166000127792358 11.52488040924072 Z M 7.183410167694092 2.52482008934021 L 9.027873992919922 2.52482008934021 L 7.183410167694092 0.8648552298545837 L 7.183410167694092 2.52482008934021 Z M 8.018389701843262 10.41104030609131 L 7.918389797210693 10.41104030609131 L 2.084759950637817 10.41104030609131 L 1.984760046005249 10.41104030609131 L 1.984760046005249 10.31103992462158 L 1.984760046005249 9.937190055847168 L 1.984760046005249 9.837189674377441 L 2.084759950637817 9.837189674377441 L 7.918389797210693 9.837189674377441 L 8.018389701843262 9.837189674377441 L 8.018389701843262 9.937190055847168 L 8.018389701843262 10.31103992462158 L 8.018389701843262 10.41104030609131 Z M 8.018389701843262 8.536829948425293 L 7.918389797210693 8.536829948425293 L 2.084759950637817 8.536829948425293 L 1.984760046005249 8.536829948425293 L 1.984760046005249 8.436829566955566 L 1.984760046005249 8.062990188598633 L 1.984760046005249 7.962989807128906 L 2.084759950637817 7.962989807128906 L 7.918389797210693 7.962989807128906 L 8.018389701843262 7.962989807128906 L 8.018389701843262 8.062990188598633 L 8.018389701843262 8.436829566955566 L 8.018389701843262 8.536829948425293 Z M 8.018389701843262 6.663050174713135 L 7.918389797210693 6.663050174713135 L 2.084759950637817 6.663050174713135 L 1.984760046005249 6.663050174713135 L 1.984760046005249 6.563049793243408 L 1.984760046005249 6.189209938049316 L 1.984760046005249 6.089210033416748 L 2.084759950637817 6.089210033416748 L 7.918389797210693 6.089210033416748 L 8.018389701843262 6.089210033416748 L 8.018389701843262 6.189209938049316 L 8.018389701843262 6.563049793243408 L 8.018389701843262 6.663050174713135 Z M 8.018389701843262 4.784689903259277 L 7.918389797210693 4.784689903259277 L 2.084759950637817 4.784689903259277 L 1.984760046005249 4.784689903259277 L 1.984760046005249 4.684689998626709 L 1.984760046005249 4.310850143432617 L 1.984760046005249 4.210849761962891 L 2.084759950637817 4.210849761962891 L 7.918389797210693 4.210849761962891 L 8.018389701843262 4.210849761962891 L 8.018389701843262 4.310850143432617 L 8.018389701843262 4.684689998626709 L 8.018389701843262 4.784689903259277 Z M 5.104050159454346 2.91090989112854 L 5.004049777984619 2.91090989112854 L 2.084759950637817 2.91090989112854 L 1.984760046005249 2.91090989112854 L 1.984760046005249 2.810909986495972 L 1.984760046005249 2.437069892883301 L 1.984760046005249 2.337069988250732 L 2.084759950637817 2.337069988250732 L 5.004049777984619 2.337069988250732 L 5.104050159454346 2.337069988250732 L 5.104050159454346 2.437069892883301 L 5.104050159454346 2.810909986495972 L 5.104050159454346 2.91090989112854 Z" stroke="none"/>
        <path d="M 10 12 L 10 2.734859943389893 L 6.961490154266357 -8.881784197001252e-16 L 0 -8.881784197001252e-16 L 0 12 L 10 12 M 0.4165999889373779 0.3751200139522552 L 6.666820049285889 0.3751200139522552 L 6.666820049285889 2.999880075454712 L 9.583410263061523 2.999880075454712 L 9.583410263061523 11.62487983703613 L 0.4165999889373779 11.62487983703613 L 0.4165999889373779 0.3751200139522552 M 7.083409786224365 0.6403200030326843 L 9.288479804992676 2.624819993972778 L 7.083409786224365 2.624819993972778 L 7.083409786224365 0.6403200030326843 M 7.918389797210693 10.31103992462158 L 7.918389797210693 9.937190055847168 L 2.084759950637817 9.937190055847168 L 2.084759950637817 10.31103992462158 L 7.918389797210693 10.31103992462158 M 7.918389797210693 8.436829566955566 L 7.918389797210693 8.062990188598633 L 2.084759950637817 8.062990188598633 L 2.084759950637817 8.436829566955566 L 7.918389797210693 8.436829566955566 M 7.918389797210693 6.563049793243408 L 7.918389797210693 6.189209938049316 L 2.084759950637817 6.189209938049316 L 2.084759950637817 6.563049793243408 L 7.918389797210693 6.563049793243408 M 7.918389797210693 4.684689998626709 L 7.918389797210693 4.310850143432617 L 2.084759950637817 4.310850143432617 L 2.084759950637817 4.684689998626709 L 7.918389797210693 4.684689998626709 M 5.004049777984619 2.810909986495972 L 5.004049777984619 2.437069892883301 L 2.084759950637817 2.437069892883301 L 2.084759950637817 2.810909986495972 L 5.004049777984619 2.810909986495972 M 10 12.19999980926514 L 0 12.19999980926514 C -0.1104599982500076 12.19999980926514 -0.2000000029802322 12.11046028137207 -0.2000000029802322 12 L -0.2000000029802322 -8.881784197001252e-16 C -0.2000000029802322 -0.1104599982500076 -0.1104599982500076 -0.2000000029802322 0 -0.2000000029802322 L 6.961490154266357 -0.2000000029802322 C 7.010900020599365 -0.2000000029802322 7.058559894561768 -0.1817100048065186 7.095290184020996 -0.1486500054597855 L 10.13379955291748 2.586210012435913 C 10.17593955993652 2.624130010604858 10.19999980926514 2.678169965744019 10.19999980926514 2.734859943389893 L 10.19999980926514 12 C 10.19999980926514 12.11046028137207 10.11046028137207 12.19999980926514 10 12.19999980926514 Z M 0.616599977016449 11.424880027771 L 9.383410453796387 11.424880027771 L 9.383410453796387 3.199879884719849 L 6.666820049285889 3.199879884719849 C 6.556359767913818 3.199879884719849 6.466819763183594 3.110340118408203 6.466819763183594 2.999880075454712 L 6.466819763183594 0.5751199722290039 L 0.616599977016449 0.5751199722290039 L 0.616599977016449 11.424880027771 Z M 7.28341007232666 2.424819946289063 L 8.767277717590332 2.424819946289063 L 7.28341007232666 1.089381456375122 L 7.28341007232666 2.424819946289063 Z M 7.918389797210693 10.51103973388672 L 2.084759950637817 10.51103973388672 C 1.974300026893616 10.51103973388672 1.884760022163391 10.42150020599365 1.884760022163391 10.31103992462158 L 1.884760022163391 9.937190055847168 C 1.884760022163391 9.826729774475098 1.974300026893616 9.737190246582031 2.084759950637817 9.737190246582031 L 7.918389797210693 9.737190246582031 C 8.028849601745605 9.737190246582031 8.118390083312988 9.826729774475098 8.118390083312988 9.937190055847168 L 8.118390083312988 10.31103992462158 C 8.118390083312988 10.42150020599365 8.028849601745605 10.51103973388672 7.918389797210693 10.51103973388672 Z M 7.918389797210693 8.63683032989502 L 2.084759950637817 8.63683032989502 C 1.974300026893616 8.63683032989502 1.884760022163391 8.547289848327637 1.884760022163391 8.436829566955566 L 1.884760022163391 8.062990188598633 C 1.884760022163391 7.952529907226563 1.974300026893616 7.862989902496338 2.084759950637817 7.862989902496338 L 7.918389797210693 7.862989902496338 C 8.028849601745605 7.862989902496338 8.118390083312988 7.952529907226563 8.118390083312988 8.062990188598633 L 8.118390083312988 8.436829566955566 C 8.118390083312988 8.547289848327637 8.028849601745605 8.63683032989502 7.918389797210693 8.63683032989502 Z M 7.918389797210693 6.763050079345703 L 2.084759950637817 6.763050079345703 C 1.974300026893616 6.763050079345703 1.884760022163391 6.673510074615479 1.884760022163391 6.563049793243408 L 1.884760022163391 6.189209938049316 C 1.884760022163391 6.078750133514404 1.974300026893616 5.98921012878418 2.084759950637817 5.98921012878418 L 7.918389797210693 5.98921012878418 C 8.028849601745605 5.98921012878418 8.118390083312988 6.078750133514404 8.118390083312988 6.189209938049316 L 8.118390083312988 6.563049793243408 C 8.118390083312988 6.673510074615479 8.028849601745605 6.763050079345703 7.918389797210693 6.763050079345703 Z M 7.918389797210693 4.884689807891846 L 2.084759950637817 4.884689807891846 C 1.974300026893616 4.884689807891846 1.884760022163391 4.795149803161621 1.884760022163391 4.684689998626709 L 1.884760022163391 4.310850143432617 C 1.884760022163391 4.200389862060547 1.974300026893616 4.110849857330322 2.084759950637817 4.110849857330322 L 7.918389797210693 4.110849857330322 C 8.028849601745605 4.110849857330322 8.118390083312988 4.200389862060547 8.118390083312988 4.310850143432617 L 8.118390083312988 4.684689998626709 C 8.118390083312988 4.795149803161621 8.028849601745605 4.884689807891846 7.918389797210693 4.884689807891846 Z M 5.004049777984619 3.010910034179688 L 2.084759950637817 3.010910034179688 C 1.974300026893616 3.010910034179688 1.884760022163391 2.921370029449463 1.884760022163391 2.810909986495972 L 1.884760022163391 2.437069892883301 C 1.884760022163391 2.326610088348389 1.974300026893616 2.237070083618164 2.084759950637817 2.237070083618164 L 5.004049777984619 2.237070083618164 C 5.114510059356689 2.237070083618164 5.204050064086914 2.326610088348389 5.204050064086914 2.437069892883301 L 5.204050064086914 2.810909986495972 C 5.204050064086914 2.921370029449463 5.114510059356689 3.010910034179688 5.004049777984619 3.010910034179688 Z" stroke="none"/>
      </g>
    </g>
  </g>
</svg>
