<svg xmlns="http://www.w3.org/2000/svg" width="30" height="30" viewBox="0 0 30 30">
  <g id="ic_personal_info" transform="translate(-23 -89)">
    <path id="male-user_copy" data-name="male-user copy" d="M79.25,239H68.75a.751.751,0,0,1-.75-.75v-.75a.375.375,0,0,1,.2-.329l3.671-2a5.31,5.31,0,0,1-1.243-3.3l0-2.248a.386.386,0,0,1,.005-.062A3.467,3.467,0,0,1,74,227h0a3.467,3.467,0,0,1,3.368,2.56.4.4,0,0,1,.005.063v2.248a5.31,5.31,0,0,1-1.243,3.3l3.671,2a.375.375,0,0,1,.2.329v.751A.751.751,0,0,1,79.25,239Zm0-.75v0Zm-10.5-.527v.527h10.5v-.527l-3.929-2.144a.375.375,0,0,1-.057-.62,4.383,4.383,0,0,0,1.363-3.087v-2.215a2.759,2.759,0,0,0-5.249,0l0,2.215a4.412,4.412,0,0,0,1.363,3.087.375.375,0,0,1-.057.62Z" transform="translate(-35.36 -129)"/>
    <g id="Ellipse_2_copy_2" data-name="Ellipse 2 copy 2" transform="translate(24 90)" fill="none" stroke="#000" stroke-linejoin="round" stroke-width="1">
      <circle cx="14" cy="14" r="14" stroke="none"/>
      <circle cx="14" cy="14" r="14.5" fill="none"/>
    </g>
  </g>
</svg>
