<svg xmlns="http://www.w3.org/2000/svg" width="30" height="30" viewBox="0 0 30 30">
  <g id="ic_report_bug" transform="translate(-23 -835)">
    <g id="Ellipse_2_copy_12" data-name="Ellipse 2 copy 12" transform="translate(24 836)" fill="rgba(255,255,255,0)" stroke="#000" stroke-linejoin="round" stroke-width="1">
      <circle cx="14" cy="14" r="14" stroke="none"/>
      <circle cx="14" cy="14" r="14.5" fill="none"/>
    </g>
    <path id="Forma_1" data-name="Forma 1" d="M80.052,2005.871H77.726v-.805a2.457,2.457,0,0,0,2.068-2.422v-.516a.388.388,0,0,0-.775,0v.516a1.681,1.681,0,0,1-1.292,1.633v-.342a.647.647,0,0,0-.646-.646h-.388v-1.42a1.681,1.681,0,0,0-1.356-1.647l.289-.649a.388.388,0,0,0-.709-.314l-.415.932H72.938l-.415-.932a.388.388,0,0,0-.709.314l.289.649a1.681,1.681,0,0,0-1.356,1.647v1.42H70.36a.646.646,0,0,0-.646.645v.342a1.681,1.681,0,0,1-1.292-1.633v-.516a.388.388,0,0,0-.775,0v.516a2.457,2.457,0,0,0,2.068,2.422v.805H67.388a.387.387,0,1,0,0,.775h2.326v.805a2.457,2.457,0,0,0-2.068,2.422v.516a.388.388,0,0,0,.775,0v-.516a1.681,1.681,0,0,1,1.292-1.633v.213a4.006,4.006,0,0,0,8.012,0v-.213a1.681,1.681,0,0,1,1.292,1.633v.516a.388.388,0,0,0,.775,0v-.516a2.457,2.457,0,0,0-2.068-2.422v-.805h2.326a.387.387,0,1,0,0-.775Zm-8.529-4a.905.905,0,0,1,.9-.9h2.585a.905.905,0,0,1,.9.9v1.42H71.523Zm5.428,6.584a3.231,3.231,0,0,1-6.462,0v-4.389h2.843v3.744a.388.388,0,0,0,.775,0v-3.744h2.843Z" transform="translate(-36 -1156.029)"/>
  </g>
</svg>
