<svg xmlns="http://www.w3.org/2000/svg" width="30" height="30" viewBox="0 0 30 30">
  <g id="ic_refer_friend" transform="translate(-23 -913)">
    <g id="Ellipse_2_copy_8" data-name="Ellipse 2 copy 8" transform="translate(24 914)" fill="rgba(255,255,255,0)" stroke="#000" stroke-linejoin="round" stroke-width="1">
      <circle cx="14" cy="14" r="14" stroke="none"/>
      <circle cx="14" cy="14" r="14.5" fill="none"/>
    </g>
    <path id="Icon_awesome-user-friends" data-name="Icon awesome-user-friends" d="M4.865,7.926A2.838,2.838,0,1,0,2.027,5.088,2.837,2.837,0,0,0,4.865,7.926Zm1.946.811H6.6a3.918,3.918,0,0,1-3.472,0h-.21A2.92,2.92,0,0,0,0,11.656v.73A1.217,1.217,0,0,0,1.216,13.6h7.3a1.217,1.217,0,0,0,1.216-1.216v-.73A2.92,2.92,0,0,0,6.812,8.737Zm5.352-.811A2.433,2.433,0,1,0,9.731,5.494,2.433,2.433,0,0,0,12.164,7.926Zm1.216.811h-.1a3.2,3.2,0,0,1-2.24,0h-.1a2.815,2.815,0,0,0-1.411.39,3.708,3.708,0,0,1,1.006,2.529v.973c0,.056-.013.109-.015.162H15a1.217,1.217,0,0,0,1.216-1.216A2.837,2.837,0,0,0,13.38,8.737Z" transform="translate(29.5 920.25)" fill="none" stroke="#000" stroke-width="1"/>
  </g>
</svg>
