<svg xmlns="http://www.w3.org/2000/svg" width="30" height="30" viewBox="0 0 30 30">
  <g id="ic_swimpackage" transform="translate(-22 -224)">
    <g id="Ellipse_2_copy_13" data-name="Ellipse 2 copy 13" transform="translate(23 225)" fill="rgba(255,255,255,0)" stroke="#000" stroke-linejoin="round" stroke-width="1">
      <circle cx="14" cy="14" r="14" stroke="none"/>
      <circle cx="14" cy="14" r="14.5" fill="none"/>
    </g>
    <g id="_24" data-name="24" transform="translate(29.678 232.877)">
      <path id="_24-2" data-name="24" d="M0,11.085V0L7,.915,14,0V11.085L7,12Zm.438-.39,6.345.829V1.334L.438.5Zm6.784.829,6.34-.829V.5L11.375.79V5.265l-1.094-.554-1.094.554V1.076l-1.965.257Zm3.715-6.976V.847l-1.313.172V4.548l.656-.332ZM8.29,9.34,12.446,8.9l.046.441-4.156.443Zm-6.781,0L1.554,8.9,5.71,9.34l-.046.441ZM8.29,7.123l4.156-.443.046.441-4.156.443Zm-6.781,0,.046-.441,4.156.443-.046.441Zm0-2.216.046-.441,4.156.443-.046.441Zm0-2.216.046-.441,4.156.444-.046.441Z" transform="translate(0.322 0.123)"/>
      <path id="Stroke_Effect" data-name="Stroke Effect" d="M0,11.085V0L7,.915,14,0V11.085L7,12Zm.438-.39,6.345.829V1.334L.438.5Zm6.784.829,6.34-.829V.5L11.375.79V5.265l-1.094-.554-1.094.554V1.076l-1.965.257Zm3.715-6.976V.847l-1.313.172V4.548l.656-.332ZM8.29,9.34,12.446,8.9l.046.441-4.156.443Zm-6.781,0L1.554,8.9,5.71,9.34l-.046.441ZM8.29,7.123l4.156-.443.046.441-4.156.443Zm-6.781,0,.046-.441,4.156.443-.046.441Zm0-2.216.046-.441,4.156.443-.046.441Zm0-2.216.046-.441,4.156.444-.046.441Z" transform="translate(0.322 0.123)" fill="rgba(0,0,0,0)" opacity="0.27"/>
    </g>
  </g>
</svg>
