<svg xmlns="http://www.w3.org/2000/svg" width="30" height="30" viewBox="0 0 30 30">
  <g id="ic_Swimmer" transform="translate(-23 -161)">
    <g id="Ellipse_2_copy_3" data-name="Ellipse 2 copy 3" transform="translate(24 162)" fill="rgba(255,255,255,0)" stroke="#000" stroke-linejoin="round" stroke-width="1">
      <circle cx="14" cy="14" r="14" stroke="none"/>
      <circle cx="14" cy="14" r="14.5" fill="none"/>
    </g>
    <path id="Forma_1" data-name="Forma 1" d="M6.5,15a5.116,5.116,0,0,1-3.715-1.6,5.483,5.483,0,0,1-1.446-2.854,1.575,1.575,0,0,1-.086-3.1V4.628a.92.92,0,0,0-.179.14.462.462,0,0,1-.588.062.49.49,0,0,1-.2-.572L.421,3.85a2.164,2.164,0,0,1,.315-.61A3.483,3.483,0,0,1,3.6.249,6.7,6.7,0,0,1,7.649.386l1.73.6a1.735,1.735,0,0,1,1.574.2,1.836,1.836,0,0,1,.8,1.522V7.444a1.575,1.575,0,0,1-.077,3.1,5.4,5.4,0,0,1-1.46,2.88A5.145,5.145,0,0,1,6.5,15ZM1.8,9.558A4.942,4.942,0,0,0,3.177,13,4.577,4.577,0,0,0,6.5,14.434h0a4.6,4.6,0,0,0,3.321-1.413A4.856,4.856,0,0,0,11.2,9.612V6.984A2.382,2.382,0,0,1,9.134,4.6V3.833A5.351,5.351,0,0,1,6.227,5.458a5.277,5.277,0,0,1-3.974-.806.941.941,0,0,0-.45-.157ZM.551,8.987a1,1,0,0,0,.715.966c-.009-.131-.013-.263-.013-.395V8.025A1,1,0,0,0,.551,8.987Zm11.2.625c0,.114,0,.228-.01.341a1.01,1.01,0,0,0,.01-1.927ZM9.662,1.491,9.685,4.6A1.824,1.824,0,0,0,11.2,6.414v-3.7a1.25,1.25,0,0,0-.55-1.051,1.178,1.178,0,0,0-.985-.171ZM2.554,4.178a4.742,4.742,0,0,0,3.57.724A4.83,4.83,0,0,0,9.133,2.955L9.111,1.493,7.472.922A6.156,6.156,0,0,0,3.75.794,3.148,3.148,0,0,0,1.435,2.633c.048-.025.1-.05.146-.071a2.046,2.046,0,0,1,1.708.027A1.524,1.524,0,0,0,5.1,2.2l.068-.079A.271.271,0,0,1,5.554,2.1a.289.289,0,0,1,.024.4l-.069.079A2.068,2.068,0,0,1,3.057,3.1,1.508,1.508,0,0,0,1.8,3.082a1.57,1.57,0,0,0-.855.949L.89,4.193a1.461,1.461,0,0,1,1.665-.016Zm.7,7.446a.289.289,0,0,1,0-.4.271.271,0,0,1,.39,0,3.961,3.961,0,0,0,5.7,0,.271.271,0,0,1,.39,0,.289.289,0,0,1,0,.4,4.5,4.5,0,0,1-6.481,0ZM9.708,8.834a.5.5,0,0,0-.712,0,.271.271,0,0,1-.39,0,.288.288,0,0,1,0-.4,1.036,1.036,0,0,1,1.491,0,.288.288,0,0,1,0,.4.27.27,0,0,1-.389,0Zm-5.7,0a.495.495,0,0,0-.712,0,.27.27,0,0,1-.389,0,.288.288,0,0,1,0-.4,1.035,1.035,0,0,1,1.491,0,.288.288,0,0,1,0,.4.27.27,0,0,1-.39,0Z" transform="translate(31.5 169)"/>
  </g>
</svg>
