<svg xmlns="http://www.w3.org/2000/svg" width="32" height="32" viewBox="0 0 32 32"><defs><style>.a{fill:none;}.b{fill:rgba(0,0,0,0);opacity:0.27;}.c,.d{stroke:none;}</style></defs><g transform="translate(-22 -304)"><g class="a" transform="translate(24 306)"><path class="c" d="M14,0A14,14,0,1,1,0,14,14,14,0,0,1,14,0Z"/><path class="d" d="M 14 0 C 6.268009185791016 0 0 6.268009185791016 0 14 C 0 21.73199081420898 6.268009185791016 28 14 28 C 21.73199081420898 28 28 21.73199081420898 28 14 C 28 6.268009185791016 21.73199081420898 0 14 0 M 14 -2 C 16.15911102294922 -2 18.25469017028809 -1.576690673828125 20.22854042053223 -0.7418193817138672 C 22.13404083251953 0.06414031982421875 23.84494018554688 1.217519760131836 25.3137092590332 2.686290740966797 C 26.78248023986816 4.155059814453125 27.93585968017578 5.865959167480469 28.74181938171387 7.771459579467773 C 29.57669067382813 9.745309829711914 30 11.84089088439941 30 14 C 30 16.15911102294922 29.57669067382813 18.25469017028809 28.74181938171387 20.22854042053223 C 27.93585968017578 22.13404083251953 26.78248023986816 23.84494018554688 25.3137092590332 25.3137092590332 C 23.84494018554688 26.78248023986816 22.13404083251953 27.93585968017578 20.22854042053223 28.74181938171387 C 18.25469017028809 29.57669067382813 16.15911102294922 30 14 30 C 11.84089088439941 30 9.745309829711914 29.57669067382813 7.771459579467773 28.74181938171387 C 5.865959167480469 27.93585968017578 4.155059814453125 26.78248023986816 2.686290740966797 25.3137092590332 C 1.217519760131836 23.84494018554688 0.06414031982421875 22.13404083251953 -0.7418193817138672 20.22854042053223 C -1.576690673828125 18.25469017028809 -2 16.15911102294922 -2 14 C -2 11.84089088439941 -1.576690673828125 9.745309829711914 -0.7418193817138672 7.771459579467773 C 0.06414031982421875 5.865959167480469 1.217519760131836 4.155059814453125 2.686290740966797 2.686290740966797 C 4.155059814453125 1.217519760131836 5.865959167480469 0.06414031982421875 7.771459579467773 -0.7418193817138672 C 9.745309829711914 -1.576690673828125 11.84089088439941 -2 14 -2 Z"/></g><g transform="translate(30.678 313.877)"><path d="M0,11.085V0L7,.915,14,0V11.085L7,12Zm.438-.39,6.345.829V1.334L.438.5Zm6.784.829,6.34-.829V.5L11.375.79V5.265l-1.094-.554-1.094.554V1.076l-1.965.257Zm3.715-6.976V.847l-1.313.172V4.548l.656-.332ZM8.29,9.34,12.446,8.9l.046.441-4.156.443Zm-6.781,0L1.554,8.9,5.71,9.34l-.046.441ZM8.29,7.123l4.156-.443.046.441-4.156.443Zm-6.781,0,.046-.441,4.156.443-.046.441Zm0-2.216.046-.441,4.156.443-.046.441Zm0-2.216.046-.441,4.156.444-.046.441Z" transform="translate(0.322 0.123)"/><path class="b" d="M0,11.085V0L7,.915,14,0V11.085L7,12Zm.438-.39,6.345.829V1.334L.438.5Zm6.784.829,6.34-.829V.5L11.375.79V5.265l-1.094-.554-1.094.554V1.076l-1.965.257Zm3.715-6.976V.847l-1.313.172V4.548l.656-.332ZM8.29,9.34,12.446,8.9l.046.441-4.156.443Zm-6.781,0L1.554,8.9,5.71,9.34l-.046.441ZM8.29,7.123l4.156-.443.046.441-4.156.443Zm-6.781,0,.046-.441,4.156.443-.046.441Zm0-2.216.046-.441,4.156.443-.046.441Zm0-2.216.046-.441,4.156.444-.046.441Z" transform="translate(0.322 0.123)"/></g></g></svg>