<svg xmlns="http://www.w3.org/2000/svg" width="30" height="30" viewBox="0 0 30 30">
  <g id="ic_terms_of_services" transform="translate(-23 -758)">
    <g id="Ellipse_2_copy_10" data-name="Ellipse 2 copy 10" transform="translate(24 759)" fill="rgba(255,255,255,0)" stroke="#000" stroke-linejoin="round" stroke-width="1">
      <circle cx="14" cy="14" r="14" stroke="none"/>
      <circle cx="14" cy="14" r="14.5" fill="none"/>
    </g>
    <g id="_37" data-name="37" transform="translate(33 767)">
      <g id="_37-2" data-name="37" stroke-linejoin="round">
        <path d="M 10.10000038146973 13.10000038146973 L 10 13.10000038146973 L 0 13.10000038146973 L -0.1000000014901161 13.10000038146973 L -0.1000000014901161 13 L -0.1000000014901161 1.422000050544739 L -0.1000000014901161 1.322000026702881 L 0 1.322000026702881 L 2.851020812988281 1.322000026702881 L 2.994199991226196 0.7864900231361389 L 3.014029979705811 0.7123200297355652 L 3.090810060501099 0.7123200297355652 L 3.813139915466309 0.7123200297355652 L 3.813139915466309 -8.881784197001252e-16 L 3.813139915466309 -0.1000000014901161 L 3.913140058517456 -0.1000000014901161 L 6.086860179901123 -0.1000000014901161 L 6.186860084533691 -0.1000000014901161 L 6.186860084533691 -8.881784197001252e-16 L 6.186860084533691 0.7123200297355652 L 6.908760070800781 0.7123200297355652 L 6.985519886016846 0.7123200297355652 L 7.005360126495361 0.7864699959754944 L 7.148658752441406 1.322000026702881 L 10 1.322000026702881 L 10.10000038146973 1.322000026702881 L 10.10000038146973 1.422000050544739 L 10.10000038146973 13 L 10.10000038146973 13.10000038146973 Z M 0.5347499847412109 12.49386978149414 L 9.465250015258789 12.49386978149414 L 9.465250015258789 1.928130030632019 L 7.310866355895996 1.928130030632019 L 7.549009799957275 2.818079948425293 L 7.582689762115479 2.94392991065979 L 7.452410221099854 2.94392991065979 L 2.547590017318726 2.94392991065979 L 2.417340040206909 2.94392991065979 L 2.450979948043823 2.818099975585938 L 2.688944816589355 1.928130030632019 L 0.5347499847412109 1.928130030632019 L 0.5347499847412109 12.49386978149414 Z M 3.234834909439087 2.33732008934021 L 6.765165328979492 2.33732008934021 L 6.49245023727417 1.318869948387146 L 5.652120113372803 1.318869948387146 L 5.552120208740234 1.318869948387146 L 5.552120208740234 1.218870043754578 L 5.552120208740234 0.5061299800872803 L 4.447879791259766 0.5061299800872803 L 4.447879791259766 1.218870043754578 L 4.447879791259766 1.318869948387146 L 4.347879886627197 1.318869948387146 L 3.50754976272583 1.318869948387146 L 3.234834909439087 2.33732008934021 Z M 8.363160133361816 11.27560043334961 L 8.26315975189209 11.27560043334961 L 3.480109930038452 11.27560043334961 L 3.380110025405884 11.27560043334961 L 3.380110025405884 11.17560005187988 L 3.380110025405884 10.76696968078613 L 3.380110025405884 10.66697025299072 L 3.480109930038452 10.66697025299072 L 8.26315975189209 10.66697025299072 L 8.363160133361816 10.66697025299072 L 8.363160133361816 10.76696968078613 L 8.363160133361816 11.17560005187988 L 8.363160133361816 11.27560043334961 Z M 2.713190078735352 11.27560043334961 L 2.613189935684204 11.27560043334961 L 1.741119980812073 11.27560043334961 L 1.641119956970215 11.27560043334961 L 1.641119956970215 11.17560005187988 L 1.641119956970215 10.76696968078613 L 1.641119956970215 10.66697025299072 L 1.741119980812073 10.66697025299072 L 2.613189935684204 10.66697025299072 L 2.713190078735352 10.66697025299072 L 2.713190078735352 10.76696968078613 L 2.713190078735352 11.17560005187988 L 2.713190078735352 11.27560043334961 Z M 8.363160133361816 9.237330436706543 L 8.26315975189209 9.237330436706543 L 3.480109930038452 9.237330436706543 L 3.380110025405884 9.237330436706543 L 3.380110025405884 9.137330055236816 L 3.380110025405884 8.733220100402832 L 3.380110025405884 8.633219718933105 L 3.480109930038452 8.633219718933105 L 8.26315975189209 8.633219718933105 L 8.363160133361816 8.633219718933105 L 8.363160133361816 8.733220100402832 L 8.363160133361816 9.137330055236816 L 8.363160133361816 9.237330436706543 Z M 2.713190078735352 9.237330436706543 L 2.613189935684204 9.237330436706543 L 1.741119980812073 9.237330436706543 L 1.641119956970215 9.237330436706543 L 1.641119956970215 9.137330055236816 L 1.641119956970215 8.733220100402832 L 1.641119956970215 8.633219718933105 L 1.741119980812073 8.633219718933105 L 2.613189935684204 8.633219718933105 L 2.713190078735352 8.633219718933105 L 2.713190078735352 8.733220100402832 L 2.713190078735352 9.137330055236816 L 2.713190078735352 9.237330436706543 Z M 8.363160133361816 7.2082200050354 L 8.26315975189209 7.2082200050354 L 3.480109930038452 7.2082200050354 L 3.380110025405884 7.2082200050354 L 3.380110025405884 7.108220100402832 L 3.380110025405884 6.704529762268066 L 3.380110025405884 6.604529857635498 L 3.480109930038452 6.604529857635498 L 8.26315975189209 6.604529857635498 L 8.363160133361816 6.604529857635498 L 8.363160133361816 6.704529762268066 L 8.363160133361816 7.108220100402832 L 8.363160133361816 7.2082200050354 Z M 2.713190078735352 7.2082200050354 L 2.613189935684204 7.2082200050354 L 1.741119980812073 7.2082200050354 L 1.641119956970215 7.2082200050354 L 1.641119956970215 7.108220100402832 L 1.641119956970215 6.704529762268066 L 1.641119956970215 6.604529857635498 L 1.741119980812073 6.604529857635498 L 2.613189935684204 6.604529857635498 L 2.713190078735352 6.604529857635498 L 2.713190078735352 6.704529762268066 L 2.713190078735352 7.108220100402832 L 2.713190078735352 7.2082200050354 Z M 8.363160133361816 5.179530143737793 L 8.26315975189209 5.179530143737793 L 3.480109930038452 5.179530143737793 L 3.380110025405884 5.179530143737793 L 3.380110025405884 5.079529762268066 L 3.380110025405884 4.670839786529541 L 3.380110025405884 4.570839881896973 L 3.480109930038452 4.570839881896973 L 8.26315975189209 4.570839881896973 L 8.363160133361816 4.570839881896973 L 8.363160133361816 4.670839786529541 L 8.363160133361816 5.079529762268066 L 8.363160133361816 5.179530143737793 Z M 2.713190078735352 5.179530143737793 L 2.613189935684204 5.179530143737793 L 1.741119980812073 5.179530143737793 L 1.641119956970215 5.179530143737793 L 1.641119956970215 5.079529762268066 L 1.641119956970215 4.670839786529541 L 1.641119956970215 4.570839881896973 L 1.741119980812073 4.570839881896973 L 2.613189935684204 4.570839881896973 L 2.713190078735352 4.570839881896973 L 2.713190078735352 4.670839786529541 L 2.713190078735352 5.079529762268066 L 2.713190078735352 5.179530143737793 Z" stroke="none"/>
        <path d="M 10 13 L 10 1.422000050544739 L 7.071899890899658 1.422000050544739 L 6.908760070800781 0.8123199939727783 L 6.086860179901123 0.8123199939727783 L 6.086860179901123 -8.881784197001252e-16 L 3.913140058517456 -8.881784197001252e-16 L 3.913140058517456 0.8123199939727783 L 3.090810060501099 0.8123199939727783 L 2.927799940109253 1.422000050544739 L 0 1.422000050544739 L 0 13 L 10 13 M 0.4347499907016754 1.828130006790161 L 2.819200038909912 1.828130006790161 L 2.547590017318726 2.843930006027222 L 7.452410221099854 2.843930006027222 L 7.180590152740479 1.828130006790161 L 9.565250396728516 1.828130006790161 L 9.565250396728516 12.59387016296387 L 0.4347499907016754 12.59387016296387 L 0.4347499907016754 1.828130006790161 M 3.430799961090088 1.218870043754578 L 4.347879886627197 1.218870043754578 L 4.347879886627197 0.4061299860477448 L 5.652120113372803 0.4061299860477448 L 5.652120113372803 1.218870043754578 L 6.569200038909912 1.218870043754578 L 6.895470142364502 2.437319993972778 L 3.104530096054077 2.437319993972778 L 3.430799961090088 1.218870043754578 M 8.26315975189209 11.17560005187988 L 8.26315975189209 10.76696968078613 L 3.480109930038452 10.76696968078613 L 3.480109930038452 11.17560005187988 L 8.26315975189209 11.17560005187988 M 2.613189935684204 11.17560005187988 L 2.613189935684204 10.76696968078613 L 1.741119980812073 10.76696968078613 L 1.741119980812073 11.17560005187988 L 2.613189935684204 11.17560005187988 M 8.26315975189209 9.137330055236816 L 8.26315975189209 8.733220100402832 L 3.480109930038452 8.733220100402832 L 3.480109930038452 9.137330055236816 L 8.26315975189209 9.137330055236816 M 2.613189935684204 9.137330055236816 L 2.613189935684204 8.733220100402832 L 1.741119980812073 8.733220100402832 L 1.741119980812073 9.137330055236816 L 2.613189935684204 9.137330055236816 M 8.26315975189209 7.108220100402832 L 8.26315975189209 6.704529762268066 L 3.480109930038452 6.704529762268066 L 3.480109930038452 7.108220100402832 L 8.26315975189209 7.108220100402832 M 2.613189935684204 7.108220100402832 L 2.613189935684204 6.704529762268066 L 1.741119980812073 6.704529762268066 L 1.741119980812073 7.108220100402832 L 2.613189935684204 7.108220100402832 M 8.26315975189209 5.079529762268066 L 8.26315975189209 4.670839786529541 L 3.480109930038452 4.670839786529541 L 3.480109930038452 5.079529762268066 L 8.26315975189209 5.079529762268066 M 2.613189935684204 5.079529762268066 L 2.613189935684204 4.670839786529541 L 1.741119980812073 4.670839786529541 L 1.741119980812073 5.079529762268066 L 2.613189935684204 5.079529762268066 M 10 13.19999980926514 L 0 13.19999980926514 C -0.1104599982500076 13.19999980926514 -0.2000000029802322 13.11046028137207 -0.2000000029802322 13 L -0.2000000029802322 1.422000050544739 C -0.2000000029802322 1.311540007591248 -0.1104599982500076 1.222000002861023 0 1.222000002861023 L 2.774251699447632 1.222000002861023 L 2.897599935531616 0.7606599926948547 C 2.920989990234375 0.6731699705123901 3.000250101089478 0.6123200058937073 3.090810060501099 0.6123200058937073 L 3.71314001083374 0.6123200058937073 L 3.71314001083374 -8.881784197001252e-16 C 3.71314001083374 -0.1104599982500076 3.802680015563965 -0.2000000029802322 3.913140058517456 -0.2000000029802322 L 6.086860179901123 -0.2000000029802322 C 6.197319984436035 -0.2000000029802322 6.28685998916626 -0.1104599982500076 6.28685998916626 -8.881784197001252e-16 L 6.28685998916626 0.6123200058937073 L 6.908760070800781 0.6123200058937073 C 6.99931001663208 0.6123200058937073 7.078559875488281 0.6731500029563904 7.101960182189941 0.7606199979782104 L 7.225417613983154 1.222000002861023 L 10 1.222000002861023 C 10.11046028137207 1.222000002861023 10.19999980926514 1.311540007591248 10.19999980926514 1.422000050544739 L 10.19999980926514 13 C 10.19999980926514 13.11046028137207 10.11046028137207 13.19999980926514 10 13.19999980926514 Z M 0.6347500085830688 12.39387035369873 L 9.365249633789063 12.39387035369873 L 9.365249633789063 2.028130054473877 L 7.441143035888672 2.028130054473877 L 7.645609855651855 2.792229890823364 C 7.661680221557617 2.852279901504517 7.648910045623779 2.916399955749512 7.61106014251709 2.965709924697876 C 7.573209762573242 3.01501989364624 7.514579772949219 3.043930053710938 7.452410221099854 3.043930053710938 L 2.547590017318726 3.043930053710938 C 2.485430002212524 3.043930053710938 2.426800012588501 3.015029907226563 2.388950109481812 2.965719938278198 C 2.351099967956543 2.916419982910156 2.338320016860962 2.852319955825806 2.354379892349243 2.792269945144653 L 2.5586998462677 2.028130054473877 L 0.6347500085830688 2.028130054473877 L 0.6347500085830688 12.39387035369873 Z M 3.365126848220825 2.237319946289063 L 6.634872913360596 2.237319946289063 L 6.415712833404541 1.418869972229004 L 5.652120113372803 1.418869972229004 C 5.541659832000732 1.418869972229004 5.452119827270508 1.329329967498779 5.452119827270508 1.218870043754578 L 5.452119827270508 0.6061300039291382 L 4.547880172729492 0.6061300039291382 L 4.547880172729492 1.218870043754578 C 4.547880172729492 1.329329967498779 4.458340167999268 1.418869972229004 4.347879886627197 1.418869972229004 L 3.584287166595459 1.418869972229004 L 3.365126848220825 2.237319946289063 Z M 8.26315975189209 11.37559986114502 L 3.480109930038452 11.37559986114502 C 3.369649887084961 11.37559986114502 3.280109882354736 11.28606033325195 3.280109882354736 11.17560005187988 L 3.280109882354736 10.76696968078613 C 3.280109882354736 10.65651035308838 3.369649887084961 10.566969871521 3.480109930038452 10.566969871521 L 8.26315975189209 10.566969871521 C 8.37362003326416 10.566969871521 8.463159561157227 10.65651035308838 8.463159561157227 10.76696968078613 L 8.463159561157227 11.17560005187988 C 8.463159561157227 11.28606033325195 8.37362003326416 11.37559986114502 8.26315975189209 11.37559986114502 Z M 2.613189935684204 11.37559986114502 L 1.741119980812073 11.37559986114502 C 1.630660057067871 11.37559986114502 1.541120052337646 11.28606033325195 1.541120052337646 11.17560005187988 L 1.541120052337646 10.76696968078613 C 1.541120052337646 10.65651035308838 1.630660057067871 10.566969871521 1.741119980812073 10.566969871521 L 2.613189935684204 10.566969871521 C 2.723649978637695 10.566969871521 2.81318998336792 10.65651035308838 2.81318998336792 10.76696968078613 L 2.81318998336792 11.17560005187988 C 2.81318998336792 11.28606033325195 2.723649978637695 11.37559986114502 2.613189935684204 11.37559986114502 Z M 8.26315975189209 9.337329864501953 L 3.480109930038452 9.337329864501953 C 3.369649887084961 9.337329864501953 3.280109882354736 9.247790336608887 3.280109882354736 9.137330055236816 L 3.280109882354736 8.733220100402832 C 3.280109882354736 8.622759819030762 3.369649887084961 8.533220291137695 3.480109930038452 8.533220291137695 L 8.26315975189209 8.533220291137695 C 8.37362003326416 8.533220291137695 8.463159561157227 8.622759819030762 8.463159561157227 8.733220100402832 L 8.463159561157227 9.137330055236816 C 8.463159561157227 9.247790336608887 8.37362003326416 9.337329864501953 8.26315975189209 9.337329864501953 Z M 2.613189935684204 9.337329864501953 L 1.741119980812073 9.337329864501953 C 1.630660057067871 9.337329864501953 1.541120052337646 9.247790336608887 1.541120052337646 9.137330055236816 L 1.541120052337646 8.733220100402832 C 1.541120052337646 8.622759819030762 1.630660057067871 8.533220291137695 1.741119980812073 8.533220291137695 L 2.613189935684204 8.533220291137695 C 2.723649978637695 8.533220291137695 2.81318998336792 8.622759819030762 2.81318998336792 8.733220100402832 L 2.81318998336792 9.137330055236816 C 2.81318998336792 9.247790336608887 2.723649978637695 9.337329864501953 2.613189935684204 9.337329864501953 Z M 8.26315975189209 7.308219909667969 L 3.480109930038452 7.308219909667969 C 3.369649887084961 7.308219909667969 3.280109882354736 7.218679904937744 3.280109882354736 7.108220100402832 L 3.280109882354736 6.704529762268066 C 3.280109882354736 6.594069957733154 3.369649887084961 6.50452995300293 3.480109930038452 6.50452995300293 L 8.26315975189209 6.50452995300293 C 8.37362003326416 6.50452995300293 8.463159561157227 6.594069957733154 8.463159561157227 6.704529762268066 L 8.463159561157227 7.108220100402832 C 8.463159561157227 7.218679904937744 8.37362003326416 7.308219909667969 8.26315975189209 7.308219909667969 Z M 2.613189935684204 7.308219909667969 L 1.741119980812073 7.308219909667969 C 1.630660057067871 7.308219909667969 1.541120052337646 7.218679904937744 1.541120052337646 7.108220100402832 L 1.541120052337646 6.704529762268066 C 1.541120052337646 6.594069957733154 1.630660057067871 6.50452995300293 1.741119980812073 6.50452995300293 L 2.613189935684204 6.50452995300293 C 2.723649978637695 6.50452995300293 2.81318998336792 6.594069957733154 2.81318998336792 6.704529762268066 L 2.81318998336792 7.108220100402832 C 2.81318998336792 7.218679904937744 2.723649978637695 7.308219909667969 2.613189935684204 7.308219909667969 Z M 8.26315975189209 5.279530048370361 L 3.480109930038452 5.279530048370361 C 3.369649887084961 5.279530048370361 3.280109882354736 5.189990043640137 3.280109882354736 5.079529762268066 L 3.280109882354736 4.670839786529541 C 3.280109882354736 4.560379981994629 3.369649887084961 4.470839977264404 3.480109930038452 4.470839977264404 L 8.26315975189209 4.470839977264404 C 8.37362003326416 4.470839977264404 8.463159561157227 4.560379981994629 8.463159561157227 4.670839786529541 L 8.463159561157227 5.079529762268066 C 8.463159561157227 5.189990043640137 8.37362003326416 5.279530048370361 8.26315975189209 5.279530048370361 Z M 2.613189935684204 5.279530048370361 L 1.741119980812073 5.279530048370361 C 1.630660057067871 5.279530048370361 1.541120052337646 5.189990043640137 1.541120052337646 5.079529762268066 L 1.541120052337646 4.670839786529541 C 1.541120052337646 4.560379981994629 1.630660057067871 4.470839977264404 1.741119980812073 4.470839977264404 L 2.613189935684204 4.470839977264404 C 2.723649978637695 4.470839977264404 2.81318998336792 4.560379981994629 2.81318998336792 4.670839786529541 L 2.81318998336792 5.079529762268066 C 2.81318998336792 5.189990043640137 2.723649978637695 5.279530048370361 2.613189935684204 5.279530048370361 Z" stroke="none"/>
      </g>
      <g id="Stroke_Effect" data-name="Stroke Effect" fill="none" stroke-linejoin="round" opacity="0.35">
        <path d="M0,13V1.422H2.928l.163-.61h.822V0H6.087V.812h.822l.163.61H10V13Zm.435-.406H9.565V1.828H7.181l.272,1.016h-4.9l.272-1.016H.435ZM3.1,2.437H6.9L6.569,1.219H5.652V.406h-1.3v.813H3.431Zm.376,8.738v-.409H8.263v.409Zm-1.739,0v-.409h.872v.409ZM3.48,9.137v-.4H8.263v.4Zm-1.739,0v-.4h.872v.4ZM3.48,7.108V6.7H8.263v.4Zm-1.739,0V6.7h.872v.4ZM3.48,5.08V4.671H8.263V5.08Zm-1.739,0V4.671h.872V5.08Z" stroke="none"/>
        <path d="M 10 13 L 10 1.422000050544739 L 7.071899890899658 1.422000050544739 L 6.908760070800781 0.8123199939727783 L 6.086860179901123 0.8123199939727783 L 6.086860179901123 -8.881784197001252e-16 L 3.913140058517456 -8.881784197001252e-16 L 3.913140058517456 0.8123199939727783 L 3.090810060501099 0.8123199939727783 L 2.927799940109253 1.422000050544739 L 0 1.422000050544739 L 0 13 L 10 13 M 0.4347499907016754 1.828130006790161 L 2.819200038909912 1.828130006790161 L 2.547590017318726 2.843930006027222 L 7.452410221099854 2.843930006027222 L 7.180590152740479 1.828130006790161 L 9.565250396728516 1.828130006790161 L 9.565250396728516 12.59387016296387 L 0.4347499907016754 12.59387016296387 L 0.4347499907016754 1.828130006790161 M 3.430799961090088 1.218870043754578 L 4.347879886627197 1.218870043754578 L 4.347879886627197 0.4061299860477448 L 5.652120113372803 0.4061299860477448 L 5.652120113372803 1.218870043754578 L 6.569200038909912 1.218870043754578 L 6.895470142364502 2.437319993972778 L 3.104530096054077 2.437319993972778 L 3.430799961090088 1.218870043754578 M 8.26315975189209 11.17560005187988 L 8.26315975189209 10.76696968078613 L 3.480109930038452 10.76696968078613 L 3.480109930038452 11.17560005187988 L 8.26315975189209 11.17560005187988 M 2.613189935684204 11.17560005187988 L 2.613189935684204 10.76696968078613 L 1.741119980812073 10.76696968078613 L 1.741119980812073 11.17560005187988 L 2.613189935684204 11.17560005187988 M 8.26315975189209 9.137330055236816 L 8.26315975189209 8.733220100402832 L 3.480109930038452 8.733220100402832 L 3.480109930038452 9.137330055236816 L 8.26315975189209 9.137330055236816 M 2.613189935684204 9.137330055236816 L 2.613189935684204 8.733220100402832 L 1.741119980812073 8.733220100402832 L 1.741119980812073 9.137330055236816 L 2.613189935684204 9.137330055236816 M 8.26315975189209 7.108220100402832 L 8.26315975189209 6.704529762268066 L 3.480109930038452 6.704529762268066 L 3.480109930038452 7.108220100402832 L 8.26315975189209 7.108220100402832 M 2.613189935684204 7.108220100402832 L 2.613189935684204 6.704529762268066 L 1.741119980812073 6.704529762268066 L 1.741119980812073 7.108220100402832 L 2.613189935684204 7.108220100402832 M 8.26315975189209 5.079529762268066 L 8.26315975189209 4.670839786529541 L 3.480109930038452 4.670839786529541 L 3.480109930038452 5.079529762268066 L 8.26315975189209 5.079529762268066 M 2.613189935684204 5.079529762268066 L 2.613189935684204 4.670839786529541 L 1.741119980812073 4.670839786529541 L 1.741119980812073 5.079529762268066 L 2.613189935684204 5.079529762268066 M 10 13.19999980926514 L 0 13.19999980926514 C -0.1104599982500076 13.19999980926514 -0.2000000029802322 13.11046028137207 -0.2000000029802322 13 L -0.2000000029802322 1.422000050544739 C -0.2000000029802322 1.311540007591248 -0.1104599982500076 1.222000002861023 0 1.222000002861023 L 2.774251699447632 1.222000002861023 L 2.897599935531616 0.7606599926948547 C 2.920989990234375 0.6731699705123901 3.000250101089478 0.6123200058937073 3.090810060501099 0.6123200058937073 L 3.71314001083374 0.6123200058937073 L 3.71314001083374 -8.881784197001252e-16 C 3.71314001083374 -0.1104599982500076 3.802680015563965 -0.2000000029802322 3.913140058517456 -0.2000000029802322 L 6.086860179901123 -0.2000000029802322 C 6.197319984436035 -0.2000000029802322 6.28685998916626 -0.1104599982500076 6.28685998916626 -8.881784197001252e-16 L 6.28685998916626 0.6123200058937073 L 6.908760070800781 0.6123200058937073 C 6.99931001663208 0.6123200058937073 7.078559875488281 0.6731500029563904 7.101960182189941 0.7606199979782104 L 7.225417613983154 1.222000002861023 L 10 1.222000002861023 C 10.11046028137207 1.222000002861023 10.19999980926514 1.311540007591248 10.19999980926514 1.422000050544739 L 10.19999980926514 13 C 10.19999980926514 13.11046028137207 10.11046028137207 13.19999980926514 10 13.19999980926514 Z M 0.6347500085830688 12.39387035369873 L 9.365249633789063 12.39387035369873 L 9.365249633789063 2.028130054473877 L 7.441143035888672 2.028130054473877 L 7.645609855651855 2.792229890823364 C 7.661680221557617 2.852279901504517 7.648910045623779 2.916399955749512 7.61106014251709 2.965709924697876 C 7.573209762573242 3.01501989364624 7.514579772949219 3.043930053710938 7.452410221099854 3.043930053710938 L 2.547590017318726 3.043930053710938 C 2.485430002212524 3.043930053710938 2.426800012588501 3.015029907226563 2.388950109481812 2.965719938278198 C 2.351099967956543 2.916419982910156 2.338320016860962 2.852319955825806 2.354379892349243 2.792269945144653 L 2.5586998462677 2.028130054473877 L 0.6347500085830688 2.028130054473877 L 0.6347500085830688 12.39387035369873 Z M 3.365126848220825 2.237319946289063 L 6.634872913360596 2.237319946289063 L 6.415712833404541 1.418869972229004 L 5.652120113372803 1.418869972229004 C 5.541659832000732 1.418869972229004 5.452119827270508 1.329329967498779 5.452119827270508 1.218870043754578 L 5.452119827270508 0.6061300039291382 L 4.547880172729492 0.6061300039291382 L 4.547880172729492 1.218870043754578 C 4.547880172729492 1.329329967498779 4.458340167999268 1.418869972229004 4.347879886627197 1.418869972229004 L 3.584287166595459 1.418869972229004 L 3.365126848220825 2.237319946289063 Z M 8.26315975189209 11.37559986114502 L 3.480109930038452 11.37559986114502 C 3.369649887084961 11.37559986114502 3.280109882354736 11.28606033325195 3.280109882354736 11.17560005187988 L 3.280109882354736 10.76696968078613 C 3.280109882354736 10.65651035308838 3.369649887084961 10.566969871521 3.480109930038452 10.566969871521 L 8.26315975189209 10.566969871521 C 8.37362003326416 10.566969871521 8.463159561157227 10.65651035308838 8.463159561157227 10.76696968078613 L 8.463159561157227 11.17560005187988 C 8.463159561157227 11.28606033325195 8.37362003326416 11.37559986114502 8.26315975189209 11.37559986114502 Z M 2.613189935684204 11.37559986114502 L 1.741119980812073 11.37559986114502 C 1.630660057067871 11.37559986114502 1.541120052337646 11.28606033325195 1.541120052337646 11.17560005187988 L 1.541120052337646 10.76696968078613 C 1.541120052337646 10.65651035308838 1.630660057067871 10.566969871521 1.741119980812073 10.566969871521 L 2.613189935684204 10.566969871521 C 2.723649978637695 10.566969871521 2.81318998336792 10.65651035308838 2.81318998336792 10.76696968078613 L 2.81318998336792 11.17560005187988 C 2.81318998336792 11.28606033325195 2.723649978637695 11.37559986114502 2.613189935684204 11.37559986114502 Z M 8.26315975189209 9.337329864501953 L 3.480109930038452 9.337329864501953 C 3.369649887084961 9.337329864501953 3.280109882354736 9.247790336608887 3.280109882354736 9.137330055236816 L 3.280109882354736 8.733220100402832 C 3.280109882354736 8.622759819030762 3.369649887084961 8.533220291137695 3.480109930038452 8.533220291137695 L 8.26315975189209 8.533220291137695 C 8.37362003326416 8.533220291137695 8.463159561157227 8.622759819030762 8.463159561157227 8.733220100402832 L 8.463159561157227 9.137330055236816 C 8.463159561157227 9.247790336608887 8.37362003326416 9.337329864501953 8.26315975189209 9.337329864501953 Z M 2.613189935684204 9.337329864501953 L 1.741119980812073 9.337329864501953 C 1.630660057067871 9.337329864501953 1.541120052337646 9.247790336608887 1.541120052337646 9.137330055236816 L 1.541120052337646 8.733220100402832 C 1.541120052337646 8.622759819030762 1.630660057067871 8.533220291137695 1.741119980812073 8.533220291137695 L 2.613189935684204 8.533220291137695 C 2.723649978637695 8.533220291137695 2.81318998336792 8.622759819030762 2.81318998336792 8.733220100402832 L 2.81318998336792 9.137330055236816 C 2.81318998336792 9.247790336608887 2.723649978637695 9.337329864501953 2.613189935684204 9.337329864501953 Z M 8.26315975189209 7.308219909667969 L 3.480109930038452 7.308219909667969 C 3.369649887084961 7.308219909667969 3.280109882354736 7.218679904937744 3.280109882354736 7.108220100402832 L 3.280109882354736 6.704529762268066 C 3.280109882354736 6.594069957733154 3.369649887084961 6.50452995300293 3.480109930038452 6.50452995300293 L 8.26315975189209 6.50452995300293 C 8.37362003326416 6.50452995300293 8.463159561157227 6.594069957733154 8.463159561157227 6.704529762268066 L 8.463159561157227 7.108220100402832 C 8.463159561157227 7.218679904937744 8.37362003326416 7.308219909667969 8.26315975189209 7.308219909667969 Z M 2.613189935684204 7.308219909667969 L 1.741119980812073 7.308219909667969 C 1.630660057067871 7.308219909667969 1.541120052337646 7.218679904937744 1.541120052337646 7.108220100402832 L 1.541120052337646 6.704529762268066 C 1.541120052337646 6.594069957733154 1.630660057067871 6.50452995300293 1.741119980812073 6.50452995300293 L 2.613189935684204 6.50452995300293 C 2.723649978637695 6.50452995300293 2.81318998336792 6.594069957733154 2.81318998336792 6.704529762268066 L 2.81318998336792 7.108220100402832 C 2.81318998336792 7.218679904937744 2.723649978637695 7.308219909667969 2.613189935684204 7.308219909667969 Z M 8.26315975189209 5.279530048370361 L 3.480109930038452 5.279530048370361 C 3.369649887084961 5.279530048370361 3.280109882354736 5.189990043640137 3.280109882354736 5.079529762268066 L 3.280109882354736 4.670839786529541 C 3.280109882354736 4.560379981994629 3.369649887084961 4.470839977264404 3.480109930038452 4.470839977264404 L 8.26315975189209 4.470839977264404 C 8.37362003326416 4.470839977264404 8.463159561157227 4.560379981994629 8.463159561157227 4.670839786529541 L 8.463159561157227 5.079529762268066 C 8.463159561157227 5.189990043640137 8.37362003326416 5.279530048370361 8.26315975189209 5.279530048370361 Z M 2.613189935684204 5.279530048370361 L 1.741119980812073 5.279530048370361 C 1.630660057067871 5.279530048370361 1.541120052337646 5.189990043640137 1.541120052337646 5.079529762268066 L 1.541120052337646 4.670839786529541 C 1.541120052337646 4.560379981994629 1.630660057067871 4.470839977264404 1.741119980812073 4.470839977264404 L 2.613189935684204 4.470839977264404 C 2.723649978637695 4.470839977264404 2.81318998336792 4.560379981994629 2.81318998336792 4.670839786529541 L 2.81318998336792 5.079529762268066 C 2.81318998336792 5.189990043640137 2.723649978637695 5.279530048370361 2.613189935684204 5.279530048370361 Z" stroke="none"/>
      </g>
    </g>
  </g>
</svg>
