<?xml version="1.0" encoding="utf-8"?>
<!-- Generator: Adobe Illustrator 23.0.2, SVG Export Plug-In . SVG Version: 6.00 Build 0)  -->
<svg version="1.1" id="Layer_1" xmlns="http://www.w3.org/2000/svg" xmlns:xlink="http://www.w3.org/1999/xlink" x="0px" y="0px"
	 viewBox="0 0 1024 1024" style="enable-background:new 0 0 1024 1024;" xml:space="preserve">
<!--<style type="text/css">
	.st0{fill:#060606;}
</style>-->
<g>
	<path class="st0" d="M512,40.93c63.61,0,125.29,12.45,183.35,37.01c56.09,23.72,106.47,57.69,149.74,100.96
		s77.24,93.65,100.96,149.74c24.56,58.06,37.01,119.75,37.01,183.35s-12.45,125.29-37.01,183.35
		c-23.72,56.09-57.69,106.47-100.96,149.74c-43.27,43.27-93.65,77.24-149.74,100.96C637.29,970.6,575.6,983.05,512,983.05
		s-125.29-12.45-183.35-37.01c-56.09-23.72-106.47-57.69-149.74-100.96s-77.24-93.65-100.96-149.74
		C53.38,637.29,40.93,575.61,40.93,512s12.45-125.29,37.01-183.35c23.72-56.09,57.69-106.47,100.96-149.74
		s93.65-77.24,149.74-100.96C386.71,53.38,448.39,40.93,512,40.93 M512,15.93C238.03,15.93,15.93,238.03,15.93,512
		s222.1,496.07,496.07,496.07s496.07-222.1,496.07-496.07S785.97,15.93,512,15.93L512,15.93z"/>
</g>
<g>
	<path d="M439.98,255.94c7.03,1.65,14.1,3.18,21.1,4.97c74.74,19.1,125.8,85.41,124.64,162.89c-0.15,10.14,2.11,12.62,12.22,12.45
		c38.27-0.65,76.6,0.72,114.84-0.6c26.21-0.91,45.29,7.11,55.28,32.35c0,70.68,0,141.37,0,212.05
		c-5.68,17.12-15.94,29.73-34.51,33.21c-6.1,1.14-12.56,1.07-18.8,0.67c-6.29-0.4-8.02,2.03-7.79,7.96
		c0.38,9.92-0.13,19.87,0.18,29.79c0.19,6.19-1.05,11.66-5.1,16.4c-3.33,0-6.67,0-10,0c-19.71-18.84-41.85-34.8-62.64-52.35
		c-3.18-2.68-7.02-1.61-10.58-1.61c-42.66-0.07-85.32-0.02-127.99-0.05c-30.1-0.02-46.82-16.88-46.85-47.19
		c-0.03-24.66-0.15-49.33,0.09-73.99c0.06-6.12-0.69-8.37-8.12-7.68c-38.47,3.56-74.09-5.56-106.22-27.02
		c-6.21-4.15-11.48-5.09-18.45-2.83c-9.79,3.18-19.93,5.29-29.9,7.95c-4.87,1.3-9.29,1.09-12.68-3.16
		c-3.14-3.93-2.33-8.07-0.43-12.22c4.44-9.68,8.96-19.32,13.26-29.06c1.13-2.56,3.11-5,0.86-8.33
		c-14.83-21.96-21.77-46.84-26.48-72.52c0-11.34,0-22.67,0-34.01c3.91-17.82,7.01-35.87,15.4-52.36c1.96-3.85,3.91-7.71,5.91-11.54
		c3.11-5.96,8.1-8.35,14.08-5.26c6.2,3.2,6.44,8.99,3.41,14.65c-6.79,12.69-12.12,25.85-15.2,39.96
		c-8.26,37.89-2.96,73.89,17.84,106.41c7.81,12.22,8.87,21.94,1.4,33.52c-1.4,2.17-2.05,4.83-3.3,7.9
		c7.32,1.26,13.44-1.76,19.41-3.65c7.88-2.5,13.71-0.8,20.24,3.99c73.39,53.89,176.83,28.19,216.48-53.55
		c27.15-55.97,15.45-122.66-29.25-166.67c-44.01-43.33-110.93-53.78-166.36-26.03c-6.92,3.46-14.31,9.78-20.95,0.04
		c-4.41-6.47-0.66-11.33,11.99-17.96c17.91-9.38,37.44-13.33,56.92-17.49C415.98,255.94,427.98,255.94,439.98,255.94z
		 M687.07,736.81c0-12.17-0.05-21.45,0.02-30.73c0.06-8.16,4.1-12.23,12.43-12.07c7.99,0.15,15.99,0.13,23.99,0
		c15.53-0.25,24.45-8.72,24.49-24.01c0.13-63.31,0.13-126.61,0-189.92c-0.03-15.34-8.9-24.01-24.4-24.05
		c-44.65-0.13-89.3,0.09-133.94-0.21c-5.92-0.04-7.89,2.08-9.39,7.34c-16.37,57.41-53.07,95.67-109.48,114.91
		c-5.4,1.84-6.99,4.3-6.92,9.87c0.31,26.32,0.1,52.64,0.15,78.97c0.03,19.23,7.99,27.11,27.41,27.12
		c44.65,0.03,89.3,0.11,133.94-0.09c6.39-0.03,11.43,1.67,16.33,5.8C655.87,711.68,670.39,723.24,687.07,736.81z"/>
	<path d="M419.68,447.88c-7.74,14.52-17.05,28.24-30.29,38.69c-5.22,4.11-10.73,7.88-16.35,11.44c-5.82,3.69-11.63,3.8-15.46-2.79
		c-3.65-6.28-0.43-10.86,5.06-14.07c17.79-10.44,31.09-24.9,39.5-43.77c10.58-23.73,10.24-24.26-14.89-24.28
		c-4.33,0-8.68,0.14-12.99-0.22c-6.18-0.53-10.09-4.06-9.8-10.37c0.26-5.75,4.07-9.06,9.88-9.21c9.33-0.23,18.67-0.44,27.99-0.1
		c5.96,0.22,8.32-1.6,8.05-7.88c-0.45-10.31-0.14-20.66-0.1-30.99c0.03-7.19,2.4-12.87,10.71-12.53c7.85,0.32,9.38,6.04,9.3,12.73
		c-0.12,9.67,0.43,19.36-0.17,28.99c-0.46,7.32,1.61,10.17,9.33,9.74c10.97-0.61,21.99-0.1,32.99-0.16
		c7.04-0.03,13.28,1.75,13.22,10.01c-0.06,8.21-6.34,10.01-13.35,9.99c-11-0.02-22.01,0.24-33-0.08c-6.49-0.19-7.94,1.76-6.26,8.19
		c6.54,25.09,20.75,44.38,42.47,58.29c3.93,2.52,8.34,4.46,8.83,9.98c0.35,4.01-0.93,7.34-4.39,9.41
		c-4.16,2.49-8.23,1.54-12.25-0.81c-18.59-10.85-32.94-25.79-43.4-44.55c-0.97-1.74-1.98-3.45-3.01-5.15
		C421.18,448.21,420.78,448.21,419.68,447.88z"/>
	<path d="M321.35,311.49c-1.07,6.32-4.57,10.13-10.8,9.6c-5.59-0.47-9.11-4.13-8.82-10.08c0.32-6.43,4.15-9.63,10.49-9.25
		C318.23,302.14,320.65,306.23,321.35,311.49z"/>
	<path d="M605.75,605.77c-23.62-7.16-33.91,5.47-39.81,25.98c-2.1,7.3-4.68,16.66-15.98,13.42c-7.38-2.12-7.77-8.41-2.08-21.39
		c1.87-4.26,3.72-8.53,5.65-12.76c1.54-3.38,2.15-5.93-0.64-9.73c-4.83-6.6-2-13.95,5.85-15.01c6.01-0.81,7.47-4.29,9.35-8.59
		c8.5-19.5,17.08-38.96,25.67-58.42c2.51-5.69,4.03-12.8,12-12.95c8.6-0.16,10.07,7.44,12.71,13.39
		c8.5,19.14,16.97,38.28,25.29,57.49c2.02,4.67,3.61,8.37,10.02,9.17c7.22,0.9,10.21,8.57,5.63,14.48
		c-3.54,4.57-2.01,7.6-0.22,11.52c2.76,6.04,5.51,12.1,7.98,18.27c2.37,5.94,1.77,11.48-4.67,14.33c-6.53,2.89-10.92-0.62-13.6-6.37
		c-3.78-8.13-7.68-16.26-10.71-24.68c-2.27-6.31-5.64-8.95-12.48-8.29C619.11,606.28,612.4,605.77,605.75,605.77z M606.02,541.06
		c-6.54,14.93-12.28,27.67-17.66,40.57c-1.72,4.12,1.72,4.1,4.44,4.11c8.65,0.03,17.3-0.14,25.94,0.07
		c5.43,0.13,6.29-1.77,4.13-6.51C617.5,567.54,612.42,555.65,606.02,541.06z"/>
</g>
</svg>
