<?xml version="1.0" encoding="utf-8"?>
<!-- Generator: Adobe Illustrator 23.0.2, SVG Export Plug-In . SVG Version: 6.00 Build 0)  -->
<svg version="1.1" id="Layer_1" xmlns="http://www.w3.org/2000/svg" xmlns:xlink="http://www.w3.org/1999/xlink" x="0px" y="0px"
	 viewBox="0 0 1024 1024" style="enable-background:new 0 0 1024 1024;" xml:space="preserve">
<!--<style type="text/css">
	.st0{fill:#060606;}
</style>-->
<g>
	<path class="st0" d="M512,40.93c63.61,0,125.29,12.45,183.35,37.01c56.09,23.72,106.47,57.69,149.74,100.96
		c43.27,43.27,77.24,93.65,100.96,149.74c24.56,58.06,37.01,119.75,37.01,183.35s-12.45,125.29-37.01,183.35
		c-23.72,56.09-57.69,106.47-100.96,149.74c-43.27,43.27-93.65,77.24-149.74,100.96c-58.06,24.56-119.75,37.01-183.35,37.01
		s-125.29-12.45-183.35-37.01c-56.09-23.72-106.47-57.69-149.74-100.96c-43.27-43.27-77.24-93.65-100.96-149.74
		C53.38,637.29,40.93,575.61,40.93,512s12.45-125.29,37.01-183.35c23.72-56.09,57.69-106.47,100.96-149.74
		s93.65-77.24,149.74-100.96C386.71,53.38,448.39,40.93,512,40.93 M512,15.93C238.03,15.93,15.93,238.03,15.93,512
		s222.1,496.07,496.07,496.07s496.07-222.1,496.07-496.07S785.97,15.93,512,15.93L512,15.93z"/>
</g>
<g>
	<g>
		<path d="M512,349.06c-54.05,0-98,43.85-98,97.75c0,53.9,43.96,97.75,98,97.75c54.04,0,98-43.85,98-97.75
			C610,392.92,566.04,349.06,512,349.06z M512,511.98c-36.04,0-65.34-29.23-65.34-65.17c0-35.94,29.3-65.17,65.34-65.17
			c36.03,0,65.33,29.23,65.33,65.17C577.33,482.75,548.03,511.98,512,511.98z M512,250.62c-108.08,0-196,87.7-196,195.51
			c0,163.53,177.81,316.88,185.39,323.34c3.05,2.6,6.83,3.9,10.61,3.9s7.56-1.31,10.6-3.9C530.18,763.02,708,609.66,708,446.13
			C708,338.32,620.08,250.62,512,250.62z M512,735.08c-37.78-35.31-163.33-162.19-163.33-288.95c0-89.83,73.27-162.93,163.33-162.93
			c90.05,0,163.33,73.1,163.33,162.93C675.33,572.89,549.77,699.77,512,735.08z"/>
	</g>
</g>
</svg>
