<?xml version="1.0" encoding="utf-8"?>
<!-- Generator: Adobe Illustrator 23.0.2, SVG Export Plug-In . SVG Version: 6.00 Build 0)  -->
<svg version="1.1" id="Layer_1" xmlns="http://www.w3.org/2000/svg" xmlns:xlink="http://www.w3.org/1999/xlink" x="0px" y="0px"
	 viewBox="0 0 1024 1024" style="enable-background:new 0 0 1024 1024;" xml:space="preserve">
<!--<style type="text/css">
	.st0{fill:#060606;}
</style>-->
<g>
	<path class="st0" d="M512,40.93c63.61,0,125.29,12.45,183.35,37.01c56.09,23.72,106.47,57.69,149.74,100.96
		s77.24,93.65,100.96,149.74c24.56,58.06,37.01,119.75,37.01,183.35s-12.45,125.29-37.01,183.35
		c-23.72,56.09-57.69,106.47-100.96,149.74c-43.27,43.27-93.65,77.24-149.74,100.96C637.29,970.6,575.6,983.05,512,983.05
		s-125.29-12.45-183.35-37.01c-56.09-23.72-106.47-57.69-149.74-100.96s-77.24-93.65-100.96-149.74
		C53.38,637.29,40.93,575.61,40.93,512s12.45-125.29,37.01-183.35c23.72-56.09,57.69-106.47,100.96-149.74
		s93.65-77.24,149.74-100.96C386.71,53.38,448.39,40.93,512,40.93 M512,15.93C238.03,15.93,15.93,238.03,15.93,512
		s222.1,496.07,496.07,496.07s496.07-222.1,496.07-496.07S785.97,15.93,512,15.93L512,15.93z"/>
</g>
<g>
	<g>
		<path class="st0" d="M396.64,484.75c-3.74,0-6.79,3.04-6.79,6.8v40.78c0,3.75,3.04,6.8,6.79,6.8c3.75,0,6.79-3.04,6.79-6.8v-40.78
			C403.43,487.79,400.39,484.75,396.64,484.75z M397.38,309.93l-64.17,25.71c-18.07,6.7-24.79,15.8-24.79,33.56v285.54
			c0,17.76,6.72,26.85,24.62,33.5l64.46,25.82c3.19,1.21,6.4,1.82,9.53,1.82c13.64,0,23.54-11.42,23.54-27.15V335.21
			C430.57,315.88,415.18,303.21,397.38,309.93z M417,688.74c0,8.11-4.01,13.56-9.97,13.56c-1.48,0-3.08-0.32-4.61-0.89l-64.49-25.85
			c-12.8-4.75-15.93-8.84-15.93-20.82V369.2c0-11.98,3.13-16.06,16.09-20.88l64.2-25.72c1.66-0.63,3.25-0.94,4.74-0.94
			c5.97,0,9.98,5.44,9.98,13.55V688.74z M450.08,348.81h95.85c11.22,0,20.36,9.15,20.36,20.39v101.95c0,3.75,3.03,6.8,6.79,6.8
			s6.79-3.04,6.79-6.8V369.2c0-18.73-15.22-33.98-33.93-33.98h-95.85c-3.75,0-6.79,3.04-6.79,6.8
			C443.3,345.76,446.34,348.81,450.08,348.81z M573.08,545.92c-3.75,0-6.79,3.05-6.79,6.8v101.95c0,11.24-9.13,20.39-20.36,20.39
			h-95.01c-3.74,0-6.79,3.05-6.79,6.8c0,3.75,3.04,6.8,6.79,6.8h95.01c18.71,0,33.93-15.24,33.93-33.98V552.72
			C579.86,548.97,576.83,545.92,573.08,545.92z M715.07,509.34c-0.35-0.84-0.84-1.59-1.48-2.21l-67.85-67.97
			c-2.65-2.66-6.94-2.66-9.6,0c-2.65,2.65-2.65,6.95,0,9.61l56.28,56.37H464.5c-3.75,0-6.79,3.05-6.79,6.8s3.04,6.8,6.79,6.8h227.91
			l-56.28,56.37c-2.65,2.65-2.65,6.95,0,9.61c1.32,1.32,3.06,1.99,4.8,1.99c1.73,0,3.47-0.67,4.8-1.99l67.85-67.97
			c0.63-0.63,1.13-1.38,1.48-2.21C715.75,512.88,715.75,511,715.07,509.34z"/>
	</g>
</g>
</svg>
