<?xml version="1.0" encoding="utf-8"?>
<!-- Generator: Adobe Illustrator 23.0.2, SVG Export Plug-In . SVG Version: 6.00 Build 0)  -->
<svg version="1.1" id="Layer_1" xmlns="http://www.w3.org/2000/svg" xmlns:xlink="http://www.w3.org/1999/xlink" x="0px" y="0px"
	 viewBox="0 0 1024 1024" style="enable-background:new 0 0 1024 1024;" xml:space="preserve">
<!--<style type="text/css">
	.st0{fill:#114D88;}
	.st1{fill:#FFFFFF;}
</style>-->
<circle class="st0" cx="512" cy="512" r="495.59"/>
<g>
	<path class="st1" d="M741.33,424.18c0,10.15,0,20.29,0,30.44c-4.77,27.34-15.01,52.24-31.95,74.47
		c-4.88,6.41-3.11,13.43,2.74,19.29c9.83,9.83,19.48,19.84,29.2,29.78c0,3.58,0,7.16,0,10.74c-5.04,7.28-11.95,9.36-20.7,9.12
		c-19.63-0.53-39.3,0.04-58.94-0.29c-5.66-0.1-7.59,1.56-8.32,7.28c-1.72,13.34-5.91,26.08-12.03,38.09
		c-24.71,48.53-65.53,76.51-116.83,90.7c-11.66,3.22-23.74,4.91-35.63,7.3c-66.28,0-132.56-0.11-198.84,0.19
		c-6.27,0.03-8-1.42-7.17-7.41c0.57-4.08,0.11-8.31,0.11-12.47c8.05-8.25,16.04-16.56,24.16-24.73
		c13.49-13.56,13.78-16.48,2.79-31.75c-6.97-9.69-12.51-20.13-17.19-31.12c-4.93-11.56-6.54-23.96-9.77-35.95c0-9.55,0-19.1,0-28.65
		c0.83-3.75,1.68-7.51,2.48-11.27c9.85-46.08,37.41-79.05,76.85-102.93c5.33-3.23,7.34-6.34,6.86-12.61
		c-0.97-12.57,0.99-25.02,4.52-37.11c15.83-54.07,53.42-87.3,103.86-108.21c18.58-7.7,38.34-10.53,57.87-14.35
		c13.13,0,26.26,0,39.39,0c17.68,3.62,35.65,5.86,52.67,12.39c53.35,20.47,92.84,54.52,109.39,111.14
		C738.6,412.16,739.86,418.2,741.33,424.18z M333.43,711.77c1.75,0.33,2.57,0.62,3.39,0.62c47.15-0.02,94.31,0.79,141.43-0.37
		c37.27-0.92,71.36-12.96,100.91-36.35c62.76-49.66,63.38-132.61,1.41-183.25c-60.83-49.72-158.64-50.4-220.49-1.79
		c-52.59,41.33-65,108.42-23.71,162.14C350.74,671.48,349.38,689.92,333.43,711.77z M691.56,569.19
		c-17.48-22.88-17.72-40.32-2.07-61.99c34.37-47.58,30.22-104.48-10.71-146.66c-63.95-65.91-184.58-65.51-248.05,0.89
		c-18.27,19.11-29.38,41.71-32.63,68.11c-0.76,6.18-0.49,8.56,7.07,6.22c39.05-12.11,78.76-13.93,118.15-2.7
		c67.87,19.35,116.63,58.44,130.46,131.67c0.62,3.28,2,4.54,5.29,4.51C669.37,569.12,679.7,569.19,691.56,569.19z"/>
	<path class="st1" d="M429.83,622.79c-0.07,7.78-6.61,14.27-14.3,14.19c-7.57-0.08-14.25-6.89-14.18-14.46
		c0.08-7.76,6.58-14.07,14.44-14C423.73,608.58,429.9,614.86,429.83,622.79z"/>
	<path class="st1" d="M474.49,636.97c-7.57-0.23-14.18-7.18-13.96-14.69c0.23-7.74,6.86-13.96,14.7-13.77
		c7.94,0.19,13.95,6.54,13.74,14.52C488.78,630.89,482.22,637.2,474.49,636.97z"/>
	<path class="st1" d="M548.16,622.38c0.13,7.93-6.02,14.43-13.8,14.62c-7.51,0.17-14.41-6.47-14.6-14.06
		c-0.19-7.69,6.21-14.28,14.03-14.42C541.77,608.36,548.04,614.41,548.16,622.38z"/>
</g>
</svg>
