<?xml version="1.0" encoding="utf-8"?>
<!-- Generator: Adobe Illustrator 23.0.2, SVG Export Plug-In . SVG Version: 6.00 Build 0)  -->
<svg version="1.1" id="Layer_1" xmlns="http://www.w3.org/2000/svg" xmlns:xlink="http://www.w3.org/1999/xlink" x="0px" y="0px"
	 viewBox="0 0 1024 1024" style="enable-background:new 0 0 1024 1024;" xml:space="preserve">
<!--<style type="text/css">
	.st0{fill:#060606;}
</style>-->
<g>
	<path class="st0" d="M512,40.93c63.61,0,125.29,12.45,183.35,37.01c56.09,23.72,106.47,57.69,149.74,100.96
		c43.27,43.27,77.24,93.65,100.96,149.74c24.56,58.06,37.01,119.75,37.01,183.35s-12.45,125.29-37.01,183.35
		c-23.72,56.09-57.69,106.47-100.96,149.74c-43.27,43.27-93.65,77.24-149.74,100.96c-58.06,24.56-119.75,37.01-183.35,37.01
		s-125.29-12.45-183.35-37.01c-56.09-23.72-106.47-57.69-149.74-100.96c-43.27-43.27-77.24-93.65-100.96-149.74
		C53.38,637.29,40.93,575.61,40.93,512s12.45-125.29,37.01-183.35c23.72-56.09,57.69-106.47,100.96-149.74
		s93.65-77.24,149.74-100.96C386.71,53.38,448.39,40.93,512,40.93 M512,15.93C238.03,15.93,15.93,238.03,15.93,512
		s222.1,496.07,496.07,496.07s496.07-222.1,496.07-496.07S785.97,15.93,512,15.93L512,15.93z"/>
</g>
<path d="M736.93,769.07H287.07c-17.71,0-32.13-14.41-32.13-32.12v-32.12c0-5.88,3.21-11.29,8.38-14.11l157.27-85.78
	c-52.67-56.97-53.25-137.56-53.25-141.28l0.1-96.32c0-0.88,0.07-1.78,0.21-2.65c11.08-65.65,83.58-109.74,144.35-109.74
	c0.02,0,0.05,0,0.07,0c60.74,0,133.21,44.06,144.32,109.7c0.14,0.88,0.21,1.78,0.21,2.67l0.07,96.33c0,3.72-0.58,84.31-53.25,141.27
	l157.28,85.78c5.16,2.81,8.38,8.22,8.38,14.1v32.16C769.07,754.65,754.64,769.07,736.93,769.07z M736.93,736.94V753V736.94
	L736.93,736.94z M287.07,714.35v22.59h449.83l0.02-22.6L568.58,622.5c-4.71-2.57-7.83-7.31-8.32-12.64
	c-0.48-5.34,1.73-10.56,5.88-13.94c57.81-46.86,58.38-131.42,58.38-132.27l-0.06-94.91c-9.04-48.21-66.21-81.71-112.47-81.71
	c-46.27,0.02-103.42,33.53-112.43,81.74l-0.1,94.91c0,0.83,0.89,85.65,58.38,132.27c4.16,3.39,6.38,8.6,5.88,13.94
	c-0.48,5.34-3.6,10.08-8.32,12.64L287.07,714.35z"/>
</svg>
