<?xml version="1.0" encoding="utf-8"?>
<!-- Generator: Adobe Illustrator 23.0.2, SVG Export Plug-In . SVG Version: 6.00 Build 0)  -->
<svg version="1.1" id="Layer_1" xmlns="http://www.w3.org/2000/svg" xmlns:xlink="http://www.w3.org/1999/xlink" x="0px" y="0px"
	 viewBox="0 0 1024 1024" style="enable-background:new 0 0 1024 1024;" xml:space="preserve">
<g>
	<path d="M882.45,692.17h-0.06c-28.56-0.02-44.69-14.84-53.92-49.53c-9.43-35.48-9.75-86.93-10.09-141.41
		c-0.4-66-0.86-140.81-17.26-207.72c-1.94-7.91-9.93-12.75-17.85-10.81c-7.9,1.94-12.75,9.93-10.81,17.84
		c15.59,63.53,16.03,136.5,16.42,200.88c0.35,56.41,0.67,109.69,11.07,148.81c4.52,17.01,11.01,30.99,19.39,41.95H204.66
		c8.38-10.96,14.87-24.94,19.39-41.95c10.4-39.12,10.73-92.4,11.07-148.81c0.52-86.12,1.12-183.74,36.36-258.44
		C311.14,158.88,389.82,118,512,118c67.1,0,122.01,12.61,163.2,37.49c35.72,21.57,61.93,52.22,80.16,93.71
		c3.27,7.46,11.98,10.85,19.44,7.57c7.46-3.27,10.85-11.97,7.58-19.44c-20.47-46.59-51.39-82.62-91.92-107.1
		c-25.87-15.63-56.25-26.89-90.85-33.76c-3.49-45.29-41.43-81.1-87.6-81.1s-84.12,35.81-87.59,81.11
		c-33.01,6.54-62.19,17.08-87.24,31.59c-40.3,23.36-71.38,57.78-92.39,102.31c-38.01,80.59-38.63,181.67-39.17,270.84
		c-0.33,54.48-0.64,105.93-10.09,141.41c-9.23,34.69-25.36,49.51-53.92,49.53h-0.06c-47.69,0-86.49,38.8-86.49,86.49
		c0,47.69,38.8,86.49,86.49,86.49h93.37c8.15,0,14.75-6.61,14.75-14.75c0-8.15-6.61-14.75-14.75-14.75h-93.37
		c-31.42,0-56.99-25.57-56.99-56.99c0-31.42,25.56-56.98,56.98-56.99h0.01h0.05h740.78h0.05h0.02
		c31.41,0.01,56.97,25.57,56.97,56.99c0,31.42-25.57,56.99-56.99,56.99H293.93c-8.15,0-14.75,6.6-14.75,14.75
		c0,8.15,6.6,14.75,14.75,14.75h60.56c7.46,80.36,75.24,143.47,157.52,143.47c82.27,0,150.04-63.12,157.51-143.47h212.93
		c47.69,0,86.49-38.8,86.49-86.49C968.93,730.97,930.13,692.17,882.45,692.17z M512,44.87c28.25,0,51.88,20.18,57.24,46.88
		c-18.11-2.14-37.18-3.25-57.24-3.25s-39.13,1.11-57.23,3.24C460.13,65.04,483.75,44.87,512,44.87z M512,979.13
		c-65.99,0-120.51-49.92-127.86-113.97h255.7C632.51,929.21,577.99,979.13,512,979.13z"/>
	<path d="M748.86,107.95c0.27,0.14,26.53,15.13,52.37,49.95c34.62,46.63,52.16,104.89,52.16,173.16c0,8.15,6.61,14.75,14.75,14.75
		c8.15,0,14.75-6.61,14.75-14.75c0-93.98-32.09-156.36-59.02-192.14c-29.58-39.31-59.45-56.08-60.71-56.78
		c-7.12-3.93-16.04-1.35-20,5.74C739.22,94.99,741.78,103.96,748.86,107.95z"/>
	<path d="M860.16,113.36c2.37,1.55,58.14,38.98,58.14,133.15c0,8.15,6.61,14.75,14.75,14.75c8.15,0,14.75-6.6,14.75-14.75
		c0-111.06-68.8-156.13-71.73-157.99c-6.84-4.36-15.89-2.34-20.29,4.49C851.38,99.82,853.36,108.93,860.16,113.36z"/>
	<path d="M155.85,345.82c8.15,0,14.75-6.61,14.75-14.75c0-68.27,17.55-126.53,52.16-173.16c25.68-34.6,51.79-49.62,52.36-49.95
		c7.1-3.95,9.68-12.91,5.74-20.02c-3.95-7.13-12.92-9.71-20.05-5.78c-1.26,0.7-31.12,17.47-60.71,56.78
		c-26.92,35.78-59.01,98.16-59.01,192.14C141.1,339.21,147.7,345.82,155.85,345.82z"/>
	<path d="M90.95,261.25c8.15,0,14.75-6.6,14.75-14.75c0-94.09,55.68-131.54,58.14-133.14c6.82-4.39,8.82-13.47,4.46-20.32
		c-4.37-6.87-13.49-8.9-20.37-4.52c-2.93,1.86-71.73,46.92-71.73,157.99C76.19,254.65,82.8,261.25,90.95,261.25z"/>
</g>
</svg>
