<svg xmlns="http://www.w3.org/2000/svg" width="1024" height="1024" viewBox="0 0 1024 1024">
  <metadata><?xpacket begin="﻿" id="W5M0MpCehiHzreSzNTczkc9d"?>
<x:xmpmeta xmlns:x="adobe:ns:meta/" x:xmptk="Adobe XMP Core 5.6-c142 79.160924, 2017/07/13-01:06:39        ">
   <rdf:RDF xmlns:rdf="http://www.w3.org/1999/02/22-rdf-syntax-ns#">
      <rdf:Description rdf:about=""/>
   </rdf:RDF>
</x:xmpmeta>
                                                                                                    
                                                                                                    
                                                                                                    
                                                                                                    
                                                                                                    
                                                                                                    
                                                                                                    
                                                                                                    
                                                                                                    
                                                                                                    
                                                                                                    
                                                                                                    
                                                                                                    
                                                                                                    
                                                                                                    
                                                                                                    
                                                                                                    
                                                                                                    
                                                                                                    
                                                                                                    
                           
<?xpacket end="w"?></metadata>
<defs>
    <!--<style>
      .cls-1 {
        fill: #fff;
        fill-opacity: 0;
        stroke-width: 2px;
      }

      .cls-1, .cls-2 {
        stroke: #000;
        stroke-linejoin: round;
      }

      .cls-2 {
        stroke-opacity: 0.27;
        stroke-width: 1px;
        fill-rule: evenodd;
      }
    </style>-->
  </defs>
  <circle id="Ellipse_2_copy" data-name="Ellipse 2 copy" class="cls-1" cx="512" cy="512" r="507"/>
  <path id="_24" data-name="24" class="cls-2" d="M512.5,780.992L187.006,739.968V242.993L512.5,284.017l325.492-41.024V739.968Zm-305.148-58.5L512.5,760.955l305.148-38.462v-456.9L512.5,304.054,207.349,265.591v456.9Zm315.32,48.482H502.326V294.037h20.343V770.975Zm193.26-291.943-50.857-24.843-50.859,24.843V274.163h20.344V446.874l30.515-14.905,30.515,14.905V264.228h20.342v214.8ZM450.405,383.411L257.144,363.537l2.126-19.767,193.261,19.874Zm0,99.361L257.144,462.9l2.126-19.764,193.261,19.871Zm0,99.361L257.144,562.259,259.27,542.5,452.531,562.37Zm0,99.364L257.144,661.623l2.126-19.766,193.261,19.874ZM574.59,582.133l-2.125-19.763L765.725,542.5l2.125,19.763Zm0,99.364-2.125-19.766,193.26-19.874,2.125,19.766Z"/>
</svg>
