<?xml version="1.0" encoding="utf-8"?>
<!-- Generator: Adobe Illustrator 23.0.2, SVG Export Plug-In . SVG Version: 6.00 Build 0)  -->
<svg version="1.1" id="Layer_1" xmlns="http://www.w3.org/2000/svg" xmlns:xlink="http://www.w3.org/1999/xlink" x="0px" y="0px"
	 viewBox="0 0 1024 1024" style="enable-background:new 0 0 1024 1024;" xml:space="preserve">

<g>
	<path class="st0" d="M512,40.93c63.61,0,125.29,12.45,183.35,37.01c56.09,23.72,106.47,57.69,149.74,100.96
		s77.24,93.65,100.96,149.74c24.56,58.06,37.01,119.75,37.01,183.35s-12.45,125.29-37.01,183.35
		c-23.72,56.09-57.69,106.47-100.96,149.74c-43.27,43.27-93.65,77.24-149.74,100.96C637.29,970.6,575.6,983.05,512,983.05
		s-125.29-12.45-183.35-37.01c-56.09-23.72-106.47-57.69-149.74-100.96s-77.24-93.65-100.96-149.74
		C53.38,637.29,40.93,575.61,40.93,512s12.45-125.29,37.01-183.35c23.72-56.09,57.69-106.47,100.96-149.74
		s93.65-77.24,149.74-100.96C386.71,53.38,448.39,40.93,512,40.93 M512,15.93C238.03,15.93,15.93,238.03,15.93,512
		s222.1,496.07,496.07,496.07s496.07-222.1,496.07-496.07S785.97,15.93,512,15.93L512,15.93z"/>
</g>
<g>
	<g>
		<g>
			<path d="M682.94,479.19h-38.89v-91.14C644.05,315.24,584.81,256,512,256s-132.05,59.24-132.05,132.05v91.14h-38.89
				c-9.22,0-16.7,7.48-16.7,16.7V751.3c0,9.22,7.47,16.7,16.7,16.7h341.87c9.22,0,16.7-7.47,16.7-16.7V495.88
				C699.63,486.66,692.16,479.19,682.94,479.19z M413.34,388.05c0-54.4,44.26-98.66,98.66-98.66s98.66,44.26,98.66,98.66v91.14
				H413.34V388.05z M666.24,734.61H357.76V512.58h308.48V734.61z"/>
		</g>
	</g>
	<g>
		<g>
			<path d="M512,539.04c-31.09,0-56.39,25.3-56.39,56.39c0,25.28,16.73,46.73,39.69,53.87v42.16c0,9.22,7.48,16.7,16.7,16.7
				c9.22,0,16.7-7.47,16.7-16.7v-42.16c22.97-7.13,39.69-28.58,39.69-53.87C568.39,564.33,543.09,539.04,512,539.04z M512,618.42
				c-12.68,0-23-10.32-23-23s10.32-23,23-23c12.68,0,23,10.32,23,23S524.68,618.42,512,618.42z"/>
		</g>
	</g>
</g>
</svg>
