<?xml version="1.0" encoding="utf-8"?>
<!-- Generator: Adobe Illustrator 23.0.2, SVG Export Plug-In . SVG Version: 6.00 Build 0)  -->
<svg version="1.1" id="Layer_1" xmlns="http://www.w3.org/2000/svg" xmlns:xlink="http://www.w3.org/1999/xlink" x="0px" y="0px"
	 viewBox="0 0 1024 1024" style="enable-background:new 0 0 1024 1024;" xml:space="preserve">
<!--<style type="text/css">
	.st0{fill:#060606;}
</style>-->
<g>
	<path class="st0" d="M512,40.93c63.61,0,125.29,12.45,183.35,37.01c56.09,23.72,106.47,57.69,149.74,100.96
		s77.24,93.65,100.96,149.74c24.56,58.06,37.01,119.75,37.01,183.35s-12.45,125.29-37.01,183.35
		c-23.72,56.09-57.69,106.47-100.96,149.74c-43.27,43.27-93.65,77.24-149.74,100.96C637.29,970.6,575.6,983.05,512,983.05
		s-125.29-12.45-183.35-37.01c-56.09-23.72-106.47-57.69-149.74-100.96s-77.24-93.65-100.96-149.74
		C53.38,637.29,40.93,575.61,40.93,512s12.45-125.29,37.01-183.35c23.72-56.09,57.69-106.47,100.96-149.74
		s93.65-77.24,149.74-100.96C386.71,53.38,448.39,40.93,512,40.93 M512,15.93C238.03,15.93,15.93,238.03,15.93,512
		s222.1,496.07,496.07,496.07s496.07-222.1,496.07-496.07S785.97,15.93,512,15.93L512,15.93z"/>
</g>
<g>
	<g>
		<path d="M697.5,361.77l-141.13-75.77c-13.39-7.19-31.8-1.65-39.05,11.62l-82.56,152.1H334.35c-12.83,0-22.87,9.95-22.87,22.67
			V718.5c0,12.72,10.04,22.67,22.87,22.67H655.1c12.83,0,22.87-9.95,22.87-22.67v-57.52h9.48c5.02,0,8.92-3.87,8.92-8.85v-65.82
			c0-4.97-3.9-8.85-8.92-8.85h-9.48v-64.71c0-10.51-7.81-19.91-17.85-22.12l49.09-90.15C716.47,386.66,711.45,369.51,697.5,361.77z
			 M597.09,328.03l-88.14,162.05h-25.1l94.27-172L597.09,328.03z M533.5,305.9c2.79-4.97,9.48-7.19,14.5-4.42l13.95,7.74
			l-98.18,180.86h-30.68L533.5,305.9z M328.77,471.83c0-1.66,2.23-4.42,5.02-4.42h90.92l-12.27,22.12h-78.65
			c-1.67,0-3.35,0-5.02,0.55V471.83z M659.56,718.5c0,2.76-2.23,4.97-5.02,4.97H333.79c-2.79,0-5.02-2.21-5.02-4.97V512.76
			c0-2.77,2.23-4.98,5.02-4.98h320.19c2.79,0,5.02,2.21,5.02,4.98v64.71h-34.03c-15.06,0-26.77,12.17-26.77,26.54v30.42
			c0,14.93,12.27,26.54,26.77,26.54h34.59V718.5z M677.98,595.17v48.11h-53c-5.02,0-8.92-3.87-8.92-8.85v-30.42
			c0-4.97,3.9-8.85,8.92-8.85H677.98z M693.04,391.63l-53.55,98.45H529.03l83.67-153.2l75.87,40.93
			C694.15,380.02,695.82,386.66,693.04,391.63z M659.01,383.34l-4.46-2.21c-11.15-6.08-26.21-1.66-32.36,9.4l-5.58,10.51
			c-2.79,5.53-3.9,12.17-1.67,18.25c1.67,6.08,6.14,11.06,11.71,13.83l4.47,2.21c3.35,1.66,7.25,2.77,11.15,2.77
			c8.92,0,16.73-4.98,21.19-12.17l5.58-10.51C674.63,403.8,670.17,389.42,659.01,383.34z M652.87,407.12l-5.58,10.51
			c-1.67,2.76-5.58,3.87-8.37,2.21l-4.46-2.77c-1.12-0.55-2.23-2.21-2.79-3.32c-0.56-1.66-0.56-3.31,0.56-4.42l5.58-10.51
			c1.12-1.66,3.35-3.32,5.58-3.32c1.12,0,1.67,0,2.79,0.55l4.46,2.22C652.87,400.48,653.99,403.8,652.87,407.12z"/>
	</g>
</g>
</svg>
