<svg xmlns="http://www.w3.org/2000/svg" width="30.837" height="20.558" viewBox="0 0 30.837 20.558"><defs><style>.a{fill:#dbdbdb;}</style></defs><path class="a" d="M6.88,19.912h-.2q-.254,0-.254-.241a4.033,4.033,0,0,1,.254-1.138.4.4,0,0,1,.2-.261.936.936,0,0,1,.375-.06q1.031,0,1.031.656a.861.861,0,0,1-.408.8,1.889,1.889,0,0,1-1,.248Zm4.577,2.155q-.629,0-.629-.388,0-.83,1.646-.83l.04.04Q12.448,22.067,11.458,22.067Zm10.359-2.128h-.2a.225.225,0,0,1-.254-.254,4.033,4.033,0,0,1,.254-1.138.385.385,0,0,1,.194-.254,1.034,1.034,0,0,1,.381-.054q1.031,0,1.031.656a.861.861,0,0,1-.408.8,1.889,1.889,0,0,1-1,.248Zm4.577,2.141q-.629,0-.629-.4,0-.83,1.646-.83l.04.04q-.067,1.191-1.057,1.191ZM7.563,17.169H5.85a.363.363,0,0,0-.194.054.326.326,0,0,0-.114.1l-.094.167q-.04.094-.6,2.543T4.284,22.6a.231.231,0,0,0,.074.167.246.246,0,0,0,.181.074h.83q.335,0,.435-.462l.2-.924L6.439,21a6.435,6.435,0,0,0,1.171-.1,5.146,5.146,0,0,0,1.077-.328,1.875,1.875,0,0,0,.85-.7,2,2,0,0,0,.315-1.131,1.6,1.6,0,0,0-.194-.816,1.147,1.147,0,0,0-.549-.489,2.84,2.84,0,0,0-.716-.207,5.716,5.716,0,0,0-.83-.054Zm4.631,1.285a6.015,6.015,0,0,0-.99.08.975.975,0,0,0-.114.013l-.12.02-.1.02-.1.027-.087.04-.087.054-.067.067-.06.094-.054.12a2.235,2.235,0,0,0-.12.522q0,.134.12.134a1.332,1.332,0,0,0,.288-.067l.261-.08a3.009,3.009,0,0,1,.776-.107q.99,0,.99.482a.176.176,0,0,1-.134.187,1.691,1.691,0,0,1-.241.04q-.134.013-.288.02a2.086,2.086,0,0,0-.234.02,7.581,7.581,0,0,0-.863.134,4.019,4.019,0,0,0-.756.261,1.326,1.326,0,0,0-.609.522,1.583,1.583,0,0,0-.207.837.977.977,0,0,0,.348.8,1.3,1.3,0,0,0,.857.288,2.094,2.094,0,0,0,.609-.087,2.262,2.262,0,0,0,.442-.174q.154-.087.515-.315a.5.5,0,0,0-.04.2.246.246,0,0,0,.074.181.231.231,0,0,0,.167.074h.75a.411.411,0,0,1,.094-.047.777.777,0,0,0,.1-.047l.067-.047a.206.206,0,0,0,.067-.074.435.435,0,0,0,.033-.107l.6-2.6a1.367,1.367,0,0,0,.054-.4q0-1.084-1.941-1.084Zm7.067.067h-.99a.648.648,0,0,0-.522.308q-.067.094-.395.683T16.731,20.6a2.141,2.141,0,0,1-.348.515l-.067-.054a7.68,7.68,0,0,0-.361-2.222.291.291,0,0,0-.047-.114.489.489,0,0,0-.08-.087.921.921,0,0,0-.087-.067.305.305,0,0,0-.114-.04l-.114-.02q-.04-.007-.127-.013t-.12-.007h-.248q-.509,0-.509.281l.013.067q.067.709.335,2.021t.335,1.914a2.84,2.84,0,0,1,.027.321,1.781,1.781,0,0,1-.408.823,1.838,1.838,0,0,0-.408.783q0,.174.535.174.816,0,1.017-.335l3.279-5.554a1.107,1.107,0,0,0,.134-.348q0-.12-.107-.12ZM22.5,17.2H20.773q-.241,0-.388.308-.08.174-.622,2.563t-.542,2.55q0,.268.576.268h.341l.127-.013.114-.027.114-.04.087-.06.074-.08.04-.114.281-1.218a.388.388,0,0,1,.141-.228.4.4,0,0,1,.261-.094,6.884,6.884,0,0,0,1.171-.094,4.666,4.666,0,0,0,1.077-.328,1.933,1.933,0,0,0,.85-.7,1.969,1.969,0,0,0,.315-1.124,1.6,1.6,0,0,0-.194-.816,1.147,1.147,0,0,0-.549-.489,2.84,2.84,0,0,0-.716-.207,5.716,5.716,0,0,0-.83-.054Zm4.631,1.258a8.584,8.584,0,0,0-.99.08,1.294,1.294,0,0,0-.642.214A.793.793,0,0,0,25.35,19a1.74,1.74,0,0,0-.107.522q0,.134.107.134.013,0,.549-.161a3.009,3.009,0,0,1,.776-.107q.99,0,.99.482a.165.165,0,0,1-.134.187q-.054.013-.763.094a7.582,7.582,0,0,0-.863.134,4.019,4.019,0,0,0-.756.261,1.326,1.326,0,0,0-.609.522,1.583,1.583,0,0,0-.207.837.962.962,0,0,0,.348.783,1.3,1.3,0,0,0,.857.288,2.183,2.183,0,0,0,.6-.08,2.324,2.324,0,0,0,.455-.174q.174-.094.509-.321-.04.2-.04.214a.226.226,0,0,0,.027.114.18.18,0,0,0,.087.074l.107.047a.459.459,0,0,0,.141.027q.094.007.127.007h.234q.562,0,.642-.335l.6-2.6a2.111,2.111,0,0,0,.04-.415q0-1.084-1.941-1.084Zm4.31-1.218H30.7q-.335,0-.442.535-.134.589-.489,2.235t-.569,2.543v.067a.218.218,0,0,0,.214.241H30.2a.4.4,0,0,0,.248-.087.36.36,0,0,0,.141-.221l1.111-5.006h-.013l.013-.067a.231.231,0,0,0-.074-.167A.246.246,0,0,0,31.44,17.235ZM33.408,12V29.134a1.737,1.737,0,0,1-1.713,1.713H4.284a1.646,1.646,0,0,1-1.2-.509,1.646,1.646,0,0,1-.509-1.2V12a1.646,1.646,0,0,1,.509-1.2,1.646,1.646,0,0,1,1.2-.509H31.694A1.737,1.737,0,0,1,33.408,12Z" transform="translate(-2.571 -10.289)"/></svg>