<svg xmlns="http://www.w3.org/2000/svg" width="1024" height="1024" viewBox="0 0 1024 1024">
  <metadata><?xpacket begin="﻿" id="W5M0MpCehiHzreSzNTczkc9d"?>
<x:xmpmeta xmlns:x="adobe:ns:meta/" x:xmptk="Adobe XMP Core 5.6-c142 79.160924, 2017/07/13-01:06:39        ">
   <rdf:RDF xmlns:rdf="http://www.w3.org/1999/02/22-rdf-syntax-ns#">
      <rdf:Description rdf:about=""/>
   </rdf:RDF>
</x:xmpmeta>
                                                                                                    
                                                                                                    
                                                                                                    
                                                                                                    
                                                                                                    
                                                                                                    
                                                                                                    
                                                                                                    
                                                                                                    
                                                                                                    
                                                                                                    
                                                                                                    
                                                                                                    
                                                                                                    
                                                                                                    
                                                                                                    
                                                                                                    
                                                                                                    
                                                                                                    
                                                                                                    
                           
<?xpacket end="w"?></metadata>
<defs>
   <!-- <style>
      .cls-1 {
        fill: #fff;
        fill-opacity: 0;
        stroke: #000;
        stroke-linejoin: round;
        stroke-width: 2px;
      }

      .cls-2 {
        fill-rule: evenodd;
      }
    </style>-->
  </defs>
  <circle id="Ellipse_2_copy" data-name="Ellipse 2 copy" class="cls-1" cx="512" cy="512" r="507"/>
  <path class="cls-2" d="M333.58,610.839c59.4,70.741,130.905,126.44,212.516,165.852,31.073,14.67,72.628,32.075,118.924,35.06,2.871,0.124,5.616.248,8.486,0.248,31.073,0,56.031-10.693,76.371-32.7a2.7,2.7,0,0,0,.5-0.621c7.238-8.7,15.474-16.536,24.084-24.865,5.865-5.6,11.855-11.438,17.6-17.406,26.58-27.6,26.58-62.662-.249-89.392l-75-74.719c-12.729-13.179-27.952-20.142-43.926-20.142s-31.322,6.963-44.425,20.018l-44.674,44.509c-4.118-2.364-8.361-4.477-12.355-6.467a153.561,153.561,0,0,1-13.725-7.46c-40.682-25.734-77.62-59.3-112.936-102.443-17.845-22.5-29.824-41.4-38.185-60.672,11.73-10.567,22.712-21.633,33.319-32.45,3.744-3.854,7.612-7.708,11.48-11.562C464.859,382.2,472.1,366.661,472.1,350.872s-7.112-31.33-20.715-44.758L414.2,269.065c-4.369-4.35-8.486-8.579-12.729-12.93-8.236-8.454-16.846-17.157-25.332-24.99C363.28,218.589,348.181,212,332.208,212c-15.849,0-31.073,6.59-44.425,19.27l-46.671,46.5c-16.971,16.909-26.581,37.424-28.577,61.17-2.371,29.713,3.12,61.291,17.346,99.46C251.718,497.453,284.663,552.28,333.58,610.839Zm-90.6-269.292a65.662,65.662,0,0,1,19.842-42.271l46.421-46.25c7.238-6.961,15.225-10.567,22.962-10.567,7.611,0,15.349,3.606,22.462,10.817,8.36,7.709,16.222,15.789,24.708,24.367,4.243,4.351,8.61,8.7,12.978,13.179l37.187,37.049c7.738,7.708,11.731,15.541,11.731,23.249s-3.993,15.541-11.731,23.249c-3.869,3.854-7.737,7.833-11.605,11.687-11.6,11.686-22.462,22.752-34.442,33.321l-0.624.621c-10.357,10.318-8.736,20.14-6.24,27.6,0.125,0.372.25,0.621,0.375,1,9.608,23,22.961,44.882,43.8,70.989,37.437,46,76.87,81.684,120.3,109.16a179.064,179.064,0,0,0,16.472,8.952,154.519,154.519,0,0,1,13.727,7.458c0.5,0.25.873,0.5,1.372,0.747a26.173,26.173,0,0,0,12.1,3.107c9.983,0,16.473-6.34,18.593-8.453l46.672-46.5c7.237-7.212,15.1-11.066,22.836-11.066,9.484,0,17.221,5.843,22.089,11.066L770.218,668.9c14.975,14.919,14.85,31.081-.374,46.87-5.242,5.6-10.732,10.94-16.6,16.537-8.736,8.453-17.845,17.155-26.082,26.977-14.35,15.418-31.446,22.628-53.534,22.628-2.121,0-4.367-.125-6.489-0.249-40.93-2.61-78.991-18.525-107.568-32.075-77.62-37.423-145.754-90.51-202.284-157.895C310.744,535.87,279.422,483.9,258.707,428.2,245.854,394.012,240.987,366.537,242.983,341.547Z"/>
</svg>
