<?xml version="1.0" encoding="utf-8"?>
<!-- Generator: Adobe Illustrator 23.0.2, SVG Export Plug-In . SVG Version: 6.00 Build 0)  -->
<svg version="1.1" id="Layer_1" xmlns="http://www.w3.org/2000/svg" xmlns:xlink="http://www.w3.org/1999/xlink" x="0px" y="0px"
	 viewBox="0 0 1024 1024" style="enable-background:new 0 0 1024 1024;" xml:space="preserve">
<!--<style type="text/css">
	.st0{fill:#060606;}
</style>-->
<g>
	<path class="st0" d="M512,40.93c63.61,0,125.29,12.45,183.35,37.01c56.09,23.72,106.47,57.69,149.74,100.96
		s77.24,93.65,100.96,149.74c24.56,58.06,37.01,119.75,37.01,183.35s-12.45,125.29-37.01,183.35
		c-23.72,56.09-57.69,106.47-100.96,149.74c-43.27,43.27-93.65,77.24-149.74,100.96C637.29,970.6,575.6,983.05,512,983.05
		s-125.29-12.45-183.35-37.01c-56.09-23.72-106.47-57.69-149.74-100.96s-77.24-93.65-100.96-149.74
		C53.38,637.29,40.93,575.61,40.93,512s12.45-125.29,37.01-183.35c23.72-56.09,57.69-106.47,100.96-149.74
		s93.65-77.24,149.74-100.96C386.71,53.38,448.39,40.93,512,40.93 M512,15.93C238.03,15.93,15.93,238.03,15.93,512
		s222.1,496.07,496.07,496.07s496.07-222.1,496.07-496.07S785.97,15.93,512,15.93L512,15.93z"/>
</g>
<g>
	<g>
		<path class="st0" d="M576.03,299.86H348.77v424.28h326.46V396.55L576.03,299.86z M580.01,322.5l72,70.18h-72V322.5z
			 M661.63,710.88H362.37V313.12h204.04v92.81h95.22V710.88z M512,386.04h-95.22v13.26H512V386.04z M416.78,465.59h190.43v-13.26
			H416.78V465.59z M416.78,531.89h190.43v-13.26H416.78V531.89z M416.78,598.18h190.43v-13.26H416.78V598.18z M416.78,664.48h190.43
			v-13.26H416.78V664.48z"/>
	</g>
</g>
</svg>
