<?xml version="1.0" encoding="utf-8"?>
<!-- Generator: Adobe Illustrator 23.0.2, SVG Export Plug-In . SVG Version: 6.00 Build 0)  -->
<svg version="1.1" id="Layer_1" xmlns="http://www.w3.org/2000/svg" xmlns:xlink="http://www.w3.org/1999/xlink" x="0px" y="0px"
	 viewBox="0 0 1024 1024" style="enable-background:new 0 0 1024 1024;" xml:space="preserve">
<!--<style type="text/css">
	.st0{fill:#060606;}
</style>-->
<g>
	<path class="st0" d="M512,40.93c63.61,0,125.29,12.45,183.35,37.01c56.09,23.72,106.47,57.69,149.74,100.96
		s77.24,93.65,100.96,149.74c24.56,58.06,37.01,119.75,37.01,183.35s-12.45,125.29-37.01,183.35
		c-23.72,56.09-57.69,106.47-100.96,149.74c-43.27,43.27-93.65,77.24-149.74,100.96C637.29,970.6,575.6,983.05,512,983.05
		s-125.29-12.45-183.35-37.01c-56.09-23.72-106.47-57.69-149.74-100.96s-77.24-93.65-100.96-149.74
		C53.38,637.29,40.93,575.61,40.93,512s12.45-125.29,37.01-183.35c23.72-56.09,57.69-106.47,100.96-149.74
		s93.65-77.24,149.74-100.96C386.71,53.38,448.39,40.93,512,40.93 M512,15.93C238.03,15.93,15.93,238.03,15.93,512
		s222.1,496.07,496.07,496.07s496.07-222.1,496.07-496.07S785.97,15.93,512,15.93L512,15.93z"/>
</g>
<g>
	<path d="M702.96,604.88h-0.03c-14.72-0.01-23.04-7.65-27.79-25.53c-4.86-18.29-5.03-44.81-5.2-72.89
		c-0.21-34.02-0.44-72.59-8.9-107.07c-1-4.08-5.12-6.57-9.2-5.57c-4.07,1-6.57,5.12-5.57,9.2c8.04,32.75,8.26,70.36,8.46,103.55
		c0.18,29.08,0.34,56.54,5.71,76.71c2.33,8.77,5.68,15.98,10,21.63H353.57c4.32-5.65,7.66-12.86,10-21.63
		c5.36-20.16,5.53-47.63,5.71-76.71c0.27-44.39,0.58-94.71,18.74-133.22c20.45-43.35,61-64.42,123.98-64.42
		c34.59,0,62.89,6.5,84.13,19.32c18.41,11.12,31.93,26.92,41.32,48.3c1.69,3.84,6.18,5.59,10.02,3.9c3.84-1.69,5.59-6.17,3.91-10.02
		c-10.55-24.02-26.49-42.59-47.38-55.21c-13.34-8.05-29-13.86-46.83-17.4C555.36,274.46,535.8,256,512,256s-43.36,18.46-45.15,41.81
		c-17.02,3.37-32.06,8.8-44.97,16.29c-20.77,12.04-36.8,29.79-47.63,52.74c-19.59,41.54-19.91,93.64-20.19,139.61
		c-0.17,28.08-0.33,54.61-5.2,72.89c-4.76,17.88-13.07,25.52-27.79,25.53h-0.03c-24.58,0-44.58,20-44.58,44.59
		c0,24.58,20,44.58,44.58,44.58h48.13c4.2,0,7.61-3.41,7.61-7.61s-3.41-7.6-7.61-7.6h-48.13c-16.2,0-29.38-13.18-29.38-29.38
		s13.18-29.37,29.37-29.38h0h0.03h381.85h0.03h0.01c16.19,0,29.37,13.18,29.37,29.38s-13.18,29.38-29.38,29.38H399.59
		c-4.2,0-7.6,3.4-7.6,7.6s3.4,7.61,7.6,7.61h31.21C434.65,735.46,469.59,768,512,768c42.41,0,77.34-32.54,81.19-73.96h109.76
		c24.58,0,44.58-20,44.58-44.58C747.54,624.88,727.54,604.88,702.96,604.88z M512,271.21c14.56,0,26.74,10.4,29.5,24.16
		c-9.34-1.1-19.16-1.68-29.5-1.68s-20.17,0.57-29.5,1.67C485.26,281.61,497.44,271.21,512,271.21z M512,752.79
		c-34.02,0-62.12-25.73-65.91-58.75H577.9C574.12,727.06,546.01,752.79,512,752.79z"/>
	<path d="M634.1,303.72c0.14,0.07,13.68,7.8,27,25.75c17.84,24.04,26.89,54.07,26.89,89.26c0,4.2,3.41,7.61,7.61,7.61
		s7.61-3.41,7.61-7.61c0-48.45-16.54-80.6-30.42-99.04c-15.25-20.27-30.64-28.91-31.29-29.27c-3.67-2.02-8.27-0.7-10.31,2.96
		C629.13,297.04,630.44,301.67,634.1,303.72z"/>
	<path d="M691.47,306.51c1.22,0.8,29.97,20.09,29.97,68.63c0,4.2,3.41,7.6,7.61,7.6s7.6-3.4,7.6-7.6
		c0-57.25-35.46-80.48-36.98-81.44c-3.53-2.25-8.19-1.21-10.46,2.31C686.94,299.53,687.96,304.23,691.47,306.51z"/>
	<path d="M328.41,426.34c4.2,0,7.61-3.41,7.61-7.61c0-35.19,9.05-65.22,26.89-89.26c13.24-17.84,26.7-25.58,26.99-25.75
		c3.66-2.04,4.99-6.65,2.96-10.32c-2.04-3.68-6.66-5.01-10.34-2.98c-0.65,0.36-16.04,9-31.29,29.27
		c-13.88,18.44-30.42,50.6-30.42,99.04C320.81,422.93,324.21,426.34,328.41,426.34z"/>
	<path d="M294.96,382.75c4.2,0,7.6-3.4,7.6-7.6c0-48.5,28.7-67.8,29.97-68.63c3.52-2.26,4.55-6.95,2.3-10.48
		c-2.25-3.54-6.95-4.59-10.5-2.33c-1.51,0.96-36.98,24.19-36.98,81.44C287.35,379.34,290.76,382.75,294.96,382.75z"/>
</g>
</svg>
