<?xml version="1.0" encoding="utf-8"?>
<!-- Generator: Adobe Illustrator 23.0.2, SVG Export Plug-In . SVG Version: 6.00 Build 0)  -->
<svg version="1.1" id="Layer_1" xmlns="http://www.w3.org/2000/svg" xmlns:xlink="http://www.w3.org/1999/xlink" x="0px" y="0px"
	 viewBox="0 0 1024 1024" style="enable-background:new 0 0 1024 1024;" xml:space="preserve">
<!--<style type="text/css">
	.st0{fill:#060606;}
</style>-->
<g>
	<path d="M213.5,475.85c30.65-37.56,61.31-75.13,91.95-112.7c6.38-7.83,12.89-15.57,19.02-23.59c5.82-7.6,12.38-8.51,20.24-3.46
		c12.09,7.76,24.94,14.53,36.23,23.31c27.16,21.12,60.54,24.87,91.85,34.42c2.39,0.73,5.38,0.03,7.96-0.57
		c4.15-0.96,8.33-2.03,12.26-3.65c39.59-16.32,81.2-15.08,122.74-13.99c8.57,0.22,15.7-1.91,22.79-6.64
		c16.15-10.77,32.69-20.96,49.09-31.34c11.72-7.42,15.8-6.72,24.35,4.39c31.29,40.63,62.53,81.29,93.83,121.92
		c1.37,1.78,3.11,3.28,4.68,4.91c0,3.11,0,6.22,0,9.33c-17.07,17.54-36.74,32.14-54.86,48.49c-3.46,3.12-6.7,6.17-8.78,10.61
		c-10.51,22.46-21.24,44.81-32.08,67.11c-2.18,4.48-2.35,8.16-0.46,13.09c10.14,26.3-3,50.83-30.24,56.92
		c-5.03,1.12-7.89,2.41-8.93,8.38c-3.27,18.78-14.77,30.2-33.61,33.78c-4.59,0.87-7.36,2.11-8.28,7.64
		c-3.21,19.37-14.95,30.9-34.29,34.46c-4.16,0.76-7.03,1.84-7.54,6.95c-3.13,31.21-42.13,47.49-67.46,25.82
		c-3.29-2.82-5.8-3.4-8.66,0.17c-6.87,8.6-17.11,11.39-26.64,15.4c-3.11,0-6.22,0-9.33,0c-15.76-4.79-29.63-12.23-34.51-29.34
		c-1.84-6.46-4.48-8.17-11.03-8.61c-19.2-1.29-34.74-14.22-37.75-32.21c-1.3-7.8-4.62-9.77-11.38-11.3
		c-18.21-4.13-30.76-18.77-31.13-37.14c-0.15-7.42-3.11-9.33-9.27-11.46c-25.44-8.83-35.81-36.64-21.87-59.61
		c4.01-6.61,3.39-10.49-1.09-15.95c-7.13-8.68-13.96-17.69-20.14-27.06c-16.4-24.87-36.87-45.75-60.11-64.25
		c-9.66-7.69-19.6-15.25-27.58-24.89C213.5,482.07,213.5,478.96,213.5,475.85z M438.69,550.66c-36.84,0.73-57.31-31.71-42.41-60.29
		c10.58-20.29,22.44-39.9,33.72-59.82c11.88-20.99,11.85-20.93-11.57-27.19c-6-1.6-10.93-3.76-16.34,2.95
		c-32.41,40.22-65.27,80.08-98.26,119.81c-4.13,4.97-3.65,8.13-0.02,12.86c12.07,15.7,23.83,31.64,35.45,47.67
		c3.19,4.41,5.24,5.73,10.93,2.5c24.58-13.98,50.14-4.68,60.61,21.87c1.97,4.98,3.74,6.01,8.93,5.91
		c22.79-0.46,38.27,12.06,42.81,34.56c0.98,4.87,2.18,7.09,7.39,8.21c23.24,5.02,34.3,18.56,34.8,42.47
		c0.11,5.03,1.32,7.28,6.19,9.27c23.43,9.55,32.42,27.47,25.77,52.31c-1.61,6,0,8.76,4.49,11.22c8.57,4.7,16.86,3.99,23.11-3.56
		c6.17-7.46,6.08-16.04-0.5-23.35c-8.05-8.93-16.71-17.33-25.22-25.84c-5.83-5.83-9.31-12.4-2.65-19.22
		c6.72-6.88,13.3-3.5,19.11,2.43c8.43,8.6,16.7,17.39,25.58,25.5c7.42,6.78,17.56,6.41,24.31,0.12c7-6.53,7.4-17.04,0.78-25.17
		c-2.2-2.7-4.77-5.1-7.22-7.59c-14.19-14.38-28.44-28.69-42.57-43.12c-5.28-5.39-6.89-11.68-1.2-17.5
		c5.67-5.81,11.91-4.41,17.51,0.74c2.28,2.1,4.41,4.38,6.59,6.59c13.93,14.08,27.7,28.33,41.85,42.2c8.75,8.58,19.6,8.79,26.89,1.26
		c6.89-7.12,6.46-17.62-1.16-26.11c-2.07-2.31-4.36-4.43-6.54-6.64c-22.12-22.38-44.23-44.76-66.36-67.12
		c-5.57-5.62-8.27-11.89-1.93-18.29c6.23-6.29,12.62-4.21,18.3,1.52c4.92,4.97,9.85,9.92,14.77,14.89
		c19.4,19.6,38.64,39.37,58.26,58.74c8.54,8.43,19.84,8.34,26.9,0.77c6.73-7.22,6.09-17.61-1.66-26.09
		c-2.1-2.29-4.37-4.42-6.57-6.62c-33.23-33.24-67.63-65.41-99.28-100.09c-20.53-22.49-42.12-37.93-73.74-34.37
		c-0.38,0.04-0.78-0.02-1.16-0.11c-6.57-1.53-10.62,0.75-13.89,6.97c-7.74,14.77-16.15,29.2-24.54,43.62
		C461.13,542.94,449.43,550.23,438.69,550.66z M583.58,399.83c-13.78,0.05-28.36-3.24-42.38,0.5c-24.34,6.49-48.39,14.05-72.66,20.8
		c-5.26,1.46-8.71,3.88-11.38,8.7c-12.41,22.39-25.25,44.54-37.78,66.87c-7,12.47-5.29,22.76,4.36,28.34
		c9.94,5.75,19.51,2.16,26.71-10.35c9.48-16.47,19.05-32.9,28.03-49.65c4.24-7.91,9.85-11.1,18.77-10.26
		c17,1.6,34.04,3.04,51.1,3.68c9.31,0.35,15.79,4.25,22.14,10.67c38.51,38.92,77.41,77.46,115.95,116.35
		c5.6,5.65,8.49,7.64,12.43-1.57c7.17-16.74,15.23-33.12,23.49-49.35c3.07-6.03,2.65-10.09-1.65-15.45
		c-23.1-28.75-47.22-56.85-68.09-87.16C635.32,406.82,616.75,389.7,583.58,399.83z M385.23,389.51c-1.51-0.91-2.85-1.68-4.15-2.51
		c-12.74-8.13-25.55-16.15-38.18-24.45c-4.82-3.16-6.81-0.03-9.34,3.11c-29.2,36.23-58.37,72.48-87.79,108.53
		c-3.51,4.3-3.43,6.67,0.82,10.15c10.5,8.6,20.88,17.36,30.84,26.57c4.58,4.23,6.8,2.57,10-1.35
		c30.91-37.84,61.95-75.57,92.94-113.35C381.81,394.46,383.04,392.54,385.23,389.51z M781.54,471.44c-0.65-1.04-1.18-2.09-1.88-3.01
		c-26.72-34.73-53.48-69.42-80.13-104.2c-2.87-3.74-5.36-3.16-8.8-0.91c-12,7.84-24.07,15.59-36.3,23.07
		c-4.32,2.64-4.89,4.72-1.61,8.86c28.18,35.55,56.25,71.21,84.16,106.98c3.4,4.35,5.78,5.02,10.06,1.14
		c10.06-9.11,20.54-17.75,30.76-26.68C779.38,475.3,781.9,474.31,781.54,471.44z M439.68,657.63
		c-0.24-13.62-15.49-22.72-26.57-14.61c-13.03,9.53-24.96,21-34.07,34.39c-7.63,11.21,2.09,26.44,15.56,26.24
		C406,703.48,439.87,668.9,439.68,657.63z M436.58,746.02c1.81-0.49,4.44-0.53,6.18-1.79c14.43-10.45,27.52-22.48,37.1-37.51
		c4.71-7.39,1.45-15.27-5.31-20.53c-6.85-5.33-15.06-5.59-21.41,0.06c-10.94,9.73-21.21,20.28-31.14,31.06
		c-4.78,5.2-4.79,12.04-1.71,18.51C423.43,742.43,429.18,745.12,436.58,746.02z M515.74,750.47c0.18-13.11-13.8-22.28-25.28-15.83
		c-9.49,5.33-17.45,13.17-22.65,22.74c-6.26,11.52,3.14,25.28,16.3,25.04C495.16,782.22,515.59,761.58,515.74,750.47z
		 M389.51,623.39c-0.29-13.66-15.29-22.09-26.82-14.46c-8.05,5.32-15.17,12.29-20.32,20.46c-7.38,11.7,1.32,26.32,15.08,26.44
		C369.31,655.93,389.76,635.24,389.51,623.39z"/>
	<path d="M516.66,217c1.29,1.37,2.7,2.64,3.86,4.11c4.56,5.77,4.16,11.42-1.27,16.22c-4.62,4.1-9.94,4.08-14.57,0
		c-5.48-4.83-5.66-10.51-1.26-16.27c1.13-1.48,2.6-2.72,3.91-4.06C510.45,217,513.55,217,516.66,217z"/>
	<path d="M368.41,250.02c4.85,0.43,7.92,2.66,10.72,5.47c25.19,25.2,50.37,50.41,75.6,75.57c5.94,5.92,8.88,12.52,1.74,19.02
		c-6.42,5.84-12.69,3.16-18.3-2.47c-25.13-25.26-50.31-50.47-75.59-75.58c-4.64-4.6-6.57-9.61-3.82-15.64
		C360.7,252.15,364.69,250.56,368.41,250.02z"/>
	<path d="M574.69,353.09c-4.64-0.29-8.03-2.42-10.04-6.7c-2.53-5.39-0.68-9.81,3.13-13.67c10.62-10.74,21.32-21.4,32-32.09
		c14.78-14.8,29.62-29.54,44.33-44.41c5.83-5.89,12.29-9.38,19.01-2.43c6.56,6.77,3.32,13.32-2.56,19.17
		c-24.99,24.86-49.92,49.77-74.82,74.71C582.64,350.8,579.37,353.31,574.69,353.09z"/>
	<path d="M500.34,308.03c0-10.08,0.06-20.16-0.02-30.24c-0.06-7.7,3.32-13.33,11.11-13.62c8.49-0.31,12.25,5.38,12.24,13.63
		c-0.01,20.55-0.02,41.09,0,61.64c0.01,8.25-3.5,13.8-12.25,13.5c-8.14-0.28-11.12-5.89-11.08-13.51
		C500.38,328.96,500.34,318.5,500.34,308.03z"/>
</g>
<g>
	<path class="st0" d="M512,40.93c63.61,0,125.29,12.45,183.35,37.01c56.09,23.72,106.47,57.69,149.74,100.96
		c43.27,43.27,77.24,93.65,100.96,149.74c24.56,58.06,37.01,119.75,37.01,183.35s-12.45,125.29-37.01,183.35
		c-23.72,56.09-57.69,106.47-100.96,149.74c-43.27,43.27-93.65,77.24-149.74,100.96c-58.06,24.56-119.75,37.01-183.35,37.01
		s-125.29-12.45-183.35-37.01c-56.09-23.72-106.47-57.69-149.74-100.96c-43.27-43.27-77.24-93.65-100.96-149.74
		C53.38,637.29,40.93,575.61,40.93,512s12.45-125.29,37.01-183.35c23.72-56.09,57.69-106.47,100.96-149.74
		s93.65-77.24,149.74-100.96C386.71,53.38,448.39,40.93,512,40.93 M512,15.93C238.03,15.93,15.93,238.03,15.93,512
		s222.1,496.07,496.07,496.07s496.07-222.1,496.07-496.07S785.97,15.93,512,15.93L512,15.93z"/>
</g>
</svg>
