<?xml version="1.0" encoding="utf-8"?>
<!-- Generator: Adobe Illustrator 23.0.2, SVG Export Plug-In . SVG Version: 6.00 Build 0)  -->
<svg version="1.1" id="Layer_1" xmlns="http://www.w3.org/2000/svg" xmlns:xlink="http://www.w3.org/1999/xlink" x="0px" y="0px"
	 viewBox="0 0 1024 1024" style="enable-background:new 0 0 1024 1024;" xml:space="preserve">
<!--<style type="text/css">
	.st0{fill:#060606;}
</style>-->
<g>
	<path class="st0" d="M512,40.93c63.61,0,125.29,12.45,183.35,37.01c56.09,23.72,106.47,57.69,149.74,100.96
		c43.27,43.27,77.24,93.65,100.96,149.74c24.56,58.06,37.01,119.75,37.01,183.35s-12.45,125.29-37.01,183.35
		c-23.72,56.09-57.69,106.47-100.96,149.74c-43.27,43.27-93.65,77.24-149.74,100.96c-58.06,24.56-119.75,37.01-183.35,37.01
		s-125.29-12.45-183.35-37.01c-56.09-23.72-106.47-57.69-149.74-100.96c-43.27-43.27-77.24-93.65-100.96-149.74
		C53.38,637.29,40.93,575.61,40.93,512s12.45-125.29,37.01-183.35c23.72-56.09,57.69-106.47,100.96-149.74
		s93.65-77.24,149.74-100.96C386.71,53.38,448.39,40.93,512,40.93 M512,15.93C238.03,15.93,15.93,238.03,15.93,512
		s222.1,496.07,496.07,496.07s496.07-222.1,496.07-496.07S785.97,15.93,512,15.93L512,15.93z"/>
</g>
<path d="M745.94,487.61c18.77-13.18,31.2-35.1,31.2-59.8c0-40.42-32.73-73.11-73.2-73.11c-40.47,0-73.2,32.68-73.2,73.11
	c0,24.7,12.31,46.63,31.21,59.8c-16.12,5.57-30.83,14.19-43.26,25.34c-17.13-14.57-37.3-25.72-59.37-32.31
	c26.77-16.22,44.78-45.74,44.78-79.32c0-51.19-41.48-92.62-92.74-92.62c-51.25,0-92.74,41.56-92.74,92.62
	c0,33.58,17.89,63.1,44.79,79.32c-21.82,6.59-41.74,17.61-58.74,31.93c-12.43-10.9-26.89-19.39-42.75-24.83
	c18.78-13.18,31.21-35.1,31.21-59.8c0-40.42-32.73-73.12-73.21-73.12c-40.47,0-73.2,32.69-73.2,73.12c0,24.7,12.31,46.63,31.21,59.8
	c-50.37,17.35-86.52,65.13-86.52,121.26v8.36c0,0.25,0.25,0.5,0.5,0.5h155.16c-0.89,6.97-1.39,14.2-1.39,21.41v8.62
	c0,37.25,30.19,67.41,67.49,67.41h196.65c37.29,0,67.49-30.16,67.49-67.41v-8.62c0-7.22-0.51-14.44-1.4-21.41h156.17
	c0.25,0,0.51-0.25,0.51-0.5V609C832.33,552.74,796.31,504.97,745.94,487.61z M651.04,427.68c0-29.14,23.72-52.84,52.9-52.84
	c29.18,0,52.91,23.69,52.91,52.84c0,28.76-23.22,52.2-51.89,52.84c-0.38,0-0.63,0-1.01,0c-0.38,0-0.63,0-1.01,0
	C674.13,480.01,651.04,456.57,651.04,427.68z M438.67,401.32c0-39.91,32.48-72.35,72.44-72.35c39.96,0,72.44,32.44,72.44,72.35
	c0,38.52-30.32,70.06-68.25,72.22c-1.39,0-2.8,0-4.19,0c-1.39,0-2.79,0-4.18,0C468.99,471.39,438.67,439.84,438.67,401.32z
	 M266.64,427.68c0-29.14,23.73-52.84,52.91-52.84s52.9,23.69,52.9,52.84c0,28.76-23.22,52.2-51.89,52.84c-0.38,0-0.64,0-1.01,0
	c-0.38,0-0.64,0-1.02,0C289.86,480.01,266.64,456.57,266.64,427.68z M350.62,597.46H211.96c5.71-53.98,51.38-96.29,106.82-96.67
	c0.25,0,0.51,0,0.76,0s0.5,0,0.76,0c26.39,0.13,50.49,9.88,69.14,25.72C371.18,546.27,357.6,570.6,350.62,597.46z M656.75,647.89
	c0,25.98-21.19,47.14-47.19,47.14H412.92c-26.01,0-47.2-21.16-47.2-47.14v-8.62c0-78.68,62.93-143.04,141.2-145.32
	c1.39,0.12,2.92,0.12,4.31,0.12c1.39,0,2.92,0,4.31-0.12c78.28,2.28,141.2,66.64,141.2,145.32V647.89z M671.85,597.46
	c-6.97-26.73-20.3-50.68-38.44-70.45c18.78-16.21,43.14-25.97,69.78-26.23c0.25,0,0.5,0,0.76,0c0.25,0,0.51,0,0.76,0
	c55.44,0.38,101.11,42.7,106.82,96.67H671.85z"/>
</svg>
