<?xml version="1.0" encoding="utf-8"?>
<!-- Generator: Adobe Illustrator 23.0.2, SVG Export Plug-In . SVG Version: 6.00 Build 0)  -->
<svg version="1.1" id="Layer_1" xmlns="http://www.w3.org/2000/svg" xmlns:xlink="http://www.w3.org/1999/xlink" x="0px" y="0px"
	 viewBox="0 0 1024 1024" style="enable-background:new 0 0 1024 1024;" xml:space="preserve">
<!--<style type="text/css">
	.st0{fill:#060606;}
</style>-->
<g>
	<path class="st0" d="M512,40.93c63.61,0,125.29,12.45,183.35,37.01c56.09,23.72,106.47,57.69,149.74,100.96
		s77.24,93.65,100.96,149.74c24.56,58.06,37.01,119.75,37.01,183.35s-12.45,125.29-37.01,183.35
		c-23.72,56.09-57.69,106.47-100.96,149.74c-43.27,43.27-93.65,77.24-149.74,100.96C637.29,970.6,575.6,983.05,512,983.05
		s-125.29-12.45-183.35-37.01c-56.09-23.72-106.47-57.69-149.74-100.96s-77.24-93.65-100.96-149.74
		C53.38,637.29,40.93,575.61,40.93,512s12.45-125.29,37.01-183.35c23.72-56.09,57.69-106.47,100.96-149.74
		s93.65-77.24,149.74-100.96C386.71,53.38,448.39,40.93,512,40.93 M512,15.93C238.03,15.93,15.93,238.03,15.93,512
		s222.1,496.07,496.07,496.07s496.07-222.1,496.07-496.07S785.97,15.93,512,15.93L512,15.93z"/>
</g>
<path class="st0" d="M713.32,516.1h-73.95v-25.6c37.21-5.92,65.74-38.2,65.74-77.01v-16.42c0-6.8-5.52-12.31-12.33-12.31
	s-12.33,5.51-12.33,12.31v16.42c0,25.19-17.56,46.33-41.08,51.9v-10.86c0-11.31-9.22-20.52-20.54-20.52H606.5v-45.15
	c0-25.9-18.57-47.54-43.11-52.35l9.18-20.63c2.76-6.21-0.03-13.49-6.25-16.25c-6.23-2.76-13.51,0.03-16.27,6.25l-13.18,29.63h-49.71
	l-13.18-29.63c-2.76-6.22-10.05-9.02-16.27-6.25s-9.02,10.04-6.26,16.25l9.18,20.63c-24.54,4.81-43.11,26.45-43.11,52.35v45.15
	h-12.33c-11.33,0-20.54,9.2-20.54,20.52v10.86c-23.53-5.58-41.09-26.72-41.09-51.9v-16.42c0-6.8-5.51-12.31-12.32-12.31
	c-6.81,0-12.33,5.51-12.33,12.31v16.42c0,38.81,28.53,71.09,65.74,77.01v25.6h-73.96c-6.81,0-12.33,5.51-12.33,12.31
	s5.52,12.31,12.33,12.31h73.95v25.6c-37.21,5.92-65.73,38.2-65.73,77v16.42c0,6.79,5.51,12.31,12.32,12.31
	c6.81,0,12.33-5.51,12.33-12.31v-16.42c0-25.18,17.56-46.33,41.08-51.9v6.76c0,70.15,57.14,127.23,127.37,127.23
	s127.36-57.08,127.36-127.23v-6.76c23.53,5.57,41.08,26.72,41.08,51.9v16.42c0,6.8,5.52,12.31,12.33,12.31s12.33-5.51,12.33-12.31
	v-16.42c0-38.81-28.53-71.09-65.74-77.01v-25.6h73.95c6.81,0,12.33-5.51,12.33-12.31S720.13,516.1,713.32,516.1z M442.15,388.87
	c0-15.84,12.9-28.73,28.76-28.73h82.18c15.86,0,28.76,12.89,28.76,28.73v45.15H442.15V388.87z M614.71,598.19
	c0,56.58-46.07,102.61-102.71,102.61c-56.64,0-102.72-46.03-102.72-102.61V458.65h90.39v119.02c0,6.8,5.52,12.31,12.33,12.31
	c6.81,0,12.33-5.51,12.33-12.31V458.65h90.38V598.19z"/>
</svg>
