<?xml version="1.0" encoding="utf-8"?>
<!-- Generator: Adobe Illustrator 23.0.2, SVG Export Plug-In . SVG Version: 6.00 Build 0)  -->
<svg version="1.1" id="Layer_1" xmlns="http://www.w3.org/2000/svg" xmlns:xlink="http://www.w3.org/1999/xlink" x="0px" y="0px"
	 viewBox="0 0 1024 1024" style="enable-background:new 0 0 1024 1024;" xml:space="preserve">
<!--<style type="text/css">
	.st0{fill:#114D88;}
</style>-->
<g>
	<g>
		<path class="st0" d="M903.63,108.96h-90.62V82.35c0-31.45-25.59-57.03-57.03-57.03c-31.45,0-57.03,25.59-57.03,57.03v26.61H379.56
			V82.35c0-31.45-25.58-57.03-57.03-57.03c-31.45,0-57.03,25.59-57.03,57.03v27.32c-1.62-0.45-3.31-0.7-5.07-0.7h-75.75
			c-52.41,0-95.05,42.64-95.05,95.06v323.82c0,10.5,8.51,19.01,19.01,19.01c10.5,0,19.01-8.51,19.01-19.01V304.78h685.37
			c10.5,0,19.01-8.51,19.01-19.01c0-10.5-8.51-19.01-19.01-19.01H127.64v-62.74c0-31.45,25.58-57.03,57.03-57.03h75.75
			c1.76,0,3.45-0.26,5.07-0.7v24.47c0,31.45,25.58,57.03,57.03,57.03c31.45,0,57.03-25.58,57.03-57.03v-23.76h319.39v23.76
			c0,31.45,25.59,57.03,57.03,57.03c31.45,0,57.03-25.58,57.03-57.03v-23.76h90.62c31.45,0,57.03,25.59,57.03,57.03v722.41
			c0,18.87-15.36,34.23-34.23,34.23c-18.88,0-34.23-15.36-34.23-34.23v-49.18c0-10.5-8.51-19.01-19.01-19.01H652.05
			c-10.5,0-19.01,8.51-19.01,19.01c0,10.5,8.51,19.01,19.01,19.01h202.13v30.17c0,12.38,3.13,24.04,8.64,34.23H97.56
			c-18.87,0-34.22-15.35-34.22-34.22v-30.18h425.52c10.5,0,19.01-8.51,19.01-19.01c0-10.5-8.51-19.01-19.01-19.01H298.9
			c33.22-28.61,54.31-70.93,54.31-118.11c0-85.96-69.93-155.89-155.89-155.89S41.43,654.17,41.43,740.13
			c0,47.18,21.09,89.5,54.32,118.11H44.33c-10.5,0-19.01,8.51-19.01,19.01v49.19c0,39.83,32.41,72.24,72.24,72.24h828.87
			c39.84,0,72.25-32.41,72.25-72.25V204.02C998.69,151.61,956.04,108.96,903.63,108.96z M341.53,170.75
			c0,10.48-8.53,19.01-19.01,19.01c-10.48,0-19.01-8.53-19.01-19.01v-88.4c0-10.48,8.53-19.01,19.01-19.01
			c10.48,0,19.01,8.53,19.01,19.01V170.75z M774.99,170.75c0,10.48-8.53,19.01-19.01,19.01c-10.48,0-19.01-8.53-19.01-19.01v-88.4
			c0-10.48,8.53-19.01,19.01-19.01c10.48,0,19.01,8.53,19.01,19.01V170.75z M79.46,740.13c0-64.99,52.88-117.87,117.87-117.87
			s117.87,52.88,117.87,117.87S262.32,858,197.33,858S79.46,805.13,79.46,740.13z M902.18,304.78c5,0,9.9-2.04,13.44-5.57
			c3.54-3.54,5.57-8.44,5.57-13.44c0-5-2.03-9.9-5.57-13.44c-3.54-3.54-8.44-5.57-13.44-5.57c-5,0-9.9,2.03-13.44,5.57
			c-3.54,3.54-5.57,8.44-5.57,13.44c0,5,2.03,9.9,5.57,13.44C892.28,302.74,897.18,304.78,902.18,304.78z M566.2,863.8
			c-3.54,3.56-5.57,8.44-5.57,13.44c0,5.02,2.03,9.9,5.57,13.46c3.54,3.54,8.44,5.55,13.44,5.55c5,0,9.9-2.01,13.44-5.55
			c3.54-3.56,5.57-8.46,5.57-13.46c0-5-2.04-9.89-5.57-13.44c-3.53-3.54-8.44-5.55-13.44-5.55
			C574.64,858.25,569.74,860.26,566.2,863.8z M455.43,747.74c39.83,0,72.24-32.41,72.24-72.24c0-39.83-32.41-72.24-72.24-72.24
			c-39.83,0-72.24,32.41-72.24,72.24C383.19,715.33,415.6,747.74,455.43,747.74z M455.43,641.28c18.87,0,34.22,15.35,34.22,34.22
			s-15.35,34.22-34.22,34.22c-18.87,0-34.22-15.35-34.22-34.22S436.56,641.28,455.43,641.28z M632.87,747.74
			c39.83,0,72.24-32.41,72.24-72.24c0-39.83-32.41-72.24-72.24-72.24c-39.83,0-72.24,32.41-72.24,72.24
			C560.63,715.33,593.04,747.74,632.87,747.74z M632.87,641.28c18.87,0,34.22,15.35,34.22,34.22s-15.35,34.22-34.22,34.22
			c-18.87,0-34.22-15.35-34.22-34.22S614,641.28,632.87,641.28z M810.31,747.74c39.83,0,72.24-32.41,72.24-72.24
			c0-39.83-32.41-72.24-72.24-72.24c-39.83,0-72.24,32.41-72.24,72.24C738.06,715.33,770.47,747.74,810.31,747.74z M810.31,641.28
			c18.87,0,34.22,15.35,34.22,34.22s-15.35,34.22-34.22,34.22c-18.87,0-34.22-15.35-34.22-34.22S791.44,641.28,810.31,641.28z
			 M350.24,477.78c0-39.83-32.41-72.24-72.24-72.24c-39.83,0-72.24,32.41-72.24,72.24c0,39.83,32.41,72.24,72.24,72.24
			C317.83,550.02,350.24,517.61,350.24,477.78z M243.78,477.78c0-18.87,15.35-34.22,34.22-34.22s34.22,15.35,34.22,34.22
			c0,18.87-15.35,34.22-34.22,34.22S243.78,496.65,243.78,477.78z M632.87,550.02c39.83,0,72.24-32.41,72.24-72.24
			c0-39.83-32.41-72.24-72.24-72.24c-39.83,0-72.24,32.41-72.24,72.24C560.63,517.61,593.04,550.02,632.87,550.02z M632.87,443.56
			c18.87,0,34.22,15.35,34.22,34.22c0,18.87-15.35,34.22-34.22,34.22c-18.87,0-34.22-15.35-34.22-34.22
			C598.65,458.91,614,443.56,632.87,443.56z M810.31,550.02c39.83,0,72.24-32.41,72.24-72.24c0-39.83-32.41-72.24-72.24-72.24
			c-39.83,0-72.24,32.41-72.24,72.24C738.06,517.61,770.47,550.02,810.31,550.02z M810.31,443.56c18.87,0,34.22,15.35,34.22,34.22
			c0,18.87-15.35,34.22-34.22,34.22c-18.87,0-34.22-15.35-34.22-34.22C776.09,458.91,791.44,443.56,810.31,443.56z M455.43,550.02
			c39.83,0,72.24-32.41,72.24-72.24c0-39.83-32.41-72.24-72.24-72.24c-39.83,0-72.24,32.41-72.24,72.24
			C383.19,517.61,415.6,550.02,455.43,550.02z M455.43,443.56c18.87,0,34.22,15.35,34.22,34.22c0,18.87-15.35,34.22-34.22,34.22
			c-18.87,0-34.22-15.35-34.22-34.22C421.21,458.91,436.56,443.56,455.43,443.56z M162.81,796.04c3.57,3.56,8.4,5.57,13.44,5.57
			c5.04,0,9.88-2,13.44-5.57l75.36-75.36c7.42-7.42,7.42-19.46,0-26.89c-7.43-7.42-19.46-7.42-26.89,0l-61.91,61.91l-21.16-21.16
			c-7.43-7.42-19.46-7.42-26.89,0c-7.42,7.42-7.42,19.46,0,26.89L162.81,796.04z"/>
	</g>
</g>
</svg>
