<svg xmlns="http://www.w3.org/2000/svg" width="1024" height="1024" viewBox="0 0 1024 1024">
  <metadata><?xpacket begin="﻿" id="W5M0MpCehiHzreSzNTczkc9d"?>
<x:xmpmeta xmlns:x="adobe:ns:meta/" x:xmptk="Adobe XMP Core 5.6-c142 79.160924, 2017/07/13-01:06:39        ">
   <rdf:RDF xmlns:rdf="http://www.w3.org/1999/02/22-rdf-syntax-ns#">
      <rdf:Description rdf:about=""/>
   </rdf:RDF>
</x:xmpmeta>
                                                                                                    
                                                                                                    
                                                                                                    
                                                                                                    
                                                                                                    
                                                                                                    
                                                                                                    
                                                                                                    
                                                                                                    
                                                                                                    
                                                                                                    
                                                                                                    
                                                                                                    
                                                                                                    
                                                                                                    
                                                                                                    
                                                                                                    
                                                                                                    
                                                                                                    
                                                                                                    
                           
<?xpacket end="w"?></metadata>
<defs>
    <!--<style>
      .cls-1 {
        fill: #114d88;
        fill-rule: evenodd;
      }
    </style>-->
  </defs>
  <path id="Forma_1" data-name="Forma 1" class="cls-1" d="M920.586,88.484H825.81V60.648a59.648,59.648,0,1,0-119.3,0V88.484H372.482V60.648a59.648,59.648,0,1,0-119.3,0V89.22a19.825,19.825,0,0,0-5.3-.736H168.664A99.527,99.527,0,0,0,69.25,187.9v338.67a19.883,19.883,0,1,0,39.765,0V293.277h716.8a19.883,19.883,0,1,0,0-39.765H109.015V187.9a59.716,59.716,0,0,1,59.649-59.648h79.221a19.926,19.926,0,0,0,5.3-.736V153.1a59.649,59.649,0,0,0,119.3,0V128.25H706.514V153.1a59.648,59.648,0,1,0,119.3,0V128.25h94.776A59.716,59.716,0,0,1,980.234,187.9V943.433a35.8,35.8,0,0,1-71.6,0V892a19.884,19.884,0,0,0-19.883-19.883H657.471a19.883,19.883,0,0,0,0,39.766h211.4v31.552a75.108,75.108,0,0,0,9.036,35.8H77.555a35.83,35.83,0,0,1-35.789-35.789V911.881H486.793a19.883,19.883,0,0,0,0-39.766H288.131a162.68,162.68,0,0,0,56.806-123.522c0-89.9-73.139-163.039-163.039-163.039S18.859,658.693,18.859,748.593A162.682,162.682,0,0,0,75.664,872.115H21.883A19.884,19.884,0,0,0,2,892v51.447A75.642,75.642,0,0,0,77.555,1019H944.433A75.652,75.652,0,0,0,1020,943.433V187.9A99.527,99.527,0,0,0,920.586,88.484ZM332.717,153.1a19.883,19.883,0,0,1-39.766,0V60.648a19.883,19.883,0,1,1,39.766,0V153.1Zm453.328,0a19.883,19.883,0,1,1-39.766,0V60.648a19.883,19.883,0,1,1,39.766,0V153.1ZM58.624,748.593A123.273,123.273,0,1,1,181.9,871.867,123.413,123.413,0,0,1,58.624,748.593ZM933.13,259.337a19.867,19.867,0,1,0,5.828,14.057A20.025,20.025,0,0,0,933.13,259.337ZM595.8,877.931a19.891,19.891,0,1,0,5.828,14.057A20.006,20.006,0,0,0,595.8,877.931ZM451.839,605.437a75.555,75.555,0,1,0,75.554,75.555A75.641,75.641,0,0,0,451.839,605.437Zm0,111.344a35.789,35.789,0,1,1,35.789-35.789A35.83,35.83,0,0,1,451.839,716.781ZM637.411,605.437a75.555,75.555,0,1,0,75.555,75.555A75.641,75.641,0,0,0,637.411,605.437Zm0,111.344A35.789,35.789,0,1,1,673.2,680.992,35.83,35.83,0,0,1,637.411,716.781ZM822.985,605.437a75.555,75.555,0,1,0,75.555,75.555A75.641,75.641,0,0,0,822.985,605.437Zm0,111.344a35.789,35.789,0,1,1,35.789-35.789A35.83,35.83,0,0,1,822.985,716.781ZM266.266,398.656a75.555,75.555,0,1,0,75.555,75.554A75.64,75.64,0,0,0,266.266,398.656Zm0,111.344a35.79,35.79,0,1,1,35.789-35.79A35.831,35.831,0,0,1,266.266,510ZM637.411,398.656a75.555,75.555,0,1,0,75.555,75.554A75.641,75.641,0,0,0,637.411,398.656Zm0,111.344A35.79,35.79,0,1,1,673.2,474.21,35.83,35.83,0,0,1,637.411,510ZM822.985,398.656A75.555,75.555,0,1,0,898.54,474.21,75.641,75.641,0,0,0,822.985,398.656Zm0,111.344a35.79,35.79,0,1,1,35.789-35.79A35.83,35.83,0,0,1,822.985,510ZM451.839,398.656a75.555,75.555,0,1,0,75.554,75.554A75.641,75.641,0,0,0,451.839,398.656Zm0,111.344a35.79,35.79,0,1,1,35.789-35.79A35.83,35.83,0,0,1,451.839,510ZM252.73,700.137a19.886,19.886,0,0,0-28.12,0l-64.751,64.752-22.127-22.127a19.884,19.884,0,1,0-28.12,28.12L145.8,807.067a19.885,19.885,0,0,0,28.119,0l78.811-78.812A19.883,19.883,0,0,0,252.73,700.137Z"/>
</svg>
