<svg xmlns="http://www.w3.org/2000/svg" width="17.812" height="19" viewBox="0 0 17.812 19"><defs><style>.a{fill:#545454;}</style></defs><path class="a" d="M8.508,9.053h2.375v2.375H8.508Zm3.562,0h2.375v2.375H12.071Zm3.562,0h2.375v2.375H15.633ZM4.946,16.178H7.321v2.375H4.946Zm3.562,0h2.375v2.375H8.508Zm3.562,0h2.375v2.375H12.071ZM8.508,12.616h2.375V14.99H8.508Zm3.562,0h2.375V14.99H12.071Zm3.562,0h2.375V14.99H15.633Zm-10.687,0H7.321V14.99H4.946ZM18.008,1.928V3.116H15.633V1.928H7.321V3.116H4.946V1.928H2.571v19H20.383v-19H18.008ZM19.2,19.74H3.758V6.678H19.2Z" transform="translate(-2.571 -1.928)"/></svg>