<?xml version="1.0" encoding="utf-8"?>
<!-- Generator: Adobe Illustrator 23.0.2, SVG Export Plug-In . SVG Version: 6.00 Build 0)  -->
<svg version="1.1" id="Layer_1" xmlns="http://www.w3.org/2000/svg" xmlns:xlink="http://www.w3.org/1999/xlink" x="0px" y="0px"
	 viewBox="0 0 1024 1024" style="enable-background:new 0 0 1024 1024;" xml:space="preserve">
<g>
	<g>
		<path d="M840.28,150.26V87.34H715.22v62.91H308.78V87.34H183.72v62.91H11.76v786.4h1000.47v-786.4H840.28z M746.48,118.8h62.53
			v94.37h-62.53V118.8z M214.98,118.8h62.53v94.37h-62.53V118.8z M980.97,905.2H43.03V307.54h937.94V905.2z M980.97,276.08H43.03
			v-94.37h140.69v62.91h125.06v-62.91h406.44v62.91h125.06v-62.91h140.69V276.08z M340.04,370.45H152.45v188.73h187.59V370.45z
			 M308.78,527.73H183.72V401.9h125.06V527.73z M340.04,653.55H152.45v188.74h187.59V653.55z M308.78,810.83H183.72V685.01h125.06
			V810.83z M871.54,370.45H683.95v188.73h187.59V370.45z M840.28,527.73H715.22V401.9h125.06V527.73z M871.54,653.55H683.95v188.74
			h187.59V653.55z M840.28,810.83H715.22V685.01h125.06V810.83z M605.79,370.45H418.2v188.73h187.59V370.45z M574.53,527.73H449.47
			V401.9h125.06V527.73z M605.79,653.55H418.2v188.74h187.59V653.55z M574.53,810.83H449.47V685.01h125.06V810.83z"/>
	</g>
</g>
</svg>
