<?xml version="1.0" encoding="utf-8"?>
<!-- Generator: Adobe Illustrator 23.0.2, SVG Export Plug-In . SVG Version: 6.00 Build 0)  -->
<svg version="1.1" id="Layer_1" xmlns="http://www.w3.org/2000/svg" xmlns:xlink="http://www.w3.org/1999/xlink" x="0px" y="0px"
	 viewBox="0 0 1024 1024" style="enable-background:new 0 0 1024 1024;" xml:space="preserve">
<g>
	<g>
		<path d="M689.54,543.07l-46.38,46.41l-64.17-64.22l116.88-115.03h55.52c77.59,0,170.06-36.23,170.06-208.85v-24.34l-135.71,63.66
			l-46.97-48.47l59.38-136.86h-23.57c-172.51,0-208.71,92.02-208.71,169.21v55.54L450.8,396.99L263.06,209.12l49.44-49.48
			L130.58,50.41L82.61,98.43l109.15,182.05L241.2,231l187.9,188.03L52.41,801.62l-2.74,2.78l-30.8,105.68l45.88,43.21l106.01-26.24
			l386.19-380.08l64.35,64.4l-46.38,46.41l315.6,315.82l114.62-114.7L689.54,543.07z M121.53,103.23l13.86-13.87l127.27,76.42
			l-64.77,64.81L121.53,103.23z M155.12,899.03L73.68,919.2l-19.82-18.67l23.31-79.97l519.61-527.74v-68.23
			c0-86.63,50.41-131.82,153.95-137.62l-48.57,111.95l76.71,79.16l110.91-52.02c-6.26,101.71-52.75,153.23-138.4,153.23h-68.17
			L155.12,899.03z M618.64,657.77l70.9-70.95l271.88,272.07l-70.9,70.94L618.64,657.77z"/>
	</g>
</g>
</svg>
