<svg xmlns="http://www.w3.org/2000/svg" width="23.994" height="24" viewBox="0 0 23.994 24"><defs><style>.a{fill:#e0e4e9;}</style></defs><path class="a" d="M26.513,16.5a3.088,3.088,0,0,1,1.981-2.881,12.238,12.238,0,0,0-1.481-3.568,3.129,3.129,0,0,1-1.256.269,3.081,3.081,0,0,1-2.818-4.336A12.2,12.2,0,0,0,19.377,4.5a3.085,3.085,0,0,1-5.761,0,12.238,12.238,0,0,0-3.568,1.481,3.081,3.081,0,0,1-2.818,4.336,3.027,3.027,0,0,1-1.256-.269A12.509,12.509,0,0,0,4.5,13.623a3.087,3.087,0,0,1,.006,5.761,12.238,12.238,0,0,0,1.481,3.568,3.082,3.082,0,0,1,4.068,4.068A12.31,12.31,0,0,0,13.623,28.5a3.079,3.079,0,0,1,5.749,0,12.238,12.238,0,0,0,3.568-1.481,3.085,3.085,0,0,1,4.068-4.068,12.31,12.31,0,0,0,1.481-3.568A3.1,3.1,0,0,1,26.513,16.5Zm-9.96,4.992a5,5,0,1,1,5-5A5,5,0,0,1,16.553,21.489Z" transform="translate(-4.5 -4.5)"/></svg>