<svg xmlns="http://www.w3.org/2000/svg" width="1024" height="1024" viewBox="0 0 1024 1024">
  <metadata><?xpacket begin="﻿" id="W5M0MpCehiHzreSzNTczkc9d"?>
<x:xmpmeta xmlns:x="adobe:ns:meta/" x:xmptk="Adobe XMP Core 5.6-c142 79.160924, 2017/07/13-01:06:39        ">
   <rdf:RDF xmlns:rdf="http://www.w3.org/1999/02/22-rdf-syntax-ns#">
      <rdf:Description rdf:about=""/>
   </rdf:RDF>
</x:xmpmeta>
                                                                                                    
                                                                                                    
                                                                                                    
                                                                                                    
                                                                                                    
                                                                                                    
                                                                                                    
                                                                                                    
                                                                                                    
                                                                                                    
                                                                                                    
                                                                                                    
                                                                                                    
                                                                                                    
                                                                                                    
                                                                                                    
                                                                                                    
                                                                                                    
                                                                                                    
                                                                                                    
                           
<?xpacket end="w"?></metadata>
<defs>
    <!--<style>
      .cls-1 {
        fill: #fff;
        fill-opacity: 0;
        stroke-width: 2px;
      }

      .cls-1, .cls-2 {
        stroke: #000;
        stroke-linejoin: round;
      }

      .cls-2 {
        stroke-opacity: 0.27;
        stroke-width: 1px;
        fill-rule: evenodd;
      }
    </style>-->
  </defs>
  <circle id="Ellipse_2_copy" data-name="Ellipse 2 copy" class="cls-1" cx="512" cy="512" r="507"/>
  <path class="cls-2" d="M341.932,471.941a10,10,0,0,0-9.994,10v60a9.994,9.994,0,1,0,19.988,0v-60A10,10,0,0,0,341.932,471.941Zm1.08-257.2-94.5,37.829C221.894,262.434,212,275.813,212,301.944V722.028c0,26.131,9.9,39.51,36.262,49.292l94.941,38A39.537,39.537,0,0,0,357.235,812c20.09,0,34.673-16.8,34.673-39.951v-520.1C391.908,223.506,369.238,204.866,343.012,214.745Zm28.9,557.3c0,11.929-5.9,19.95-14.682,19.95a19.731,19.731,0,0,1-6.8-1.311l-94.981-38.029c-18.86-6.991-23.467-13.009-23.467-30.63V301.944c0-17.62,4.607-23.631,23.707-30.711l94.551-37.84a19.906,19.906,0,0,1,6.977-1.388c8.785,0,14.692,8.01,14.692,19.939v520.1Zm48.726-500.1H561.82a30.029,30.029,0,0,1,29.984,30v150a9.995,9.995,0,1,0,19.989,0v-150a50.044,50.044,0,0,0-49.974-50H420.643A10,10,0,0,0,420.643,271.944Zm181.157,290a9.994,9.994,0,0,0-9.994,10v150a30.026,30.026,0,0,1-29.985,30H421.892a10,10,0,0,0,0,20H561.821a50.045,50.045,0,0,0,49.975-50v-150A10,10,0,0,0,601.8,561.941ZM810.923,508.12a9.945,9.945,0,0,0-2.168-3.258l-99.94-100A10,10,0,0,0,694.682,419L777.57,501.94H441.882a10,10,0,0,0,0,20H777.571L694.682,604.87a10,10,0,1,0,14.133,14.14l99.94-99.991A10.03,10.03,0,0,0,810.923,508.12Z"/>
</svg>
