<?xml version="1.0" encoding="utf-8"?>
<!-- Generator: Adobe Illustrator 23.0.2, SVG Export Plug-In . SVG Version: 6.00 Build 0)  -->
<svg version="1.1" id="Layer_1" xmlns="http://www.w3.org/2000/svg" xmlns:xlink="http://www.w3.org/1999/xlink" x="0px" y="0px"
	 viewBox="0 0 1024 1024" style="enable-background:new 0 0 1024 1024;" xml:space="preserve">
<!--<style type="text/css">
	.st0{fill:#060606;}
</style>-->
<g>
	<path class="st0" d="M512,40.93c63.61,0,125.29,12.45,183.35,37.01c56.09,23.72,106.47,57.69,149.74,100.96
		s77.24,93.65,100.96,149.74c24.56,58.06,37.01,119.75,37.01,183.35s-12.45,125.29-37.01,183.35
		c-23.72,56.09-57.69,106.47-100.96,149.74c-43.27,43.27-93.65,77.24-149.74,100.96C637.29,970.6,575.6,983.05,512,983.05
		s-125.29-12.45-183.35-37.01c-56.09-23.72-106.47-57.69-149.74-100.96s-77.24-93.65-100.96-149.74
		C53.38,637.29,40.93,575.61,40.93,512s12.45-125.29,37.01-183.35c23.72-56.09,57.69-106.47,100.96-149.74
		s93.65-77.24,149.74-100.96C386.71,53.38,448.39,40.93,512,40.93 M512,15.93C238.03,15.93,15.93,238.03,15.93,512
		s222.1,496.07,496.07,496.07s496.07-222.1,496.07-496.07S785.97,15.93,512,15.93L512,15.93z"/>
</g>
<g>
	<g>
		<path d="M654.93,521.83l-15.08,35.22l33.73-13.51c17.22-6.89,35.35-10.39,53.9-10.39c16.3,0,29.57-13.28,29.57-29.61
			c0-16.33-13.27-29.61-29.57-29.61C695.86,473.93,667.38,492.73,654.93,521.83z M740.15,503.54c0,7-5.69,12.69-12.67,12.69
			c-19.21,0-38.02,3.36-55.99,10c10.26-21.57,31.97-35.38,55.99-35.38C734.46,490.85,740.15,496.54,740.15,503.54z M718.14,411.37
			c8.5-5.68,13.56-15.16,13.56-25.38c0-16.81-13.66-30.5-30.46-30.5h-2.18c-14.48,0-27.04,10.31-29.88,24.52
			c-3.37,16.87-5.08,34.12-5.08,51.31v56.23l31.44-52.44C701.18,425.69,709,417.47,718.14,411.37z M681.05,426.38
			c0.29-14.43,1.86-28.9,4.7-43.05c1.26-6.33,6.87-10.93,13.3-10.93h2.18c7.49,0,13.57,6.09,13.57,13.58c0,4.56-2.25,8.78-6.04,11.3
			C697.55,404.77,687.98,414.84,681.05,426.38z M279.62,533.15c18.54,0,36.68,3.5,53.9,10.4l33.74,13.51l-15.08-35.21
			c-12.45-29.11-40.93-47.91-72.55-47.91c-16.3,0-29.57,13.28-29.57,29.61C250.05,519.87,263.32,533.15,279.62,533.15z
			 M279.62,490.85c24.01,0,45.73,13.81,55.99,35.38c-17.97-6.64-36.78-10-55.99-10c-6.98,0-12.68-5.69-12.68-12.69
			S272.64,490.85,279.62,490.85z M288.96,411.37c9.15,6.1,16.95,14.3,22.6,23.74L343,487.55v-56.23c0-17.18-1.71-34.44-5.08-51.3
			c-2.84-14.21-15.4-24.52-29.87-24.52h-2.19c-16.8,0-30.46,13.68-30.46,30.5C275.4,396.21,280.47,405.71,288.96,411.37z
			 M305.86,372.41h2.18c6.45,0,12.04,4.6,13.31,10.93c2.82,14.15,4.4,28.62,4.7,43.05c-6.92-11.55-16.51-21.61-27.7-29.09
			c-3.79-2.53-6.04-6.75-6.04-11.31C292.3,378.5,298.38,372.41,305.86,372.41z M717.26,692.14c-10.01,10.02-18.66,18.66-36.29,18.66
			c-17.63,0-26.27-8.64-36.29-18.66c-11.07-11.09-23.62-23.63-48.25-23.63c-24.63,0-37.16,12.54-48.22,23.63
			c-10,10.02-18.64,18.66-36.27,18.66c-17.63,0-26.27-8.64-36.28-18.66c-11.06-11.09-23.6-23.63-48.23-23.63
			s-37.16,12.54-48.22,23.63c-10,10.02-18.64,18.66-36.26,18.66c-17.61,0-26.25-8.64-36.25-18.66
			c-11.07-11.08-23.6-23.63-48.21-23.63h-8.45v16.92h8.45c17.61,0,26.25,8.64,36.26,18.67c11.06,11.08,23.59,23.63,48.2,23.63
			c24.62,0,37.15-12.55,48.22-23.63c10-10.03,18.64-18.67,36.26-18.67c17.62,0,26.27,8.64,36.27,18.67
			c11.07,11.08,23.61,23.63,48.24,23.63c24.62,0,37.15-12.55,48.22-23.63c10-10.03,18.65-18.67,36.27-18.67
			c17.64,0,26.28,8.64,36.29,18.67c11.07,11.08,23.61,23.63,48.24,23.63s37.17-12.55,48.24-23.63
			c10.01-10.03,18.66-18.67,36.29-18.67h8.45v-16.92h-8.45C740.86,668.51,728.32,681.05,717.26,692.14z M717.26,632.91
			c-10.01,10.03-18.66,18.67-36.29,18.67c-17.63,0-26.27-8.64-36.29-18.67c-11.07-11.08-23.62-23.62-48.25-23.62
			c-24.63,0-37.16,12.54-48.22,23.62c-10,10.03-18.64,18.67-36.27,18.67c-17.63,0-26.27-8.64-36.28-18.67
			c-11.06-11.08-23.6-23.62-48.23-23.62s-37.16,12.54-48.22,23.62c-10,10.03-18.64,18.67-36.26,18.67
			c-17.61,0-26.25-8.64-36.25-18.67c-11.07-11.07-23.6-23.62-48.21-23.62h-8.45v16.92h8.45c17.61,0,26.25,8.64,36.26,18.67
			c11.06,11.08,23.59,23.63,48.2,23.63c24.62,0,37.15-12.55,48.22-23.63c10-10.03,18.64-18.67,36.26-18.67
			c17.62,0,26.27,8.64,36.27,18.67c11.07,11.08,23.61,23.63,48.24,23.63c24.62,0,37.15-12.55,48.22-23.63
			c10-10.03,18.65-18.67,36.27-18.67c17.64,0,26.28,8.64,36.29,18.67c11.07,11.08,23.61,23.63,48.24,23.63s37.17-12.55,48.24-23.63
			c10.01-10.03,18.66-18.67,36.29-18.67h8.45v-16.92h-8.45C740.86,609.29,728.32,621.83,717.26,632.91z M717.26,573.7
			c-10.01,10.02-18.66,18.67-36.29,18.67c-17.63,0-26.27-8.65-36.29-18.67c-7.48-7.49-15.74-15.55-27.84-20.07
			c14.32-21.03,21.91-45.46,21.91-71.25v-50.76c0-69.97-56.85-126.89-126.75-126.89c-69.89,0-126.75,56.92-126.75,126.89v50.76
			c0,25.77,7.57,50.19,21.89,71.22c-12.15,4.49-20.43,12.59-27.92,20.09c-10,10.02-18.64,18.67-36.26,18.67
			c-17.61,0-26.25-8.65-36.25-18.67c-11.07-11.08-23.6-23.63-48.21-23.63h-8.45v16.92h8.45c17.61,0,26.25,8.64,36.26,18.67
			c11.06,11.08,23.59,23.63,48.2,23.63c24.62,0,37.15-12.55,48.22-23.63c10-10.03,18.64-18.67,36.26-18.67
			c17.62,0,26.27,8.64,36.27,18.67c11.07,11.08,23.61,23.63,48.24,23.63c24.62,0,37.15-12.55,48.22-23.63
			c10-10.03,18.65-18.67,36.27-18.67c17.64,0,26.28,8.64,36.29,18.67c11.07,11.08,23.61,23.63,48.24,23.63s37.17-12.55,48.24-23.63
			c10.01-10.03,18.66-18.67,36.29-18.67h8.45v-16.92h-8.45C740.86,550.07,728.32,562.61,717.26,573.7z M512,321.66
			c57.72,0,105.08,44.83,109.42,101.52H402.58C406.92,366.48,454.28,321.66,512,321.66z M402.15,440.09h219.7v33.84h-18.1
			c-3.78-14.56-16.9-25.38-32.6-25.38h-16.9c-15.7,0-28.82,10.82-32.6,25.38h-19.3c-3.77-14.56-16.9-25.38-32.6-25.38h-16.9
			c-15.7,0-28.82,10.82-32.6,25.38h-18.1V440.09z M588.05,482.39c0,9.33-7.58,16.92-16.9,16.92h-16.9c-9.32,0-16.9-7.58-16.9-16.92
			c0-9.33,7.58-16.92,16.9-16.92h16.9C580.47,465.47,588.05,473.06,588.05,482.39z M486.65,482.39c0,9.33-7.58,16.92-16.9,16.92
			h-16.9c-9.32,0-16.9-7.58-16.9-16.92c0-9.33,7.58-16.92,16.9-16.92h16.9C479.07,465.47,486.65,473.06,486.65,482.39z
			 M596.43,550.07c-24.63,0-37.16,12.54-48.22,23.63c-10,10.02-18.64,18.67-36.27,18.67c-17.63,0-26.27-8.65-36.28-18.67
			c-11.06-11.09-23.6-23.63-48.23-23.63c-0.68,0-1.26,0.1-1.92,0.13c-13.53-17.27-21.4-37.64-23.02-59.34h17.75
			c3.78,14.56,16.9,25.38,32.6,25.38h16.9c15.7,0,28.83-10.82,32.6-25.38h19.3c3.78,14.56,16.9,25.38,32.6,25.38h16.9
			c15.7,0,28.82-10.82,32.6-25.38h17.76c-1.63,21.7-9.5,42.08-23.03,59.35C597.77,550.18,597.15,550.07,596.43,550.07z
			 M723.25,457.01h16.9v-16.92h-16.9V457.01z M757.05,296.27v16.92h16.9v-16.92H757.05z M655.65,338.57h-16.9v16.92h16.9V338.57z
			 M385.25,313.19h-16.9v16.92h16.9V313.19z M368.35,473.93h-16.9v16.92h16.9V473.93z M266.95,321.66h-16.9v16.92h16.9V321.66z"/>
	</g>
</g>
</svg>
