<svg xmlns="http://www.w3.org/2000/svg" width="1024" height="1024" viewBox="0 0 1024 1024">
  <metadata><?xpacket begin="﻿" id="W5M0MpCehiHzreSzNTczkc9d"?>
<x:xmpmeta xmlns:x="adobe:ns:meta/" x:xmptk="Adobe XMP Core 5.6-c142 79.160924, 2017/07/13-01:06:39        ">
   <rdf:RDF xmlns:rdf="http://www.w3.org/1999/02/22-rdf-syntax-ns#">
      <rdf:Description rdf:about=""/>
   </rdf:RDF>
</x:xmpmeta>
                                                                                                    
                                                                                                    
                                                                                                    
                                                                                                    
                                                                                                    
                                                                                                    
                                                                                                    
                                                                                                    
                                                                                                    
                                                                                                    
                                                                                                    
                                                                                                    
                                                                                                    
                                                                                                    
                                                                                                    
                                                                                                    
                                                                                                    
                                                                                                    
                                                                                                    
                                                                                                    
                           
<?xpacket end="w"?></metadata>
<defs>
   <!-- <style>
      .cls-1 {
        fill: #fff;
        fill-opacity: 0;
        stroke: #000;
        stroke-linejoin: round;
        stroke-width: 2px;
      }

      .cls-2 {
        fill-rule: evenodd;
      }
    </style>-->
  </defs>
  <circle id="Ellipse_2_copy" data-name="Ellipse 2 copy" class="cls-1" cx="512" cy="512" r="507"/>
  <path id="Forma_1" data-name="Forma 1" class="cls-2" d="M791.676,462.585a102.317,102.317,0,0,0-94.158,62.171l-19.577,45.712,43.783-17.534a187.384,187.384,0,0,1,69.952-13.485A38.432,38.432,0,0,0,791.676,462.585Zm0,54.9a208.792,208.792,0,0,0-72.671,12.98,80.412,80.412,0,0,1,72.671-45.922A16.471,16.471,0,0,1,791.676,517.488ZM757.621,308.859h-2.829a39.667,39.667,0,0,0-38.782,31.824,340.478,340.478,0,0,0-6.592,66.6v72.985l40.8-68.065a97.5,97.5,0,0,1,29.339-30.812A39.6,39.6,0,0,0,757.621,308.859Zm9.762,54.256a119.629,119.629,0,0,0-35.963,37.761,318.6,318.6,0,0,1,6.1-55.878,17.662,17.662,0,0,1,17.263-14.176h2.83A17.63,17.63,0,0,1,767.383,363.115ZM304.555,524.768a102.335,102.335,0,0,0-94.169-62.183,38.432,38.432,0,0,0,0,76.864,187.192,187.192,0,0,1,69.952,13.5l43.794,17.534Zm-94.169-7.28a16.471,16.471,0,0,1,0-32.942,80.413,80.413,0,0,1,72.672,45.922A208.794,208.794,0,0,0,210.386,517.488Zm75.666-176.8a39.653,39.653,0,0,0-38.77-31.834h-2.841a39.6,39.6,0,0,0-21.936,72.527A97.493,97.493,0,0,1,251.844,412.2l40.8,68.065V407.278A340.225,340.225,0,0,0,286.052,340.693ZM234.68,363.125a17.636,17.636,0,0,1,9.761-32.3h2.829A17.675,17.675,0,0,1,264.545,345a319.847,319.847,0,0,1,6.1,55.878A119.624,119.624,0,0,0,234.68,363.125ZM841.031,715.136c-31.982,0-48.258,16.283-62.615,30.669-13,13.009-24.216,24.231-47.106,24.231S697.2,758.814,684.2,745.805c-14.368-14.386-30.655-30.669-62.626-30.669S573.353,731.419,559,745.805c-12.986,13.009-24.195,24.231-47.074,24.231s-34.1-11.222-47.084-24.231c-14.357-14.386-30.633-30.669-62.6-30.669s-48.225,16.283-62.582,30.669c-12.975,13.009-24.195,24.231-47.062,24.231s-34.066-11.222-47.053-24.231c-14.356-14.376-30.621-30.669-62.57-30.669H172V737.1h10.968c22.857,0,34.066,11.224,47.062,24.234C244.375,775.714,260.64,792,292.59,792s48.225-16.283,62.581-30.668c12.986-13.01,24.195-24.234,47.063-24.234s34.1,11.224,47.084,24.234C463.686,775.714,479.963,792,511.922,792s48.225-16.283,62.582-30.668c12.986-13.01,24.206-24.234,47.074-24.234,22.89,0,34.109,11.224,47.107,24.234C683.052,775.714,699.328,792,731.31,792s48.247-16.283,62.615-30.668c13-13.01,24.217-24.234,47.106-24.234H852V715.136H841.031Zm0-76.863c-31.982,0-48.258,16.283-62.615,30.666-13,13.015-24.216,24.234-47.106,24.234S697.2,681.954,684.2,668.939c-14.368-14.383-30.655-30.666-62.626-30.666S573.353,654.556,559,668.939c-12.986,13.015-24.195,24.234-47.074,24.234s-34.1-11.219-47.084-24.234c-14.357-14.383-30.633-30.666-62.6-30.666s-48.225,16.283-62.582,30.666c-12.975,13.015-24.195,24.234-47.062,24.234s-34.066-11.219-47.053-24.234c-14.356-14.373-30.621-30.666-62.57-30.666H172v21.959h10.968c22.857,0,34.066,11.224,47.062,24.234,14.346,14.385,30.611,30.67,62.561,30.67s48.225-16.285,62.581-30.67c12.986-13.01,24.195-24.234,47.063-24.234s34.1,11.224,47.084,24.234c14.368,14.385,30.645,30.67,62.6,30.67s48.225-16.285,62.582-30.67c12.986-13.01,24.206-24.234,47.074-24.234,22.89,0,34.109,11.224,47.107,24.234,14.367,14.385,30.643,30.67,62.625,30.67s48.247-16.285,62.615-30.67c13-13.01,24.217-24.234,47.106-24.234H852V638.273H841.031Zm0-76.863c-31.982,0-48.258,16.283-62.615,30.668-13,13.012-24.216,24.234-47.106,24.234S697.2,605.09,684.2,592.078c-9.707-9.719-20.423-20.183-36.129-26.037a162.99,162.99,0,0,0,28.44-92.475V407.683c0-90.817-73.8-164.7-164.516-164.7S347.483,316.866,347.483,407.683v65.883A162.955,162.955,0,0,0,375.889,566c-15.771,5.829-26.509,16.339-36.237,26.078-12.975,13.012-24.195,24.234-47.062,24.234s-34.066-11.222-47.053-24.234c-14.356-14.373-30.621-30.668-62.57-30.668H172v21.961h10.968c22.857,0,34.066,11.219,47.062,24.234,14.346,14.383,30.611,30.668,62.561,30.668s48.225-16.285,62.581-30.668c12.986-13.015,24.195-24.234,47.063-24.234s34.1,11.219,47.084,24.234c14.368,14.383,30.645,30.668,62.6,30.668s48.225-16.285,62.582-30.668c12.986-13.015,24.206-24.234,47.074-24.234,22.89,0,34.109,11.219,47.107,24.234,14.367,14.383,30.643,30.668,62.625,30.668s48.247-16.285,62.615-30.668c13-13.015,24.217-24.234,47.106-24.234H852V561.41H841.031ZM512,264.939c74.92,0,136.384,58.186,142.021,131.766H369.978C375.615,323.125,437.078,264.939,512,264.939ZM369.418,418.666H654.58v43.919H631.087a43.834,43.834,0,0,0-42.313-32.941H566.838a43.834,43.834,0,0,0-42.314,32.941h-25.05a43.832,43.832,0,0,0-42.314-32.941H435.225a43.834,43.834,0,0,0-42.314,32.941H369.418V418.666Zm241.291,54.9a21.971,21.971,0,0,1-21.935,21.961H566.838a21.961,21.961,0,0,1,0-43.922h21.936A21.971,21.971,0,0,1,610.709,473.566Zm-131.613,0a21.97,21.97,0,0,1-21.936,21.961H435.225a21.961,21.961,0,0,1,0-43.922H457.16A21.97,21.97,0,0,1,479.1,473.566ZM621.578,561.41c-31.96,0-48.225,16.283-62.582,30.668-12.986,13.012-24.195,24.234-47.074,24.234s-34.1-11.222-47.084-24.234c-14.357-14.385-30.633-30.668-62.6-30.668-0.877,0-1.634.131-2.49,0.166a141.019,141.019,0,0,1-29.876-77.03h23.043a43.832,43.832,0,0,0,42.314,32.942H457.16a43.83,43.83,0,0,0,42.314-32.942h25.05a43.832,43.832,0,0,0,42.314,32.942h21.936a43.832,43.832,0,0,0,42.313-32.942H654.13a141.052,141.052,0,0,1-29.887,77.039C623.321,561.551,622.521,561.41,621.578,561.41ZM786.192,418.666h21.936v21.958H786.192V418.666ZM830.063,232H852v21.961H830.063V232ZM676.515,286.9h21.936v21.959H676.515V286.9ZM325.548,253.959h21.935V275.92H325.548V253.959ZM303.612,462.585h21.936v21.961H303.612V462.585ZM172,264.939h21.935V286.9H172V264.939Z"/>
</svg>
