<svg xmlns="http://www.w3.org/2000/svg" width="1024" height="1024" viewBox="0 0 1024 1024">
  <metadata><?xpacket begin="﻿" id="W5M0MpCehiHzreSzNTczkc9d"?>
<x:xmpmeta xmlns:x="adobe:ns:meta/" x:xmptk="Adobe XMP Core 5.6-c142 79.160924, 2017/07/13-01:06:39        ">
   <rdf:RDF xmlns:rdf="http://www.w3.org/1999/02/22-rdf-syntax-ns#">
      <rdf:Description rdf:about=""/>
   </rdf:RDF>
</x:xmpmeta>
                                                                                                    
                                                                                                    
                                                                                                    
                                                                                                    
                                                                                                    
                                                                                                    
                                                                                                    
                                                                                                    
                                                                                                    
                                                                                                    
                                                                                                    
                                                                                                    
                                                                                                    
                                                                                                    
                                                                                                    
                                                                                                    
                                                                                                    
                                                                                                    
                                                                                                    
                                                                                                    
                           
<?xpacket end="w"?></metadata>
<defs>
    <!--<style>
      .cls-1 {
        fill: #fff;
        fill-opacity: 0;
        stroke: #000;
        stroke-linejoin: round;
        stroke-width: 2px;
      }

      .cls-2 {
        fill-rule: evenodd;
      }
    </style>-->
  </defs>
  <circle id="Ellipse_2_copy" data-name="Ellipse 2 copy" class="cls-1" cx="512" cy="512" r="507"/>
  <path id="Shape_1_copy" data-name="Shape 1 copy" class="cls-2" d="M799.5,766.589H787V398.154a12.6,12.6,0,0,0-12.5-12.7h-75a12.6,12.6,0,0,0-12.5,12.7V766.589H637v-266.8a12.6,12.6,0,0,0-12.5-12.7h-75a12.6,12.6,0,0,0-12.5,12.7v266.8H487V474.382a12.6,12.6,0,0,0-12.5-12.7h-75a12.6,12.6,0,0,0-12.5,12.7V766.589H337V652.244a12.6,12.6,0,0,0-12.5-12.7h-75a12.6,12.6,0,0,0-12.5,12.7V766.589H224.5a12.7,12.7,0,0,0,0,25.4h575A12.7,12.7,0,0,0,799.5,766.589Zm-487.5,0H262V664.952h50V766.589h0Zm150,0H412v-279.5h50v279.5h0Zm150,0H562v-254.1h50v254.1Zm150,0H712V410.862h50V766.589ZM249.5,563.317a12.33,12.33,0,0,0,8.52-3.414L440.563,386.742l143.409,36.436a12.319,12.319,0,0,0,11.864-3.338L737,276.369V321.93a12.5,12.5,0,1,0,25,0V245.7a12.6,12.6,0,0,0-12.5-12.71h-75a12.708,12.708,0,0,0,0,25.413h44.824L583.165,396.791,440.026,360.426a12.3,12.3,0,0,0-11.549,3.024l-187.5,177.865a12.854,12.854,0,0,0-.61,17.967A12.361,12.361,0,0,0,249.5,563.317Z"/>
</svg>
