<?xml version="1.0" encoding="utf-8"?>
<!-- Generator: Adobe Illustrator 23.0.2, SVG Export Plug-In . SVG Version: 6.00 Build 0)  -->
<svg version="1.1" id="Layer_1" xmlns="http://www.w3.org/2000/svg" xmlns:xlink="http://www.w3.org/1999/xlink" x="0px" y="0px"
	 viewBox="0 0 1024 1024" style="enable-background:new 0 0 1024 1024;" xml:space="preserve">
<!--<style type="text/css">
	.st0{fill:#060606;}
</style>-->
<g>
	<path class="st0" d="M512,40.93c63.61,0,125.29,12.45,183.35,37.01c56.09,23.72,106.47,57.69,149.74,100.96
		c43.27,43.27,77.24,93.65,100.96,149.74c24.56,58.06,37.01,119.75,37.01,183.35s-12.45,125.29-37.01,183.35
		c-23.72,56.09-57.69,106.47-100.96,149.74c-43.27,43.27-93.65,77.24-149.74,100.96c-58.06,24.56-119.75,37.01-183.35,37.01
		s-125.29-12.45-183.35-37.01c-56.09-23.72-106.47-57.69-149.74-100.96c-43.27-43.27-77.24-93.65-100.96-149.74
		C53.38,637.29,40.93,575.61,40.93,512s12.45-125.29,37.01-183.35c23.72-56.09,57.69-106.47,100.96-149.74
		s93.65-77.24,149.74-100.96C386.71,53.38,448.39,40.93,512,40.93 M512,15.93C238.03,15.93,15.93,238.03,15.93,512
		s222.1,496.07,496.07,496.07s496.07-222.1,496.07-496.07S785.97,15.93,512,15.93L512,15.93z"/>
</g>
<g>
	<g>
		<path class="st0" d="M704.79,727.21c-11.05,0-15.8-3.1-22.98-7.79c-9.17-5.99-20.59-13.44-42.05-13.44s-32.87,7.45-42.04,13.45
			c-7.44,4.86-11.93,7.79-22.99,7.79s-15.54-2.93-22.99-7.79c-9.16-6-20.58-13.45-42.04-13.45s-32.87,7.45-42.04,13.45
			c-7.44,4.86-11.93,7.79-22.99,7.79c-11.05,0-15.55-2.93-23-7.79c-9.16-6-20.6-13.45-42.06-13.45c-21.46,0-32.9,7.45-42.07,13.45
			c-7.44,4.86-12,7.79-23.06,7.79c-11.05,0-15.68-2.93-23.12-7.79c-9.17-6-20.6-13.45-42.33-13.45v33.54
			c11.44,0,15.83,2.93,23.27,7.8c9.17,5.99,20.87,13.44,42.33,13.44c21.46,0,32.87-7.46,42.04-13.44c7.44-4.87,11.93-7.8,22.98-7.8
			c11.06,0,15.55,2.93,22.99,7.8c9.17,5.99,20.58,13.44,42.04,13.44c21.46,0,32.87-7.46,42.04-13.44c7.44-4.87,11.93-7.8,22.98-7.8
			c11.06,0,15.55,2.93,22.99,7.8c9.16,5.99,20.58,13.44,42.04,13.44c21.46,0,32.87-7.46,42.04-13.44c7.44-4.87,11.93-7.8,22.99-7.8
			c11.05,0,15.54,2.93,22.98,7.8c9.17,5.99,20.58,13.44,42.05,13.44c21.46,0,32.59-7.46,41.76-13.44c7.18-4.7,12.41-7.8,22.7-7.8
			v-33.54c-20.58,0-32.59,7.45-41.76,13.44C720.31,724.12,715.85,727.21,704.79,727.21z M774.97,465.08v-100.2
			c0-56.05-46.15-101.64-103.47-101.64c-29.61,0-56.24,12.17-75.07,31.67c-19.41-19.92-46.62-31.67-75.36-31.67
			c-57.32,0-103.96,45.6-103.96,101.64v272.23c-8.49-5.24-19.43-10.52-37.49-10.52c-21.46,0-32.9,7.45-42.07,13.44
			c-7.44,4.86-12,7.79-23.06,7.79c-11.05,0-15.68-2.93-23.12-7.79c-9.17-5.99-20.6-13.44-42.33-13.44v33.54
			c11.44,0,15.83,2.93,23.27,7.79c9.17,5.99,20.87,13.44,42.33,13.44c21.46,0,32.87-7.45,42.04-13.44
			c7.44-4.86,11.93-7.79,22.98-7.79c11.06,0,15.55,2.93,22.99,7.79c9.17,5.99,20.58,13.44,42.04,13.44
			c21.46,0,32.87-7.45,42.04-13.44c7.44-4.86,11.93-7.79,22.98-7.79c11.06,0,15.55,2.93,22.99,7.79
			c9.16,5.99,20.58,13.44,42.04,13.44c21.46,0,32.87-7.45,42.04-13.44c7.44-4.86,11.93-7.79,22.99-7.79
			c11.05,0,15.54,2.93,22.98,7.79c9.17,5.99,20.58,13.44,42.05,13.44c21.46,0,32.59-7.45,41.76-13.44
			c7.18-4.69,12.41-7.79,22.7-7.79V626.6c-20.58,0-32.59,7.45-41.76,13.44c-7.18,4.69-11.65,7.79-22.7,7.79
			c-11.06,0-15.81-3.1-22.99-7.79c-9.17-5.99-20.58-13.44-42.05-13.44c-18.03,0-28.96,5.26-37.43,10.5V364.89
			c0-37.55,30.76-68.1,69.17-68.1c38.4,0,69.17,30.55,69.17,68.1v100.2H774.97z M568.03,647.37c-6.56-1-10.56-3.59-16.28-7.33
			c-9.17-5.99-20.58-13.44-42.05-13.44c-21.46,0-32.87,7.45-42.04,13.44c-5.72,3.74-9.71,6.33-16.26,7.33V578h116.62V647.37z
			 M568.03,544.46H451.4v-61.48h116.62V544.46z M568.03,364.89v84.54H451.4v-84.54c0-37.55,31.25-68.1,69.66-68.1
			c21.97,0,42.62,10.25,55.68,27.19C571.14,336.5,568.03,350.34,568.03,364.89z"/>
	</g>
</g>
</svg>
