<?xml version="1.0" encoding="utf-8"?>
<!-- Generator: Adobe Illustrator 23.0.2, SVG Export Plug-In . SVG Version: 6.00 Build 0)  -->
<svg version="1.1" id="Layer_1" xmlns="http://www.w3.org/2000/svg" xmlns:xlink="http://www.w3.org/1999/xlink" x="0px" y="0px"
	 viewBox="0 0 1024 1024" style="enable-background:new 0 0 1024 1024;" xml:space="preserve">
<!--<style type="text/css">
	.st0{fill:#060606;}
</style>-->
<g>
	<path class="st0" d="M512,40.93c63.61,0,125.29,12.45,183.35,37.01c56.09,23.72,106.47,57.69,149.74,100.96
		s77.24,93.65,100.96,149.74c24.56,58.06,37.01,119.75,37.01,183.35s-12.45,125.29-37.01,183.35
		c-23.72,56.09-57.69,106.47-100.96,149.74c-43.27,43.27-93.65,77.24-149.74,100.96C637.29,970.6,575.6,983.05,512,983.05
		s-125.29-12.45-183.35-37.01c-56.09-23.72-106.47-57.69-149.74-100.96s-77.24-93.65-100.96-149.74
		C53.38,637.29,40.93,575.61,40.93,512s12.45-125.29,37.01-183.35c23.72-56.09,57.69-106.47,100.96-149.74
		s93.65-77.24,149.74-100.96C386.71,53.38,448.39,40.93,512,40.93 M512,15.93C238.03,15.93,15.93,238.03,15.93,512
		s222.1,496.07,496.07,496.07s496.07-222.1,496.07-496.07S785.97,15.93,512,15.93L512,15.93z"/>
</g>
<g>
	<g>
		<path d="M817.77,523.3c-7.34-2.47-15.3,1.45-17.79,8.75c-6.74,19.84-23.59,33.17-41.93,33.17c-18.92,0-31.39-9.6-38.1-29.34
			c-2.17-6.37-8.49-10.16-14.94-9.4c-6.46-0.77-12.79,3.02-14.95,9.4c-6.72,19.75-19.17,29.34-38.1,29.34
			c-18.34,0-35.19-13.33-41.93-33.17c-0.19-0.55-0.41-1.06-0.66-1.58c-0.47-1.23-1.11-2.41-1.95-3.5l-77.49-101.75
			c-3.26-4.28-8.97-8.82-13.88-11.04l-91.51-41.39c-6.81-3.08-15.82-2.8-22.43,0.68l-121.79,64.25
			c-7.94,4.19-12.76,13.65-11.46,22.51l4.51,30.78c0.87,5.9,4.28,10.83,9.37,13.51c5.08,2.69,11.09,2.73,16.48,0.14l112.3-54.19
			l29.14,15.72c0,0-75.58,57.12-79.66,66.24c-6.83,19.62-23.56,32.79-41.78,32.79c-18.34,0-35.19-13.33-41.93-33.17
			c-2.48-7.31-10.44-11.23-17.78-8.75c-7.33,2.48-11.26,10.41-8.79,17.71c10.6,31.19,38.13,52.15,68.5,52.15
			c21.62,0,41.8-10.63,55.45-28.01c13.66,17.38,33.83,28.01,55.45,28.01c21.63,0,41.8-10.63,55.45-28.01
			c13.66,17.38,33.83,28.01,55.46,28.01c21.62,0,41.8-10.63,55.45-28.01c13.66,17.38,33.83,28.01,55.45,28.01
			c22.46,0,40.67-8.95,53.04-25.64c12.38,16.7,30.59,25.64,53.04,25.64c30.37,0,57.89-20.95,68.5-52.15
			C829.03,533.71,825.1,525.78,817.77,523.3z M541.06,565.22c-18.34,0-35.19-13.33-41.93-33.17c-1.99-5.83-7.46-9.5-13.32-9.48
			c-0.07-0.01-0.14-0.01-0.21-0.01h-0.19c-5.87-0.02-11.35,3.65-13.33,9.49c-6.74,19.84-23.59,33.17-41.93,33.17
			c-16.01,0-30.89-10.17-38.89-25.96l79.2-60.63c4.93-3.78,7.59-9.52,7.12-15.37c-0.47-5.85-4.01-11.11-9.48-14.06l-44.59-24.05
			c-6.73-3.63-15.89-3.83-22.77-0.52l-101.55,49l-1.94-13.21l116.88-61.66l90.31,40.85c0.82,0.4,2.6,1.82,3.15,2.5l72.98,95.81
			C572.75,554.47,557.52,565.22,541.06,565.22z M654.55,617.94c-7.33-2.48-15.29,1.45-17.78,8.75
			c-6.71,19.74-19.17,29.34-38.1,29.34c-18.34,0-35.18-13.33-41.93-33.17c-1.99-5.83-7.46-9.49-13.31-9.48
			c-0.08-0.01-0.16-0.01-0.24-0.01c-0.05,0-0.1,0-0.16,0.01c-5.87-0.03-11.36,3.63-13.35,9.48c-6.74,19.84-23.59,33.17-41.93,33.17
			c-18.34,0-35.19-13.33-41.93-33.17c-1.98-5.83-7.45-9.49-13.31-9.48c-0.08,0-0.16-0.01-0.24-0.01c-0.05,0-0.1,0.01-0.16,0.01
			c-5.87-0.03-11.36,3.64-13.35,9.49c-6.74,19.83-23.59,33.16-41.93,33.16s-35.19-13.33-41.93-33.16c-1.98-5.83-7.45-9.5-13.31-9.49
			c-0.08,0-0.16,0-0.24-0.01c-0.05,0.01-0.1,0.01-0.16,0.01c-5.87-0.03-11.36,3.64-13.35,9.49c-6.74,19.84-23.59,33.17-41.93,33.17
			c-18.34,0-35.18-13.33-41.93-33.17c-2.49-7.31-10.45-11.23-17.78-8.75c-7.34,2.47-11.27,10.4-8.79,17.71
			c10.6,31.19,38.12,52.14,68.49,52.14c21.63,0,41.8-10.63,55.46-28.01c13.65,17.38,33.83,28.01,55.45,28.01s41.8-10.63,55.45-28.01
			c13.66,17.38,33.83,28.01,55.45,28.01c21.62,0,41.8-10.63,55.45-28.01c13.66,17.38,33.83,28.01,55.46,28.01
			c31.1,0,54.07-17.16,64.66-48.32C665.83,628.34,661.89,620.41,654.55,617.94z M643.97,499.23c3.86,0,7.77-0.29,11.63-0.85
			c43.59-6.34,73.88-46.83,67.51-90.26c-5.69-38.82-39.64-68.1-78.98-68.1c-3.87,0-7.78,0.29-11.63,0.84
			c-43.59,6.35-73.88,46.83-67.51,90.26C570.68,469.95,604.64,499.23,643.97,499.23z M636.56,368.52c2.51-0.37,5.06-0.55,7.57-0.55
			c25.51,0,47.53,19,51.22,44.19c4.13,28.19-15.52,54.46-43.81,58.58c-2.51,0.37-5.06,0.55-7.57,0.55c-25.51,0-47.53-19-51.22-44.2
			C588.62,398.9,608.27,372.63,636.56,368.52z"/>
	</g>
</g>
</svg>
