<svg xmlns="http://www.w3.org/2000/svg" width="1024" height="1024" viewBox="0 0 1024 1024">
  <metadata><?xpacket begin="﻿" id="W5M0MpCehiHzreSzNTczkc9d"?>
<x:xmpmeta xmlns:x="adobe:ns:meta/" x:xmptk="Adobe XMP Core 5.6-c142 79.160924, 2017/07/13-01:06:39        ">
   <rdf:RDF xmlns:rdf="http://www.w3.org/1999/02/22-rdf-syntax-ns#">
      <rdf:Description rdf:about=""/>
   </rdf:RDF>
</x:xmpmeta>
                                                                                                    
                                                                                                    
                                                                                                    
                                                                                                    
                                                                                                    
                                                                                                    
                                                                                                    
                                                                                                    
                                                                                                    
                                                                                                    
                                                                                                    
                                                                                                    
                                                                                                    
                                                                                                    
                                                                                                    
                                                                                                    
                                                                                                    
                                                                                                    
                                                                                                    
                                                                                                    
                           
<?xpacket end="w"?></metadata>
<defs>
    <!--<style>
      .cls-1 {
        fill: #fff;
        fill-opacity: 0;
        stroke: #000;
        stroke-linejoin: round;
        stroke-width: 2px;
      }

      .cls-2 {
        fill-rule: evenodd;
      }
    </style>-->
  </defs>
  <circle id="Ellipse_2_copy" data-name="Ellipse 2 copy" class="cls-1" cx="512" cy="512" r="507"/>
  <path id="Forma_1" data-name="Forma 1" class="cls-2" d="M841.724,524.691a15.133,15.133,0,0,0-19.174,9.442c-7.271,21.4-25.441,35.77-45.215,35.77-20.407,0-33.843-10.353-41.08-31.65a17.886,17.886,0,0,0-32.234,0c-7.238,21.3-20.675,31.65-41.081,31.65-19.775,0-37.945-14.376-45.216-35.77a27.668,27.668,0,0,0-2.8-5.485L531.352,418.9A43.4,43.4,0,0,0,516.389,407l-98.681-44.637a28.881,28.881,0,0,0-24.184.733l-131.333,69.3a24.256,24.256,0,0,0-12.359,24.279l4.864,33.2a19.284,19.284,0,0,0,27.875,14.718l121.1-58.449,31.424,16.954s-81.508,61.606-85.9,71.449c-7.363,21.167-25.413,35.364-45.06,35.364-19.774,0-37.944-14.376-45.214-35.77a15.117,15.117,0,0,0-28.648,9.664c11.431,33.643,41.114,56.246,73.862,56.246,23.317,0,45.074-11.466,59.8-30.211,14.728,18.745,36.485,30.211,59.8,30.211s45.074-11.466,59.8-30.211c14.728,18.745,36.485,30.211,59.8,30.211s45.075-11.466,59.8-30.211c14.728,18.745,36.485,30.211,59.8,30.211,24.214,0,43.849-9.651,57.2-27.661,13.348,18.01,32.983,27.661,57.2,27.661,32.748,0,62.432-22.605,73.861-56.246A15.056,15.056,0,0,0,841.724,524.691ZM543.338,569.9c-19.775,0-37.945-14.376-45.215-35.77a15.115,15.115,0,0,0-14.368-10.23l-0.224-.006-0.2,0a15.112,15.112,0,0,0-14.381,10.229c-7.27,21.4-25.44,35.772-45.213,35.772-17.271,0-33.314-10.967-41.944-28L467.2,476.512a18.6,18.6,0,0,0-2.537-31.743l-48.092-25.945a28.221,28.221,0,0,0-24.555-.554l-109.5,52.851-2.088-14.255,126.033-66.5,97.395,44.052a15.313,15.313,0,0,1,3.4,2.7l78.7,103.345C577.512,558.3,561.084,569.9,543.338,569.9Zm122.39,56.861a15.133,15.133,0,0,0-19.173,9.441c-7.238,21.3-20.675,31.652-41.081,31.652-19.775,0-37.945-14.378-45.216-35.772a15.113,15.113,0,0,0-14.352-10.228l-0.257-.007-0.168,0a15.116,15.116,0,0,0-14.4,10.232c-7.271,21.4-25.441,35.77-45.214,35.77s-37.944-14.376-45.215-35.77A15.118,15.118,0,0,0,426.3,621.859c-0.086,0-.171,0-0.257-0.007l-0.168,0a15.114,15.114,0,0,0-14.395,10.231c-7.271,21.4-25.441,35.771-45.214,35.771s-37.944-14.376-45.215-35.771A15.114,15.114,0,0,0,306.7,621.86c-0.086,0-.171,0-0.257-0.006l-0.168,0a15.114,15.114,0,0,0-14.4,10.231c-7.272,21.4-25.442,35.77-45.216,35.77s-37.944-14.376-45.213-35.77a15.118,15.118,0,0,0-28.649,9.664C184.233,675.4,213.915,698,246.663,698c23.318,0,45.075-11.465,59.8-30.21,14.728,18.745,36.485,30.21,59.8,30.21s45.075-11.465,59.8-30.21C440.8,686.534,462.554,698,485.872,698s45.074-11.465,59.8-30.21C560.4,686.534,582.158,698,605.475,698c33.544,0,58.307-18.511,69.728-52.125A15.06,15.06,0,0,0,665.728,626.764ZM654.312,498.719a87.511,87.511,0,0,0,12.538-.91c47.009-6.843,79.668-50.517,72.8-97.359C733.515,358.575,696.9,327,654.489,327a87.272,87.272,0,0,0-12.54.911c-47,6.841-79.663,50.513-72.8,97.352C575.288,467.139,611.9,498.719,654.312,498.719ZM646.32,357.73a56.825,56.825,0,0,1,8.169-.594,55.7,55.7,0,0,1,7.991,110.848,56.781,56.781,0,0,1-8.168.6A55.7,55.7,0,0,1,646.32,357.73Z"/>
</svg>
