<?xml version="1.0" encoding="utf-8"?>
<!-- Generator: Adobe Illustrator 23.0.2, SVG Export Plug-In . SVG Version: 6.00 Build 0)  -->
<svg version="1.1" id="Layer_1" xmlns="http://www.w3.org/2000/svg" xmlns:xlink="http://www.w3.org/1999/xlink" x="0px" y="0px"
	 viewBox="0 0 1024 1024" style="enable-background:new 0 0 1024 1024;" xml:space="preserve">
<!--<style type="text/css">-->
<!--	.st0{fill:#060606;}-->
<!--</style>-->
<g>
	<path class="st0" d="M512,40.93c63.61,0,125.29,12.45,183.35,37.01c56.09,23.72,106.47,57.69,149.74,100.96
		c43.27,43.27,77.24,93.65,100.96,149.74c24.56,58.06,37.01,119.75,37.01,183.35s-12.45,125.29-37.01,183.35
		c-23.72,56.09-57.69,106.47-100.96,149.74c-43.27,43.27-93.65,77.24-149.74,100.96c-58.06,24.56-119.75,37.01-183.35,37.01
		s-125.29-12.45-183.35-37.01c-56.09-23.72-106.47-57.69-149.74-100.96c-43.27-43.27-77.24-93.65-100.96-149.74
		C53.38,637.29,40.93,575.61,40.93,512s12.45-125.29,37.01-183.35c23.72-56.09,57.69-106.47,100.96-149.74
		s93.65-77.24,149.74-100.96C386.71,53.38,448.39,40.93,512,40.93 M512,15.93C238.03,15.93,15.93,238.03,15.93,512
		s222.1,496.07,496.07,496.07s496.07-222.1,496.07-496.07S785.97,15.93,512,15.93L512,15.93z"/>
</g>
<g>
	<g>
		<path class="st0" d="M768.38,738.44h-11.14V410.1c0-6.25-4.99-11.32-11.14-11.32H679.2c-6.16,0-11.14,5.07-11.14,11.32v328.34
			h-44.58V500.68c0-6.26-4.99-11.32-11.15-11.32h-66.88c-6.16,0-11.14,5.06-11.14,11.32v237.76H489.7V478.03
			c0-6.26-4.99-11.32-11.14-11.32h-66.88c-6.17,0-11.15,5.06-11.15,11.32v260.41h-44.58v-101.9c0-6.26-4.99-11.32-11.15-11.32
			h-66.87c-6.17,0-11.15,5.06-11.15,11.32v101.9h-11.14c-6.16,0-11.14,5.06-11.14,11.32s4.99,11.32,11.14,11.32h512.76
			c6.17,0,11.15-5.06,11.15-11.32S774.54,738.44,768.38,738.44z M333.65,738.44h-44.59v-90.57h44.59V738.44z M467.41,738.44h-44.59
			V489.36h44.59V738.44z M601.17,738.44h-44.58V512h44.58V738.44z M734.94,738.44h-44.58V421.43h44.58V738.44z M277.91,557.29
			c2.72,0,5.46-1,7.59-3.04L448.3,399.93l127.88,32.47c3.81,0.99,7.82-0.18,10.58-2.97l125.88-127.86v40.6
			c0,6.26,4.98,11.32,11.14,11.32c6.17,0,11.14-5.06,11.14-11.32v-67.93c0-6.26-4.98-11.32-11.14-11.32h-66.88
			c-6.17,0-11.14,5.06-11.14,11.32c0,6.26,4.98,11.33,11.14,11.33h39.97L575.46,408.89l-127.65-32.4c-3.68-0.94-7.53,0.08-10.29,2.7
			L270.31,537.69c-4.5,4.27-4.74,11.43-0.54,16.01C271.96,556.08,274.93,557.29,277.91,557.29z"/>
	</g>
</g>
</svg>
