<?xml version="1.0" encoding="utf-8"?>
<!-- Generator: Adobe Illustrator 23.0.2, SVG Export Plug-In . SVG Version: 6.00 Build 0)  -->
<svg version="1.1" id="Layer_1" xmlns="http://www.w3.org/2000/svg" xmlns:xlink="http://www.w3.org/1999/xlink" x="0px" y="0px"
	 viewBox="0 0 1024 1024" style="enable-background:new 0 0 1024 1024;" xml:space="preserve">
<!--<style type="text/css">
	.st0{fill:#060606;}
</style>-->
<g>
	<path class="st0" d="M512,40.93c63.61,0,125.29,12.45,183.35,37.01c56.09,23.72,106.47,57.69,149.74,100.96
		s77.24,93.65,100.96,149.74c24.56,58.06,37.01,119.75,37.01,183.35s-12.45,125.29-37.01,183.35
		c-23.72,56.09-57.69,106.47-100.96,149.74c-43.27,43.27-93.65,77.24-149.74,100.96C637.29,970.6,575.6,983.05,512,983.05
		s-125.29-12.45-183.35-37.01c-56.09-23.72-106.47-57.69-149.74-100.96s-77.24-93.65-100.96-149.74
		C53.38,637.29,40.93,575.61,40.93,512s12.45-125.29,37.01-183.35c23.72-56.09,57.69-106.47,100.96-149.74
		s93.65-77.24,149.74-100.96C386.71,53.38,448.39,40.93,512,40.93 M512,15.93C238.03,15.93,15.93,238.03,15.93,512
		s222.1,496.07,496.07,496.07s496.07-222.1,496.07-496.07S785.97,15.93,512,15.93L512,15.93z"/>
</g>
<g>
	<g>
		<path class="st0" d="M461,463.1h160.29v-13.97H461V463.1z M461,532.96h160.29v-13.97H461V532.96z M461,602.81h160.29v-13.97H461
			V602.81z M461,672.66h160.29v-13.97H461V672.66z M402.71,463.1h29.14v-13.97h-29.14V463.1z M402.71,532.96h29.14v-13.97h-29.14
			V532.96z M402.71,602.81h29.14v-13.97h-29.14V602.81z M402.71,672.66h29.14v-13.97h-29.14V672.66z M581.45,337.37l-5.47-20.96
			h-27.55v-27.94h-72.86v27.94h-27.55l-5.46,20.96h-98.13v398.16h335.16V337.37H581.45z M459.4,330.38h30.74v-27.94h43.72v27.94
			h30.74l10.93,41.92H448.47L459.4,330.38z M665.01,721.56H358.98V351.34h79.92l-9.11,34.92H594.2l-9.11-34.92h79.92V721.56z"/>
	</g>
</g>
</svg>
