<svg xmlns="http://www.w3.org/2000/svg" width="1024" height="1024" viewBox="0 0 1024 1024">
  <metadata><?xpacket begin="﻿" id="W5M0MpCehiHzreSzNTczkc9d"?>
<x:xmpmeta xmlns:x="adobe:ns:meta/" x:xmptk="Adobe XMP Core 5.6-c142 79.160924, 2017/07/13-01:06:39        ">
   <rdf:RDF xmlns:rdf="http://www.w3.org/1999/02/22-rdf-syntax-ns#">
      <rdf:Description rdf:about=""/>
   </rdf:RDF>
</x:xmpmeta>
                                                                                                    
                                                                                                    
                                                                                                    
                                                                                                    
                                                                                                    
                                                                                                    
                                                                                                    
                                                                                                    
                                                                                                    
                                                                                                    
                                                                                                    
                                                                                                    
                                                                                                    
                                                                                                    
                                                                                                    
                                                                                                    
                                                                                                    
                                                                                                    
                                                                                                    
                                                                                                    
                           
<?xpacket end="w"?></metadata>
<defs>
 <!--   <style>
      .cls-1 {
        fill: #fff;
        fill-opacity: 0;
        stroke: #000;
        stroke-linejoin: round;
        stroke-width: 2px;
      }

      .cls-2 {
        fill-rule: evenodd;
      }
    </style>-->
  </defs>
  <circle id="Ellipse_2_copy" data-name="Ellipse 2 copy" class="cls-1" cx="512" cy="512" r="507"/>
  <path id="male-user_copy" data-name="male-user copy" class="cls-2" d="M774.5,812h-525A37.542,37.542,0,0,1,212,774.508V737.015a18.757,18.757,0,0,1,9.779-16.458l183.543-100.1c-61.468-66.492-62.144-160.537-62.144-164.885l0.11-112.409a19.507,19.507,0,0,1,.254-3.093C356.47,263.456,441.083,211.994,512,211.994h0.073c70.881,0,155.457,51.427,168.42,128.023a19.73,19.73,0,0,1,.257,3.124l0.074,112.406c0,4.34-.677,98.383-62.146,164.878L802.221,720.519A18.757,18.757,0,0,1,812,736.979v37.529A37.541,37.541,0,0,1,774.5,812Zm0-37.493v0h0Zm-525-26.363v26.363H774.462l0.019-26.37L578.028,640.955a18.737,18.737,0,0,1-2.839-31.02c67.456-54.695,68.133-153.374,68.133-154.36l-0.073-110.768C632.7,288.539,565.979,249.451,512,249.451c-54,.028-120.7,39.134-131.212,95.393l-0.111,110.769c0,0.958,1.044,99.947,68.134,154.357a18.74,18.74,0,0,1-2.838,31.021Z"/>
</svg>
