<svg xmlns="http://www.w3.org/2000/svg" xmlns:xlink="http://www.w3.org/1999/xlink" width="69.953" height="69.953" viewBox="0 0 69.953 69.953">
  <defs>
    <clipPath id="clip-path">
      <circle id="Ellipse_3" data-name="Ellipse 3" cx="34.977" cy="34.977" r="34.977" fill="#e4e4e4"/>
    </clipPath>
  </defs>
  <g id="user_placeholder" transform="translate(-146 -116)">
    <g id="Ellipse_3-2" data-name="Ellipse 3" transform="translate(146 116)">
      <circle id="Ellipse_3-3" data-name="Ellipse 3" cx="34.977" cy="34.977" r="34.977" transform="translate(0 0)" fill="#e4e4e4"/>
    </g>
    <path id="Icon_awesome-user-alt" data-name="Icon awesome-user-alt" d="M18,20.25A10.125,10.125,0,1,0,7.875,10.125,10.128,10.128,0,0,0,18,20.25Zm9,2.25H23.126a12.24,12.24,0,0,1-10.252,0H9a9,9,0,0,0-9,9v1.125A3.376,3.376,0,0,0,3.375,36h29.25A3.376,3.376,0,0,0,36,32.625V31.5A9,9,0,0,0,27,22.5Z" transform="translate(163 133)" fill="#fff"/>
  </g>
</svg>
