<svg xmlns="http://www.w3.org/2000/svg" width="30.837" height="20.558" viewBox="0 0 30.837 20.558"><defs><style>.a{fill:#545454;}</style></defs><path class="a" d="M29,21.826H27.157q.187-.5.883-2.4l.04-.12q.054-.134.134-.348t.12-.348l.161.736Zm-19.327-.87L8.9,17.008a.887.887,0,0,0-1-.723H4.311l-.027.174a7.1,7.1,0,0,1,5.394,4.5Zm2.4-4.671L9.905,22.147l-.228-1.191A4.867,4.867,0,0,0,8.54,19.223a5.191,5.191,0,0,0-1.753-1.184l1.807,6.826h2.342l3.493-8.579H12.073Zm1.86,8.593h2.222l1.392-8.593H15.326ZM24.213,16.5a5.424,5.424,0,0,0-1.994-.361,4.338,4.338,0,0,0-2.69.79,2.49,2.49,0,0,0-1.057,2.048q-.013,1.365,1.941,2.329a3.7,3.7,0,0,1,.9.549.713.713,0,0,1,.254.522.67.67,0,0,1-.4.616,1.933,1.933,0,0,1-.924.214,4.836,4.836,0,0,1-2.088-.442l-.294-.147-.308,1.927A5.93,5.93,0,0,0,20.023,25a4.419,4.419,0,0,0,2.791-.79,2.632,2.632,0,0,0,1.077-2.141q0-1.419-1.874-2.329a6.468,6.468,0,0,1-.95-.562.644.644,0,0,1-.294-.509.625.625,0,0,1,.328-.515,1.686,1.686,0,0,1,.944-.221,3.778,3.778,0,0,1,1.66.321l.2.107Zm5.688-.214H28.188a1.137,1.137,0,0,0-1.164.723l-3.292,7.87H26.06l.468-1.285h2.837q.067.294.268,1.285h2.061ZM33.408,12V29.134a1.737,1.737,0,0,1-1.713,1.713H4.284a1.646,1.646,0,0,1-1.2-.509,1.646,1.646,0,0,1-.509-1.2V12a1.646,1.646,0,0,1,.509-1.2,1.646,1.646,0,0,1,1.2-.509H31.694A1.737,1.737,0,0,1,33.408,12Z" transform="translate(-2.571 -10.289)"/></svg>