<svg xmlns="http://www.w3.org/2000/svg" width="1024" height="1024" viewBox="0 0 1024 1024">
  <metadata><?xpacket begin="﻿" id="W5M0MpCehiHzreSzNTczkc9d"?>
<x:xmpmeta xmlns:x="adobe:ns:meta/" x:xmptk="Adobe XMP Core 5.6-c142 79.160924, 2017/07/13-01:06:39        ">
   <rdf:RDF xmlns:rdf="http://www.w3.org/1999/02/22-rdf-syntax-ns#">
      <rdf:Description rdf:about=""/>
   </rdf:RDF>
</x:xmpmeta>
                                                                                                    
                                                                                                    
                                                                                                    
                                                                                                    
                                                                                                    
                                                                                                    
                                                                                                    
                                                                                                    
                                                                                                    
                                                                                                    
                                                                                                    
                                                                                                    
                                                                                                    
                                                                                                    
                                                                                                    
                                                                                                    
                                                                                                    
                                                                                                    
                                                                                                    
                                                                                                    
                           
<?xpacket end="w"?></metadata>
<defs>
    <!--<style>
      .cls-1 {
        fill: #fff;
        fill-opacity: 0;
        stroke: #000;
        stroke-linejoin: round;
        stroke-width: 2px;
      }

      .cls-2 {
        fill-rule: evenodd;
      }
    </style>-->
  </defs>
  <circle id="Ellipse_2_copy" data-name="Ellipse 2 copy" class="cls-1" cx="512" cy="512" r="507"/>
  <path id="Forma_1" data-name="Forma 1" class="cls-2" d="M790.466,287.313L578.974,173.74c-20.062-10.775-47.648-2.485-58.515,17.411L396.739,419.122H246.271c-19.227,0-34.274,14.923-34.274,33.989v368.9c0,19.066,15.047,33.99,34.274,33.99H726.935c19.227,0,34.274-14.924,34.274-33.99V735.8H775.42A13.147,13.147,0,0,0,788.8,722.532v-98.65a13.149,13.149,0,0,0-13.375-13.263H761.209V513.627c0-15.751-11.7-29.844-26.75-33.159l73.563-135.127A43.27,43.27,0,0,0,790.466,287.313ZM640,236.743L507.92,479.637H470.3L611.576,221.823Zm-95.3-33.159c4.18-7.46,14.212-10.775,21.735-6.63l20.9,11.606L440.209,479.637H394.232Zm-306.789,248.7c0-2.485,3.344-6.633,7.524-6.633H381.693L363.3,478.81H245.435a23.385,23.385,0,0,0-7.524.827V452.281Zm495.712,369.73a7.461,7.461,0,0,1-7.524,7.461H245.435a7.461,7.461,0,0,1-7.524-7.461V513.627a7.461,7.461,0,0,1,7.524-7.461H725.264a7.461,7.461,0,0,1,7.523,7.461v96.992H681.8a39.967,39.967,0,0,0-40.126,39.792v45.594c0,22.381,18.392,39.79,40.126,39.79h51.828v86.216h0Zm26.75-184.863h0.836v72.12H681.8a13.148,13.148,0,0,1-13.375-13.263V650.411A13.148,13.148,0,0,1,681.8,637.148h78.578Zm23.406-305.07-80.25,147.559H538.014L663.4,250.009l113.688,61.346C785.451,314.67,787.959,324.618,783.779,332.078Zm-50.992-12.433-6.688-3.318c-16.718-9.118-39.289-2.487-48.484,14.093l-8.359,15.751c-4.18,8.291-5.852,18.239-2.508,27.356A33.454,33.454,0,0,0,684.3,394.251l6.688,3.318a38.307,38.307,0,0,0,16.719,4.145c13.375,0,25.078-7.463,31.765-18.239l8.36-15.75C756.193,350.316,749.506,328.763,732.787,319.645Zm-9.2,35.647-8.359,15.751a9.487,9.487,0,0,1-12.539,3.315l-6.688-4.146c-1.672-.83-3.344-3.317-4.18-4.975-0.836-2.488-.836-4.973.836-6.63l8.359-15.751c1.673-2.488,5.016-4.975,8.36-4.975a7.578,7.578,0,0,1,4.179.83l6.688,3.315A12.823,12.823,0,0,1,723.592,355.292Z"/>
</svg>
